Lucknow[wght].glyphspackage
{
glyphname = exclam;
layers = (
{
layerId = "405326B1-6BF5-43CA-AF9F-47F385A9BA9E";
shapes = (
{
closed = 1;
nodes = (
(271,706,o),
(241,752,o),
(188,752,cs),
(133,752,o),
(104,706,o),
(104,626,cs),
(104,573,o),
(108,521,o),
(115,470,cs),
(122,419,o),
(132,376,o),
(145,343,cs),
(157,310,o),
(171,293,o),
(187,293,cs),
(202,293,o),
(216,310,o),
(229,343,cs),
(242,376,o),
(252,419,o),
(260,471,cs),
(267,522,o),
(271,574,o),
(271,626,cs)
);
},
{
closed = 1;
nodes = (
(250,-9,o),
(293,30,o),
(293,85,cs),
(293,141,o),
(250,179,o),
(189,179,cs),
(128,179,o),
(84,140,o),
(84,85,cs),
(84,30,o),
(129,-9,o),
(189,-9,cs)
);
}
);
width = 377;
},
{
layerId = "757F0D97-04AA-4B34-B6FD-694B5135A2D3";
shapes = (
{
closed = 1;
nodes = (
(208,723,o),
(186,752,o),
(151,752,cs),
(116,752,o),
(95,723,o),
(95,658,cs),
(95,582,o),
(97,514,o),
(102,451,cs),
(107,387,o),
(114,337,o),
(122,302,cs),
(130,265,o),
(140,246,o),
(151,246,cs),
(161,246,o),
(171,265,o),
(180,302,cs),
(188,338,o),
(195,388,o),
(200,452,cs),
(205,515,o),
(208,583,o),
(208,658,cs)
);
},
{
closed = 1;
nodes = (
(194,-9,o),
(222,17,o),
(222,57,cs),
(222,96,o),
(195,124,o),
(153,124,cs),
(113,124,o),
(84,97,o),
(84,57,cs),
(84,19,o),
(112,-9,o),
(153,-9,cs)
);
}
);
width = 306;
},
{
layerId = "41C2A34C-83CD-4E58-A113-8C77F8A82D56";
shapes = (
{
closed = 1;
nodes = (
(176,731,o),
(158,752,o),
(132,752,cs),
(107,752,o),
(90,731,o),
(90,674,cs),
(90,587,o),
(92,510,o),
(96,441,cs),
(99,371,o),
(105,318,o),
(111,281,cs),
(117,242,o),
(124,223,o),
(133,223,cs),
(141,223,o),
(149,242,o),
(155,281,cs),
(161,319,o),
(166,372,o),
(170,442,cs),
(174,511,o),
(176,588,o),
(176,674,cs)
);
},
{
closed = 1;
nodes = (
(166,-9,o),
(186,11,o),
(186,43,cs),
(186,73,o),
(167,96,o),
(135,96,cs),
(105,96,o),
(84,75,o),
(84,43,cs),
(84,13,o),
(103,-9,o),
(135,-9,cs)
);
}
);
width = 270;
}
);
unicode = 33;
}
{
glyphname = quotedbl;
layers = (
{
layerId = "84F707B8-E6F6-4560-9E91-EBCBB3F7C032";
shapes = (
{
alignment = -1;
ref = quotesingle;
},
{
alignment = -1;
pos = (210,0);
ref = quotesingle;
}
);
width = 482;
},
{
layerId = "DF169942-312F-4CB9-BFF4-C95DA1EFA8DD";
shapes = (
{
closed = 1;
nodes = (
(98,439,o),
(106,439,o),
(111,457,c),
(118,471,o),
(123,504,o),
(129,552,cs),
(136,600,o),
(139,642,o),
(139,680,cs),
(139,710,o),
(123,728,o),
(101,728,cs),
(78,728,o),
(63,710,o),
(63,680,cs),
(63,642,o),
(66,600,o),
(72,552,cs),
(79,504,o),
(84,471,o),
(90,457,cs)
);
},
{
closed = 1;
nodes = (
(260,439,o),
(268,439,o),
(273,457,c),
(280,471,o),
(285,504,o),
(291,552,cs),
(298,600,o),
(301,642,o),
(301,680,cs),
(301,710,o),
(285,728,o),
(263,728,cs),
(240,728,o),
(225,710,o),
(225,680,cs),
(225,642,o),
(228,600,o),
(234,552,cs),
(241,504,o),
(246,471,o),
(252,457,cs)
);
}
);
width = 363;
},
{
layerId = "85DC3871-BA98-4DCB-A963-6B42D2E15F96";
shapes = (
{
closed = 1;
nodes = (
(98,439,o),
(106,439,o),
(111,457,c),
(118,471,o),
(123,504,o),
(129,552,c),
(136,600,o),
(139,642,o),
(139,680,cs),
(139,710,o),
(123,728,o),
(101,728,cs),
(78,728,o),
(63,710,o),
(63,680,cs),
(63,642,o),
(66,600,o),
(72,552,cs),
(79,504,o),
(84,471,o),
(90,457,cs)
);
},
{
closed = 1;
nodes = (
(260,439,o),
(268,439,o),
(273,457,c),
(280,471,o),
(285,504,o),
(291,552,c),
(298,600,o),
(301,642,o),
(301,680,cs),
(301,710,o),
(285,728,o),
(263,728,cs),
(240,728,o),
(225,710,o),
(225,680,cs),
(225,642,o),
(228,600,o),
(234,552,cs),
(241,504,o),
(246,471,o),
(252,457,cs)
);
}
);
width = 363;
}
);
unicode = 34;
}
{
glyphname = numbersign;
layers = (
{
layerId = "72BDA083-B3C3-4444-A72D-7A06DB42C04D";
shapes = (
{
closed = 1;
nodes = (
(393,700,l),
(393,0,l),
(236,0,l),
(236,700,l)
);
},
{
closed = 1;
nodes = (
(686,700,l),
(686,0,l),
(529,0,l),
(529,700,l)
);
},
{
closed = 1;
nodes = (
(838,555,l),
(838,419,l),
(84,419,l),
(84,555,l)
);
},
{
closed = 1;
nodes = (
(838,283,l),
(838,147,l),
(84,147,l),
(84,283,l)
);
}
);
width = 922;
},
{
layerId = "E5F094ED-45EA-480E-BC3C-862AD7D27802";
shapes = (
{
closed = 1;
nodes = (
(365,700,l),
(365,0,l),
(263,0,l),
(263,700,l)
);
},
{
closed = 1;
nodes = (
(659,700,l),
(659,0,l),
(557,0,l),
(557,700,l)
);
},
{
closed = 1;
nodes = (
(838,536,l),
(838,447,l),
(84,447,l),
(84,536,l)
);
},
{
closed = 1;
nodes = (
(838,255,l),
(838,166,l),
(84,166,l),
(84,255,l)
);
}
);
width = 922;
},
{
layerId = "29E3C8E8-2B44-49C3-BAE8-24201C487834";
shapes = (
{
closed = 1;
nodes = (
(351,700,l),
(351,0,l),
(277,0,l),
(277,700,l)
);
},
{
closed = 1;
nodes = (
(645,700,l),
(645,0,l),
(571,0,l),
(571,700,l)
);
},
{
closed = 1;
nodes = (
(838,526,l),
(838,461,l),
(84,461,l),
(84,526,l)
);
},
{
closed = 1;
nodes = (
(838,241,l),
(838,176,l),
(84,176,l),
(84,241,l)
);
}
);
width = 922;
}
);
unicode = 35;
}
{
glyphname = dollar;
layers = (
{
layerId = "72BDA083-B3C3-4444-A72D-7A06DB42C04D";
shapes = (
{
closed = 1;
nodes = (
(238,52,l),
(364,52,l),
(364,-94,l),
(238,-94,l)
);
},
{
closed = 1;
nodes = (
(259,794,l),
(385,794,l),
(385,648,l),
(259,648,l)
);
},
{
closed = 1;
nodes = (
(263,564,o),
(229,541,o),
(229,506,cs),
(229,488,o),
(238,473,o),
(255,462,cs),
(272,450,o),
(303,435,o),
(349,417,cs),
(416,391,o),
(467,362,o),
(502,331,cs),
(537,299,o),
(555,256,o),
(555,201,cs),
(555,159,o),
(544,122,o),
(523,90,cs),
(480,26,o),
(399,-10,o),
(298,-10,cs),
(255,-10,o),
(213,-4,o),
(170,10,cs),
(127,23,o),
(91,40,o),
(63,63,c),
(63,241,l),
(136,177,o),
(223,136,o),
(298,136,cs),
(355,136,o),
(388,162,o),
(388,201,cs),
(388,218,o),
(379,233,o),
(360,245,cs),
(341,256,o),
(304,272,o),
(251,292,c),
(227,302,ls),
(116,345,o),
(63,397,o),
(63,496,cs),
(63,539,o),
(74,576,o),
(95,609,cs),
(137,673,o),
(215,710,o),
(314,710,cs),
(407,710,o),
(498,682,o),
(545,637,c),
(545,459,l),
(512,489,o),
(474,514,o),
(432,534,cs),
(389,554,o),
(350,564,o),
(314,564,cs)
);
}
);
width = 618;
},
{
layerId = "E5F094ED-45EA-480E-BC3C-862AD7D27802";
shapes = (
{
closed = 1;
nodes = (
(245,36,l),
(324,36,l),
(324,-94,l),
(245,-94,l)
);
},
{
closed = 1;
nodes = (
(266,794,l),
(345,794,l),
(345,664,l),
(266,664,l)
);
},
{
closed = 1;
nodes = (
(216,619,o),
(167,580,o),
(167,522,cs),
(167,493,o),
(179,469,o),
(204,451,c),
(227,432,o),
(265,412,o),
(317,394,c),
(381,369,o),
(432,341,o),
(469,310,cs),
(505,280,o),
(523,237,o),
(523,185,cs),
(523,147,o),
(514,113,o),
(496,83,c),
(458,24,o),
(387,-10,o),
(298,-10,cs),
(255,-10,o),
(213,-2,o),
(170,16,cs),
(127,33,o),
(92,56,o),
(63,86,c),
(63,209,l),
(130,126,o),
(214,81,o),
(298,81,cs),
(378,81,o),
(420,121,o),
(420,185,cs),
(420,213,o),
(406,237,o),
(379,256,cs),
(352,274,o),
(310,294,o),
(253,316,c),
(227,325,l),
(121,366,o),
(63,426,o),
(63,519,cs),
(63,558,o),
(73,591,o),
(91,620,c),
(129,677,o),
(200,710,o),
(291,710,cs),
(377,710,o),
(465,677,o),
(513,621,c),
(513,498,l),
(482,538,o),
(447,568,o),
(409,589,cs),
(371,609,o),
(331,619,o),
(291,619,cs)
);
}
);
width = 586;
},
{
layerId = "29E3C8E8-2B44-49C3-BAE8-24201C487834";
shapes = (
{
closed = 1;
nodes = (
(249,28,l),
(304,28,l),
(304,-94,l),
(249,-94,l)
);
},
{
closed = 1;
nodes = (
(270,794,l),
(325,794,l),
(325,672,l),
(270,672,l)
);
},
{
closed = 1;
nodes = (
(192,647,o),
(136,599,o),
(136,530,cs),
(136,496,o),
(150,467,o),
(178,445,cs),
(205,423,o),
(246,401,o),
(301,382,c),
(364,358,o),
(415,331,o),
(452,300,cs),
(489,270,o),
(507,228,o),
(507,177,cs),
(507,141,o),
(499,108,o),
(482,80,cs),
(447,23,o),
(381,-10,o),
(298,-10,cs),
(255,-10,o),
(213,-1,o),
(170,19,cs),
(127,38,o),
(92,64,o),
(63,98,c),
(63,193,l),
(127,101,o),
(209,53,o),
(298,53,cs),
(389,53,o),
(436,101,o),
(436,177,cs),
(436,210,o),
(420,239,o),
(389,261,cs),
(358,283,o),
(313,305,o),
(254,328,c),
(227,337,l),
(123,377,o),
(63,440,o),
(63,531,cs),
(63,567,o),
(72,599,o),
(89,625,cs),
(125,679,o),
(193,710,o),
(279,710,cs),
(362,710,o),
(448,674,o),
(497,613,c),
(497,518,l),
(467,562,o),
(434,595,o),
(398,616,cs),
(362,637,o),
(322,647,o),
(279,647,cs)
);
}
);
width = 570;
}
);
unicode = 36;
}
{
glyphname = percent;
layers = (
{
layerId = "62CCE428-27AF-4174-8C32-8EDF06C2E6AE";
shapes = (
{
closed = 1;
nodes = (
(265,490,o),
(277,495,o),
(288,506,cs),
(299,517,o),
(304,529,o),
(304,543,cs),
(304,557,o),
(299,569,o),
(288,580,cs),
(277,590,o),
(265,595,o),
(251,595,cs),
(238,595,o),
(226,590,o),
(215,580,cs),
(204,569,o),
(199,557,o),
(199,543,cs),
(199,529,o),
(204,517,o),
(215,506,cs),
(226,495,o),
(238,490,o),
(251,490,cs)
);
},
{
closed = 1;
nodes = (
(282,710,o),
(310,703,o),
(336,688,cs),
(387,658,o),
(419,603,o),
(419,543,cs),
(419,513,o),
(412,485,o),
(397,459,cs),
(367,407,o),
(312,375,o),
(251,375,cs),
(221,375,o),
(193,383,o),
(168,398,cs),
(116,428,o),
(84,483,o),
(84,543,cs),
(84,573,o),
(92,601,o),
(107,627,cs),
(137,678,o),
(191,710,o),
(251,710,cs)
);
},
{
closed = 1;
nodes = (
(727,115,o),
(739,120,o),
(750,131,cs),
(760,142,o),
(765,154,o),
(765,168,cs),
(765,182,o),
(760,194,o),
(750,205,c),
(739,215,o),
(727,220,o),
(713,220,cs),
(699,220,o),
(687,215,o),
(676,205,cs),
(665,194,o),
(660,182,o),
(660,168,cs),
(660,154,o),
(665,142,o),
(676,131,cs),
(687,120,o),
(699,115,o),
(713,115,cs)
);
},
{
closed = 1;
nodes = (
(743,335,o),
(771,328,o),
(797,313,cs),
(848,283,o),
(880,228,o),
(880,168,cs),
(880,138,o),
(873,110,o),
(858,84,cs),
(828,32,o),
(773,0,o),
(713,0,cs),
(683,0,o),
(655,8,o),
(629,23,cs),
(577,53,o),
(545,108,o),
(545,168,cs),
(545,198,o),
(553,226,o),
(568,252,cs),
(598,303,o),
(653,335,o),
(713,335,cs)
);
},
{
closed = 1;
nodes = (
(801,700,l),
(315,0,l),
(162,0,l),
(648,700,l)
);
}
);
width = 964;
},
{
layerId = "7A295977-FA7A-4808-B07F-0795E8A98AF6";
shapes = (
{
closed = 1;
nodes = (
(274,459,o),
(294,467,o),
(311,484,cs),
(328,500,o),
(336,520,o),
(336,543,cs),
(336,566,o),
(328,586,o),
(311,603,cs),
(294,619,o),
(274,627,o),
(251,627,cs),
(229,627,o),
(209,619,o),
(192,603,cs),
(175,586,o),
(167,566,o),
(167,543,cs),
(167,520,o),
(175,500,o),
(192,484,cs),
(209,467,o),
(229,459,o),
(251,459,cs)
);
},
{
closed = 1;
nodes = (
(282,710,o),
(310,703,o),
(336,688,cs),
(387,658,o),
(419,603,o),
(419,543,cs),
(419,513,o),
(412,485,o),
(397,459,cs),
(367,407,o),
(312,375,o),
(251,375,cs),
(221,375,o),
(193,383,o),
(168,398,cs),
(116,428,o),
(84,483,o),
(84,543,cs),
(84,573,o),
(92,601,o),
(107,627,cs),
(137,678,o),
(191,710,o),
(251,710,cs)
);
},
{
closed = 1;
nodes = (
(735,83,o),
(755,91,o),
(772,108,cs),
(789,125,o),
(797,145,o),
(797,168,cs),
(797,190,o),
(789,210,o),
(772,227,cs),
(755,244,o),
(735,252,o),
(713,252,cs),
(690,252,o),
(670,244,o),
(653,227,cs),
(636,210,o),
(628,190,o),
(628,168,cs),
(628,145,o),
(636,125,o),
(653,108,cs),
(670,91,o),
(690,83,o),
(713,83,cs)
);
},
{
closed = 1;
nodes = (
(743,335,o),
(771,328,o),
(797,313,cs),
(848,283,o),
(880,228,o),
(880,168,cs),
(880,138,o),
(873,110,o),
(858,84,cs),
(828,32,o),
(773,0,o),
(713,0,cs),
(683,0,o),
(655,8,o),
(629,23,cs),
(577,53,o),
(545,108,o),
(545,168,cs),
(545,198,o),
(553,226,o),
(568,252,cs),
(598,303,o),
(653,335,o),
(713,335,cs)
);
},
{
closed = 1;
nodes = (
(777,700,l),
(292,0,l),
(186,0,l),
(671,700,l)
);
}
);
width = 964;
},
{
layerId = "FBBD23DC-4A32-4E17-882F-E93472546798";
shapes = (
{
closed = 1;
nodes = (
(279,443,o),
(302,453,o),
(322,473,cs),
(342,492,o),
(352,515,o),
(352,543,cs),
(352,571,o),
(342,594,o),
(322,614,cs),
(302,633,o),
(279,643,o),
(251,643,cs),
(224,643,o),
(201,633,o),
(181,614,cs),
(161,594,o),
(151,571,o),
(151,543,cs),
(151,515,o),
(161,492,o),
(181,473,cs),
(201,453,o),
(224,443,o),
(251,443,cs)
);
},
{
closed = 1;
nodes = (
(282,710,o),
(310,703,o),
(336,688,cs),
(387,658,o),
(419,603,o),
(419,543,cs),
(419,513,o),
(412,485,o),
(397,459,cs),
(367,407,o),
(312,375,o),
(251,375,cs),
(221,375,o),
(193,383,o),
(168,398,cs),
(116,428,o),
(84,483,o),
(84,543,cs),
(84,573,o),
(92,601,o),
(107,627,cs),
(137,678,o),
(191,710,o),
(251,710,cs)
);
},
{
closed = 1;
nodes = (
(739,67,o),
(763,77,o),
(783,97,cs),
(803,117,o),
(813,140,o),
(813,168,cs),
(813,194,o),
(803,218,o),
(783,238,cs),
(763,258,o),
(739,268,o),
(713,268,cs),
(685,268,o),
(662,258,o),
(642,238,cs),
(622,218,o),
(612,194,o),
(612,168,cs),
(612,140,o),
(622,117,o),
(642,97,cs),
(662,77,o),
(685,67,o),
(713,67,cs)
);
},
{
closed = 1;
nodes = (
(743,335,o),
(771,328,o),
(797,313,cs),
(848,283,o),
(880,228,o),
(880,168,cs),
(880,138,o),
(873,110,o),
(858,84,cs),
(828,32,o),
(773,0,o),
(713,0,cs),
(683,0,o),
(655,8,o),
(629,23,cs),
(577,53,o),
(545,108,o),
(545,168,cs),
(545,198,o),
(553,226,o),
(568,252,cs),
(598,303,o),
(653,335,o),
(713,335,cs)
);
},
{
closed = 1;
nodes = (
(765,700,l),
(280,0,l),
(198,0,l),
(683,700,l)
);
}
);
width = 964;
}
);
unicode = 37;
}
{
glyphname = ampersand;
layers = (
{
layerId = "62CCE428-27AF-4174-8C32-8EDF06C2E6AE";
shapes = (
{
closed = 1;
nodes = (
(485,112,l),
(449,138,l),
(277,322,ls),
(248,353,o),
(225,379,o),
(209,400,c),
(176,440,o),
(155,486,o),
(155,542,cs),
(155,570,o),
(163,597,o),
(180,623,cs),
(212,674,o),
(277,710,o),
(362,710,cs),
(403,710,o),
(438,703,o),
(468,688,cs),
(528,658,o),
(561,605,o),
(561,545,cs),
(561,464,o),
(507,397,o),
(415,348,c),
(350,420,l),
(398,456,o),
(421,493,o),
(421,529,cs),
(421,560,o),
(399,585,o),
(367,585,cs),
(336,585,o),
(312,562,o),
(312,529,cs),
(312,496,o),
(342,454,o),
(398,398,cs),
(559,235,l),
(593,213,l),
(790,0,l),
(581,0,l)
);
},
{
closed = 1;
nodes = (
(245,-10,o),
(209,-2,o),
(177,13,cs),
(113,44,o),
(73,99,o),
(73,170,cs),
(73,274,o),
(138,353,o),
(267,414,c),
(347,330,l),
(271,287,o),
(241,255,o),
(241,210,cs),
(241,167,o),
(276,137,o),
(325,136,cs),
(381,135,o),
(423,160,o),
(472,207,c),
(568,107,l),
(481,31,o),
(401,-10,o),
(286,-10,cs)
);
},
{
closed = 1;
nodes = (
(511,242,l),
(564,288,o),
(601,348,o),
(624,423,c),
(781,423,l),
(754,324,o),
(691,222,o),
(610,147,c)
);
}
);
width = 863;
},
{
layerId = "7A295977-FA7A-4808-B07F-0795E8A98AF6";
shapes = (
{
closed = 1;
nodes = (
(500,126,l),
(476,142,l),
(250,372,ls),
(229,394,o),
(210,414,o),
(197,431,cs),
(170,464,o),
(151,505,o),
(151,552,cs),
(151,582,o),
(158,609,o),
(174,634,cs),
(203,681,o),
(258,710,o),
(331,710,cs),
(367,710,o),
(398,704,o),
(425,690,cs),
(478,664,o),
(508,613,o),
(508,552,cs),
(508,478,o),
(454,413,o),
(358,359,c),
(309,412,l),
(381,457,o),
(411,495,o),
(411,548,cs),
(411,593,o),
(380,624,o),
(332,624,cs),
(285,624,o),
(253,594,o),
(253,548,cs),
(253,503,o),
(277,471,o),
(327,421,cs),
(544,208,l),
(568,191,l),
(755,0,l),
(616,0,l)
);
},
{
closed = 1;
nodes = (
(235,-10,o),
(202,-3,o),
(172,12,c),
(114,39,o),
(81,91,o),
(81,153,cs),
(81,253,o),
(145,336,o),
(273,407,c),
(329,347,l),
(226,288,o),
(186,236,o),
(186,170,cs),
(186,116,o),
(224,81,o),
(284,81,cs),
(358,80,o),
(418,111,o),
(491,183,c),
(551,122,l),
(472,38,o),
(380,-10,o),
(274,-10,cs)
);
},
{
closed = 1;
nodes = (
(509,199,l),
(568,261,o),
(610,336,o),
(635,423,c),
(737,423,l),
(709,323,o),
(648,221,o),
(572,140,c)
);
}
);
width = 836;
},
{
layerId = "FBBD23DC-4A32-4E17-882F-E93472546798";
shapes = (
{
closed = 1;
nodes = (
(507,133,l),
(490,144,l),
(236,397,ls),
(219,414,o),
(203,431,o),
(191,447,cs),
(167,476,o),
(149,514,o),
(149,557,cs),
(149,588,o),
(156,615,o),
(171,639,cs),
(198,685,o),
(249,710,o),
(315,710,cs),
(349,710,o),
(378,704,o),
(403,691,c),
(453,667,o),
(481,617,o),
(481,556,cs),
(481,485,o),
(427,421,o),
(330,365,c),
(289,408,l),
(372,458,o),
(406,496,o),
(406,558,cs),
(406,610,o),
(370,644,o),
(315,644,cs),
(259,644,o),
(224,610,o),
(224,558,cs),
(224,507,o),
(245,479,o),
(291,433,cs),
(536,194,l),
(556,180,l),
(737,0,l),
(634,0,l)
);
},
{
closed = 1;
nodes = (
(230,-10,o),
(198,-3,o),
(170,11,c),
(114,37,o),
(85,87,o),
(85,144,cs),
(85,243,o),
(148,328,o),
(276,403,c),
(320,356,l),
(204,288,o),
(158,226,o),
(158,150,cs),
(158,91,o),
(198,53,o),
(263,53,c),
(346,53,o),
(416,86,o),
(500,171,c),
(543,130,l),
(467,41,o),
(369,-10,o),
(268,-10,cs)
);
},
{
closed = 1;
nodes = (
(508,177,l),
(570,248,o),
(615,330,o),
(641,423,c),
(715,423,l),
(687,322,o),
(627,221,o),
(553,137,c)
);
}
);
width = 822;
}
);
unicode = 38;
}
{
glyphname = quotesingle;
layers = (
{
layerId = "62CCE428-27AF-4174-8C32-8EDF06C2E6AE";
shapes = (
{
closed = 1;
nodes = (
(116,437,o),
(103,482,o),
(87,546,cs),
(71,609,o),
(63,657,o),
(63,692,cs),
(63,742,o),
(93,775,o),
(136,775,cs),
(181,775,o),
(210,742,o),
(210,692,cs),
(210,657,o),
(201,609,o),
(185,546,cs),
(170,482,o),
(156,437,o),
(147,409,cs),
(141,391,o),
(133,391,o),
(126,409,c)
);
}
);
width = 272;
},
{
layerId = "7A295977-FA7A-4808-B07F-0795E8A98AF6";
shapes = (
{
closed = 1;
nodes = (
(95,460,o),
(87,497,o),
(77,550,cs),
(68,603,o),
(63,647,o),
(63,684,cs),
(63,721,o),
(83,744,o),
(113,744,cs),
(142,744,o),
(163,721,o),
(163,684,cs),
(163,647,o),
(158,603,o),
(148,550,cs),
(139,497,o),
(131,460,o),
(123,441,c),
(118,423,o),
(110,423,o),
(102,441,c)
);
}
);
width = 225;
},
{
layerId = "FBBD23DC-4A32-4E17-882F-E93472546798";
shapes = (
{
closed = 1;
nodes = (
(84,471,o),
(79,504,o),
(72,552,cs),
(66,600,o),
(63,642,o),
(63,680,cs),
(63,710,o),
(78,728,o),
(101,728,cs),
(123,728,o),
(139,710,o),
(139,680,cs),
(139,642,o),
(136,600,o),
(129,552,c),
(123,504,o),
(118,471,o),
(111,457,c),
(106,439,o),
(98,439,o),
(90,457,cs)
);
}
);
width = 202;
}
);
unicode = 39;
}
{
glyphname = parenright;
layers = (
{
layerId = "198774C1-CC10-42B9-85F8-E7CE679A5159";
shapes = (
{
closed = 1;
nodes = (
(362,454,o),
(333,555,o),
(277,631,c),
(220,705,o),
(159,761,o),
(94,795,c),
(63,728,l),
(109,693,o),
(150,640,o),
(184,571,cs),
(219,502,o),
(237,420,o),
(237,325,cs),
(237,192,o),
(199,72,o),
(146,-13,c),
(119,-54,o),
(91,-88,o),
(63,-112,c),
(94,-179,l),
(160,-135,o),
(222,-72,o),
(278,9,cs),
(333,90,o),
(362,196,o),
(362,325,cs)
);
}
);
width = 424;
},
{
layerId = "D316A020-56DB-4308-AD51-D49B9BC7B732";
shapes = (
{
closed = 1;
nodes = (
(354,447,o),
(327,548,o),
(272,624,c),
(219,701,o),
(159,759,o),
(94,795,c),
(63,745,l),
(114,708,o),
(161,654,o),
(201,583,cs),
(240,513,o),
(260,427,o),
(260,325,cs),
(260,184,o),
(215,60,o),
(155,-27,cs),
(125,-69,o),
(94,-104,o),
(63,-129,c),
(94,-179,l),
(159,-134,o),
(219,-69,o),
(273,15,cs),
(327,98,o),
(354,201,o),
(354,325,cs)
);
}
);
width = 417;
},
{
layerId = "DA1743F1-FF62-465F-8D09-7851030965A4";
shapes = (
{
closed = 1;
nodes = (
(350,444,o),
(324,544,o),
(270,621,c),
(218,699,o),
(159,758,o),
(94,795,c),
(63,753,l),
(117,716,o),
(167,661,o),
(209,589,cs),
(251,518,o),
(272,430,o),
(272,325,cs),
(272,180,o),
(223,54,o),
(160,-34,cs),
(128,-77,o),
(96,-112,o),
(63,-137,c),
(94,-179,l),
(159,-133,o),
(217,-67,o),
(270,18,cs),
(324,102,o),
(350,204,o),
(350,325,cs)
);
}
);
width = 413;
}
);
unicode = 41;
}
{
glyphname = asterisk;
layers = (
{
layerId = "72BDA083-B3C3-4444-A72D-7A06DB42C04D";
shapes = (
{
closed = 1;
nodes = (
(276,635,l),
(315,478,ls),
(322,452,o),
(315,434,o),
(294,424,cs),
(273,413,o),
(252,413,o),
(231,424,cs),
(210,434,o),
(203,452,o),
(210,478,cs),
(249,635,l),
(210,792,ls),
(203,819,o),
(210,838,o),
(231,849,cs),
(252,860,o),
(274,860,o),
(295,849,cs),
(316,838,o),
(322,819,o),
(315,792,cs)
);
},
{
closed = 1;
nodes = (
(269,624,l),
(152,511,ls),
(133,492,o),
(114,490,o),
(94,503,cs),
(74,516,o),
(64,534,o),
(63,557,cs),
(62,580,o),
(74,596,o),
(100,603,cs),
(256,647,l),
(372,760,ls),
(391,779,o),
(411,782,o),
(431,769,cs),
(451,756,o),
(462,738,o),
(463,715,cs),
(464,692,o),
(451,676,o),
(424,669,c)
);
},
{
closed = 1;
nodes = (
(269,647,l),
(425,603,ls),
(451,596,o),
(464,580,o),
(463,557,cs),
(462,534,o),
(451,516,o),
(431,503,cs),
(411,490,o),
(392,492,o),
(373,511,cs),
(256,624,l),
(101,669,l),
(74,676,o),
(62,692,o),
(63,715,cs),
(64,738,o),
(74,756,o),
(94,769,cs),
(114,782,o),
(134,779,o),
(153,760,cs)
);
}
);
width = 525;
},
{
layerId = "E5F094ED-45EA-480E-BC3C-862AD7D27802";
shapes = (
{
closed = 1;
nodes = (
(261,635,l),
(287,478,ls),
(291,457,o),
(286,442,o),
(271,433,cs),
(256,424,o),
(242,424,o),
(229,433,c),
(215,442,o),
(209,457,o),
(213,478,c),
(239,635,l),
(213,792,l),
(209,814,o),
(215,830,o),
(229,839,cs),
(243,849,o),
(257,849,o),
(272,839,cs),
(286,830,o),
(291,814,o),
(287,792,cs)
);
},
{
closed = 1;
nodes = (
(254,626,l),
(131,525,l),
(116,510,o),
(99,507,o),
(85,516,c),
(70,524,o),
(63,536,o),
(64,553,c),
(64,569,o),
(74,581,o),
(95,589,cs),
(244,645,l),
(367,746,l),
(384,761,o),
(400,764,o),
(415,756,cs),
(430,748,o),
(437,736,o),
(436,719,c),
(436,702,o),
(424,690,o),
(403,682,cs)
);
},
{
closed = 1;
nodes = (
(255,645,l),
(404,589,ls),
(426,581,o),
(436,569,o),
(436,552,c),
(437,535,o),
(430,523,o),
(415,516,c),
(400,507,o),
(385,510,o),
(368,525,c),
(245,626,l),
(96,682,ls),
(75,690,o),
(64,702,o),
(64,719,c),
(63,736,o),
(70,748,o),
(85,756,cs),
(99,764,o),
(116,761,o),
(132,746,c)
);
}
);
width = 500;
},
{
layerId = "29E3C8E8-2B44-49C3-BAE8-24201C487834";
shapes = (
{
closed = 1;
nodes = (
(253,635,l),
(273,478,ls),
(275,460,o),
(271,446,o),
(260,438,cs),
(248,429,o),
(237,429,o),
(228,438,c),
(217,446,o),
(212,460,o),
(215,478,c),
(234,635,l),
(215,792,l),
(212,812,o),
(217,826,o),
(228,834,c),
(238,843,o),
(249,843,o),
(260,834,cs),
(271,826,o),
(275,812,o),
(273,792,c)
);
},
{
closed = 1;
nodes = (
(247,627,l),
(121,532,l),
(107,519,o),
(92,516,o),
(80,522,cs),
(68,528,o),
(63,537,o),
(64,551,cs),
(65,564,o),
(74,574,o),
(92,582,cs),
(238,644,l),
(365,739,l),
(381,752,o),
(395,755,o),
(407,750,cs),
(419,744,o),
(425,735,o),
(423,721,cs),
(422,707,o),
(411,697,o),
(393,688,c)
);
},
{
closed = 1;
nodes = (
(248,644,l),
(394,582,ls),
(413,574,o),
(422,564,o),
(423,550,cs),
(425,536,o),
(419,527,o),
(407,522,cs),
(395,516,o),
(381,519,o),
(365,532,c),
(239,627,l),
(93,688,l),
(75,697,o),
(65,707,o),
(64,721,cs),
(63,735,o),
(68,744,o),
(80,750,cs),
(92,755,o),
(107,752,o),
(122,739,c)
);
}
);
width = 487;
}
);
unicode = 42;
}
{
glyphname = plus;
layers = (
{
layerId = "405326B1-6BF5-43CA-AF9F-47F385A9BA9E";
shapes = (
{
closed = 1;
nodes = (
(629,377,l),
(84,377,l),
(84,251,l),
(629,251,l)
);
},
{
closed = 1;
nodes = (
(293,587,l),
(293,42,l),
(419,42,l),
(419,587,l)
);
}
);
width = 713;
},
{
layerId = "757F0D97-04AA-4B34-B6FD-694B5135A2D3";
shapes = (
{
closed = 1;
nodes = (
(629,361,l),
(84,361,l),
(84,267,l),
(629,267,l)
);
},
{
closed = 1;
nodes = (
(309,587,l),
(309,42,l),
(403,42,l),
(403,587,l)
);
}
);
width = 713;
},
{
layerId = "41C2A34C-83CD-4E58-A113-8C77F8A82D56";
shapes = (
{
closed = 1;
nodes = (
(629,353,l),
(84,353,l),
(84,275,l),
(629,275,l)
);
},
{
closed = 1;
nodes = (
(317,587,l),
(317,42,l),
(395,42,l),
(395,587,l)
);
}
);
width = 713;
}
);
unicode = 43;
}
{
glyphname = comma;
layers = (
{
layerId = "62CCE428-27AF-4174-8C32-8EDF06C2E6AE";
shapes = (
{
closed = 1;
nodes = (
(238,189,o),
(283,138,o),
(283,63,cs),
(283,14,o),
(264,-34,o),
(227,-79,cs),
(190,-124,o),
(143,-161,o),
(86,-192,cs),
(78,-196,o),
(70,-197,o),
(64,-194,cs),
(50,-188,o),
(48,-170,o),
(64,-157,cs),
(119,-111,o),
(153,-58,o),
(153,-10,cs),
(153,24,o),
(136,35,o),
(106,46,cs),
(76,58,o),
(63,66,o),
(63,94,cs),
(63,152,o),
(105,189,o),
(168,189,cs)
);
}
);
width = 346;
},
{
layerId = "7A295977-FA7A-4808-B07F-0795E8A98AF6";
shapes = (
{
closed = 1;
nodes = (
(184,133,o),
(219,94,o),
(219,34,cs),
(219,-3,o),
(204,-43,o),
(177,-82,c),
(149,-120,o),
(113,-154,o),
(67,-181,c),
(59,-185,o),
(53,-186,o),
(48,-184,cs),
(36,-181,o),
(34,-169,o),
(47,-156,c),
(101,-108,o),
(130,-58,o),
(130,-10,cs),
(130,15,o),
(117,20,o),
(92,25,cs),
(67,31,o),
(54,36,o),
(54,62,cs),
(54,105,o),
(86,133,o),
(131,133,cs)
);
}
);
width = 282;
},
{
layerId = "FBBD23DC-4A32-4E17-882F-E93472546798";
shapes = (
{
closed = 1;
nodes = (
(157,105,o),
(187,72,o),
(187,20,cs),
(187,-12,o),
(174,-48,o),
(152,-84,c),
(129,-118,o),
(98,-151,o),
(57,-176,c),
(50,-179,o),
(45,-180,o),
(40,-179,cs),
(29,-177,o),
(27,-168,o),
(39,-156,cs),
(92,-106,o),
(118,-58,o),
(118,-10,cs),
(118,10,o),
(107,13,o),
(85,15,cs),
(62,17,o),
(49,21,o),
(49,46,cs),
(49,82,o),
(76,105,o),
(112,105,cs)
);
}
);
width = 250;
}
);
leftKerningGroup = comma2;
rightKerningGroup = comma;
unicode = 44;
}
{
glyphname = hyphen;
layers = (
{
layerId = "84F707B8-E6F6-4560-9E91-EBCBB3F7C032";
shapes = (
{
closed = 1;
nodes = (
(63,356,l),
(63,231,l),
(398,231,l),
(398,356,l)
);
}
);
width = 461;
},
{
layerId = "DF169942-312F-4CB9-BFF4-C95DA1EFA8DD";
shapes = (
{
closed = 1;
nodes = (
(63,340,l),
(63,246,l),
(398,246,l),
(398,340,l)
);
}
);
width = 461;
},
{
layerId = "85DC3871-BA98-4DCB-A963-6B42D2E15F96";
shapes = (
{
closed = 1;
nodes = (
(63,332,l),
(63,254,l),
(398,254,l),
(398,332,l)
);
}
);
width = 461;
}
);
unicode = 45;
}
{
glyphname = period;
layers = (
{
layerId = "268DAC57-E2A2-4703-9B87-2E4F83AD2FBF";
shapes = (
{
closed = 1;
nodes = (
(229,-10,o),
(272,29,o),
(272,84,cs),
(272,139,o),
(229,178,o),
(168,178,cs),
(106,178,o),
(63,138,o),
(63,84,cs),
(63,29,o),
(108,-10,o),
(168,-10,cs)
);
}
);
width = 335;
},
{
layerId = "295DBF72-63CE-4360-AA06-723F1178BFCA";
shapes = (
{
closed = 1;
nodes = (
(172,-10,o),
(201,17,o),
(201,56,cs),
(201,95,o),
(173,123,o),
(133,123,cs),
(91,123,o),
(63,95,o),
(63,56,cs),
(63,18,o),
(91,-10,o),
(133,-10,cs)
);
}
);
width = 264;
},
{
layerId = "3548BA04-AEF4-4D65-BB36-2983657EE332";
shapes = (
{
closed = 1;
nodes = (
(144,-10,o),
(165,11,o),
(165,42,cs),
(165,73,o),
(145,95,o),
(115,95,cs),
(84,95,o),
(63,74,o),
(63,42,cs),
(63,12,o),
(83,-10,o),
(115,-10,cs)
);
}
);
width = 228;
}
);
leftKerningGroup = comma2;
rightKerningGroup = comma;
unicode = 46;
}
{
glyphname = slash;
layers = (
{
layerId = "405326B1-6BF5-43CA-AF9F-47F385A9BA9E";
shapes = (
{
closed = 1;
nodes = (
(362,792,l),
(500,792,l),
(158,-147,l),
(21,-147,l)
);
}
);
width = 521;
},
{
layerId = "757F0D97-04AA-4B34-B6FD-694B5135A2D3";
shapes = (
{
closed = 1;
nodes = (
(346,792,l),
(421,792,l),
(95,-100,l),
(21,-100,l)
);
}
);
width = 442;
},
{
layerId = "41C2A34C-83CD-4E58-A113-8C77F8A82D56";
shapes = (
{
closed = 1;
nodes = (
(338,792,l),
(381,792,l),
(63,-76,l),
(21,-76,l)
);
}
);
width = 402;
}
);
unicode = 47;
}
{
glyphname = zero;
layers = (
{
anchors = (
{
name = t.uni0335;
position = "{323, 350}";
}
);
layerId = "72BDA083-B3C3-4444-A72D-7A06DB42C04D";
shapes = (
{
closed = 1;
nodes = (
(264,-10,o),
(214,4,o),
(172,32,cs),
(88,90,o),
(42,200,o),
(42,350,cs),
(42,424,o),
(53,489,o),
(75,544,cs),
(121,652,o),
(205,710,o),
(323,710,cs),
(412,710,o),
(481,679,o),
(531,615,cs),
(581,551,o),
(606,463,o),
(606,350,cs),
(606,237,o),
(581,149,o),
(531,85,cs),
(481,21,o),
(412,-10,o),
(323,-10,cs)
);
},
{
closed = 1;
nodes = (
(398,136,o),
(438,211,o),
(438,350,cs),
(438,489,o),
(398,564,o),
(323,564,cs),
(248,564,o),
(210,491,o),
(210,350,cs),
(210,209,o),
(248,136,o),
(323,136,cs)
);
}
);
width = 648;
},
{
anchors = (
{
name = t.uni0335;
position = "{323, 350}";
}
);
layerId = "E5F094ED-45EA-480E-BC3C-862AD7D27802";
shapes = (
{
closed = 1;
nodes = (
(261,-10,o),
(214,3,o),
(176,31,cs),
(99,88,o),
(58,197,o),
(58,350,cs),
(58,425,o),
(68,492,o),
(88,545,cs),
(128,653,o),
(205,710,o),
(316,710,cs),
(398,710,o),
(462,679,o),
(507,616,cs),
(552,554,o),
(574,465,o),
(574,350,cs),
(574,235,o),
(552,146,o),
(507,84,cs),
(462,21,o),
(398,-10,o),
(316,-10,cs)
);
},
{
closed = 1;
nodes = (
(415,81,o),
(470,177,o),
(470,350,cs),
(470,523,o),
(415,619,o),
(316,619,cs),
(215,619,o),
(163,524,o),
(163,350,cs),
(163,176,o),
(215,81,o),
(316,81,cs)
);
}
);
width = 632;
},
{
anchors = (
{
name = t.uni0335;
position = "{323, 350}";
}
);
layerId = "29E3C8E8-2B44-49C3-BAE8-24201C487834";
shapes = (
{
closed = 1;
nodes = (
(259,-10,o),
(214,3,o),
(178,31,cs),
(104,87,o),
(66,195,o),
(66,350,cs),
(66,426,o),
(75,494,o),
(94,546,c),
(131,654,o),
(205,710,o),
(312,710,cs),
(391,710,o),
(453,679,o),
(495,617,cs),
(537,556,o),
(558,466,o),
(558,350,cs),
(558,234,o),
(537,144,o),
(495,83,cs),
(453,21,o),
(391,-10,o),
(312,-10,cs)
);
},
{
closed = 1;
nodes = (
(424,53,o),
(486,160,o),
(486,350,cs),
(486,540,o),
(424,647,o),
(312,647,cs),
(199,647,o),
(139,540,o),
(139,350,cs),
(139,160,o),
(199,53,o),
(312,53,cs)
);
}
);
width = 624;
}
);
unicode = 48;
}
{
glyphname = one;
layers = (
{
layerId = "62CCE428-27AF-4174-8C32-8EDF06C2E6AE";
shapes = (
{
closed = 1;
nodes = (
(398,710,l),
(398,0,l),
(231,0,l),
(231,517,l),
(42,459,l),
(42,595,l)
);
}
);
width = 482;
},
{
layerId = "7A295977-FA7A-4808-B07F-0795E8A98AF6";
shapes = (
{
closed = 1;
nodes = (
(335,710,l),
(335,0,l),
(231,0,l),
(231,586,l),
(42,522,l),
(42,611,l)
);
}
);
width = 435;
},
{
layerId = "FBBD23DC-4A32-4E17-882F-E93472546798";
shapes = (
{
closed = 1;
nodes = (
(303,710,l),
(303,0,l),
(231,0,l),
(231,620,l),
(42,554,l),
(42,619,l)
);
}
);
width = 411;
}
);
unicode = 49;
}
{
glyphname = two;
layers = (
{
layerId = "198774C1-CC10-42B9-85F8-E7CE679A5159";
shapes = (
{
closed = 1;
nodes = (
(513,147,l),
(265,147,l),
(349,245,ls),
(380,282,o),
(406,314,o),
(425,343,cs),
(444,371,o),
(459,399,o),
(469,427,cs),
(479,454,o),
(484,483,o),
(484,513,cs),
(484,575,o),
(464,623,o),
(424,658,cs),
(383,693,o),
(327,710,o),
(254,710,cs),
(219,710,o),
(182,704,o),
(143,693,cs),
(104,682,o),
(70,667,o),
(42,648,c),
(42,490,l),
(105,534,o),
(178,564,o),
(233,564,cs),
(285,564,o),
(316,534,o),
(316,482,cs),
(316,459,o),
(309,433,o),
(295,405,cs),
(281,377,o),
(259,345,o),
(228,309,c),
(42,84,l),
(42,0,l),
(513,0,l)
);
}
);
width = 555;
},
{
layerId = "D316A020-56DB-4308-AD51-D49B9BC7B732";
shapes = (
{
closed = 1;
nodes = (
(498,91,l),
(204,91,l),
(318,235,ls),
(352,277,o),
(378,312,o),
(398,341,cs),
(417,369,o),
(432,398,o),
(444,428,cs),
(455,456,o),
(461,486,o),
(461,518,cs),
(461,576,o),
(441,622,o),
(403,658,cs),
(365,693,o),
(314,710,o),
(249,710,cs),
(214,710,o),
(180,704,o),
(146,693,cs),
(111,681,o),
(83,666,o),
(58,648,c),
(58,546,l),
(119,591,o),
(187,619,o),
(244,619,cs),
(312,619,o),
(356,577,o),
(356,510,cs),
(356,477,o),
(347,444,o),
(330,410,cs),
(313,376,o),
(284,335,o),
(245,286,cs),
(58,52,l),
(58,0,l),
(498,0,l)
);
}
);
width = 555;
},
{
layerId = "DA1743F1-FF62-465F-8D09-7851030965A4";
shapes = (
{
closed = 1;
nodes = (
(490,63,l),
(173,63,l),
(302,230,l),
(338,274,o),
(364,311,o),
(384,340,cs),
(404,368,o),
(419,397,o),
(432,428,c),
(443,457,o),
(449,488,o),
(449,520,cs),
(449,576,o),
(430,622,o),
(393,658,cs),
(356,693,o),
(308,710,o),
(247,710,cs),
(212,710,o),
(179,704,o),
(148,693,cs),
(115,681,o),
(89,665,o),
(66,648,c),
(66,574,l),
(126,620,o),
(192,647,o),
(250,647,cs),
(326,647,o),
(376,598,o),
(376,524,cs),
(376,486,o),
(366,449,o),
(348,413,cs),
(329,376,o),
(296,330,o),
(253,275,cs),
(66,36,l),
(66,0,l),
(490,0,l)
);
}
);
width = 555;
}
);
unicode = 50;
}
{
glyphname = three;
layers = (
{
layerId = "84F707B8-E6F6-4560-9E91-EBCBB3F7C032";
shapes = (
{
closed = 1;
nodes = (
(413,400,o),
(435,418,o),
(455,444,cs),
(475,469,o),
(484,500,o),
(484,535,cs),
(484,604,o),
(445,659,o),
(378,688,cs),
(345,703,o),
(306,710,o),
(262,710,cs),
(194,710,o),
(114,691,o),
(63,658,c),
(63,511,l),
(130,545,o),
(194,564,o),
(241,564,cs),
(286,564,o),
(316,539,o),
(316,500,cs),
(316,457,o),
(285,432,o),
(231,432,cs),
(169,432,l),
(169,306,l),
(231,306,ls),
(305,306,o),
(348,275,o),
(348,220,cs),
(348,170,o),
(305,136,o),
(241,136,cs),
(166,136,o),
(100,160,o),
(42,210,c),
(42,52,l),
(91,15,o),
(171,-10,o),
(262,-10,cs),
(363,-10,o),
(442,27,o),
(484,94,cs),
(505,128,o),
(516,167,o),
(516,210,cs),
(516,271,o),
(491,322,o),
(454,355,c),
(434,371,o),
(413,384,o),
(390,391,c)
);
}
);
width = 557;
},
{
layerId = "DF169942-312F-4CB9-BFF4-C95DA1EFA8DD";
shapes = (
{
closed = 1;
nodes = (
(389,390,o),
(417,407,o),
(440,435,c),
(464,462,o),
(477,493,o),
(477,531,cs),
(477,602,o),
(439,658,o),
(375,688,cs),
(343,703,o),
(305,710,o),
(263,710,cs),
(196,710,o),
(129,692,o),
(79,658,c),
(79,558,l),
(137,598,o),
(201,619,o),
(258,619,cs),
(327,619,o),
(372,580,o),
(372,523,cs),
(372,458,o),
(322,416,o),
(232,416,cs),
(185,416,l),
(185,329,l),
(232,329,ls),
(338,329,o),
(395,282,o),
(395,203,cs),
(395,127,o),
(338,81,o),
(258,81,cs),
(189,81,o),
(117,109,o),
(58,163,c),
(58,52,l),
(108,13,o),
(181,-10,o),
(263,-10,cs),
(358,-10,o),
(432,27,o),
(470,91,cs),
(490,123,o),
(500,160,o),
(500,200,cs),
(500,265,o),
(468,317,o),
(425,348,cs),
(404,364,o),
(381,375,o),
(359,380,c)
);
}
);
width = 557;
},
{
layerId = "85DC3871-BA98-4DCB-A963-6B42D2E15F96";
shapes = (
{
closed = 1;
nodes = (
(377,385,o),
(408,402,o),
(433,430,cs),
(459,458,o),
(473,490,o),
(473,529,cs),
(473,601,o),
(436,658,o),
(373,688,cs),
(342,703,o),
(305,710,o),
(264,710,cs),
(197,710,o),
(136,692,o),
(87,658,c),
(87,582,l),
(140,625,o),
(205,647,o),
(267,647,cs),
(347,647,o),
(400,601,o),
(400,534,cs),
(400,458,o),
(341,408,o),
(233,408,cs),
(193,408,l),
(193,341,l),
(233,341,ls),
(355,341,o),
(419,285,o),
(419,194,cs),
(419,106,o),
(355,53,o),
(267,53,cs),
(200,53,o),
(126,84,o),
(66,139,c),
(66,52,l),
(116,12,o),
(186,-10,o),
(264,-10,cs),
(356,-10,o),
(427,27,o),
(463,89,cs),
(482,121,o),
(492,156,o),
(492,195,cs),
(492,262,o),
(457,314,o),
(411,345,c),
(389,361,o),
(365,370,o),
(343,375,c)
);
}
);
width = 557;
}
);
unicode = 51;
}
{
glyphname = four;
layers = (
{
layerId = "72BDA083-B3C3-4444-A72D-7A06DB42C04D";
shapes = (
{
closed = 1;
nodes = (
(608,293,l),
(608,147,l),
(486,147,l),
(486,293,l)
);
},
{
closed = 1;
nodes = (
(335,0,l),
(335,538,l),
(353,528,l),
(165,277,l),
(156,293,l),
(352,293,l),
(352,147,l),
(10,147,l),
(10,231,l),
(377,700,l),
(503,700,l),
(503,0,l)
);
}
);
width = 629;
},
{
layerId = "E5F094ED-45EA-480E-BC3C-862AD7D27802";
shapes = (
{
closed = 1;
nodes = (
(552,277,l),
(552,186,l),
(431,186,l),
(431,277,l)
);
},
{
closed = 1;
nodes = (
(343,0,l),
(343,573,l),
(370,563,l),
(120,246,l),
(105,277,l),
(360,277,l),
(360,186,l),
(18,186,l),
(18,238,l),
(385,700,l),
(448,700,l),
(448,0,l)
);
}
);
width = 589;
},
{
layerId = "29E3C8E8-2B44-49C3-BAE8-24201C487834";
shapes = (
{
closed = 1;
nodes = (
(524,269,l),
(524,206,l),
(403,206,l),
(403,269,l)
);
},
{
closed = 1;
nodes = (
(347,0,l),
(347,591,l),
(378,580,l),
(98,230,l),
(79,269,l),
(364,269,l),
(364,206,l),
(22,206,l),
(22,242,l),
(389,700,l),
(420,700,l),
(420,0,l)
);
}
);
width = 569;
}
);
leftKerningGroup = four;
unicode = 52;
}
{
glyphname = five;
layers = (
{
layerId = "578F755D-994C-42C1-BB23-8F906AA68774";
shapes = (
{
closed = 1;
nodes = (
(265,445,o),
(250,444,o),
(241,443,c),
(249,553,l),
(461,553,l),
(461,700,l),
(94,700,l),
(73,310,l),
(112,316,o),
(155,320,o),
(201,320,cs),
(292,320,o),
(348,290,o),
(348,228,cs),
(348,200,o),
(337,178,o),
(316,161,c),
(294,145,o),
(267,136,o),
(233,136,cs),
(171,136,o),
(106,156,o),
(52,189,c),
(52,31,l),
(72,20,o),
(100,10,o),
(134,2,cs),
(169,-6,o),
(204,-10,o),
(243,-10,cs),
(344,-10,o),
(432,32,o),
(480,105,cs),
(504,141,o),
(516,182,o),
(516,228,cs),
(516,316,o),
(474,385,o),
(403,419,c),
(368,437,o),
(328,445,o),
(283,445,cs)
);
}
);
width = 568;
},
{
layerId = "DBD1B0BE-353E-4EBF-B6EE-D0152B0FB6BB";
shapes = (
{
closed = 1;
nodes = (
(236,438,o),
(215,435,o),
(194,429,c),
(206,609,l),
(445,609,l),
(445,700,l),
(111,700,l),
(90,329,l),
(131,344,o),
(176,352,o),
(225,352,cs),
(324,352,o),
(387,299,o),
(387,217,cs),
(387,176,o),
(374,143,o),
(346,118,cs),
(319,93,o),
(284,81,o),
(240,81,cs),
(172,81,o),
(105,110,o),
(60,157,c),
(60,47,l),
(78,32,o),
(104,18,o),
(138,7,cs),
(172,-5,o),
(206,-10,o),
(243,-10,cs),
(341,-10,o),
(419,31,o),
(461,101,cs),
(482,135,o),
(492,174,o),
(492,217,cs),
(492,301,o),
(451,372,o),
(381,410,c),
(345,428,o),
(305,438,o),
(259,438,cs)
);
}
);
width = 552;
},
{
layerId = "EEBEDCE0-4D70-4EE0-A037-F223D2B7A84D";
shapes = (
{
closed = 1;
nodes = (
(222,434,o),
(197,430,o),
(171,422,c),
(184,637,l),
(437,637,l),
(437,700,l),
(119,700,l),
(98,338,l),
(141,358,o),
(187,368,o),
(237,368,cs),
(340,368,o),
(407,304,o),
(407,211,cs),
(407,164,o),
(393,126,o),
(361,97,c),
(331,67,o),
(292,53,o),
(244,53,cs),
(173,53,o),
(105,87,o),
(64,141,c),
(64,55,l),
(81,38,o),
(106,22,o),
(140,9,cs),
(174,-4,o),
(207,-10,o),
(243,-10,cs),
(339,-10,o),
(413,31,o),
(452,99,cs),
(471,132,o),
(480,170,o),
(480,211,cs),
(480,294,o),
(440,366,o),
(370,405,c),
(334,423,o),
(294,434,o),
(247,434,cs)
);
}
);
width = 544;
}
);
unicode = 53;
}
{
glyphname = six;
layers = (
{
layerId = "198774C1-CC10-42B9-85F8-E7CE679A5159";
shapes = (
{
closed = 1;
nodes = (
(309,440,o),
(259,416,o),
(229,390,c),
(241,428,o),
(261,464,o),
(288,499,cs),
(312,529,o),
(406,596,o),
(444,614,c),
(346,710,l),
(336,710,l),
(220,650,o),
(129,559,o),
(80,445,c),
(54,387,o),
(42,328,o),
(42,268,cs),
(42,158,o),
(89,70,o),
(172,24,cs),
(213,1,o),
(261,-10,o),
(314,-10,cs),
(418,-10,o),
(501,30,o),
(544,102,cs),
(566,137,o),
(576,178,o),
(576,224,cs),
(576,309,o),
(538,378,o),
(475,414,cs),
(442,432,o),
(407,440,o),
(367,440,cs)
);
},
{
closed = 1;
nodes = (
(257,136,o),
(220,173,o),
(220,228,cs),
(220,286,o),
(259,325,o),
(314,325,cs),
(370,325,o),
(409,286,o),
(409,228,cs),
(409,173,o),
(372,136,o),
(314,136,cs)
);
}
);
width = 618;
},
{
layerId = "D316A020-56DB-4308-AD51-D49B9BC7B732";
shapes = (
{
closed = 1;
nodes = (
(266,433,o),
(201,397,o),
(171,346,c),
(180,401,o),
(204,455,o),
(241,506,cs),
(280,560,o),
(365,617,o),
(427,648,c),
(362,710,l),
(352,710,l),
(236,651,o),
(145,558,o),
(96,438,cs),
(70,377,o),
(58,314,o),
(58,251,cs),
(58,148,o),
(102,65,o),
(178,23,c),
(216,0,o),
(260,-10,o),
(310,-10,cs),
(406,-10,o),
(483,28,o),
(523,96,cs),
(543,130,o),
(553,170,o),
(553,213,cs),
(553,300,o),
(515,369,o),
(448,405,cs),
(415,423,o),
(378,433,o),
(335,433,cs)
);
},
{
closed = 1;
nodes = (
(228,81,o),
(173,134,o),
(173,214,cs),
(173,295,o),
(228,348,o),
(310,348,cs),
(393,348,o),
(448,295,o),
(448,214,cs),
(448,134,o),
(393,81,o),
(310,81,cs)
);
}
);
width = 611;
},
{
layerId = "DA1743F1-FF62-465F-8D09-7851030965A4";
shapes = (
{
closed = 1;
nodes = (
(245,429,o),
(172,388,o),
(142,324,c),
(150,388,o),
(175,450,o),
(218,510,c),
(265,578,o),
(345,627,o),
(418,665,c),
(370,710,l),
(360,710,l),
(244,651,o),
(153,557,o),
(104,435,cs),
(78,372,o),
(66,307,o),
(66,242,cs),
(66,143,o),
(108,63,o),
(181,22,c),
(218,0,o),
(260,-10,o),
(308,-10,cs),
(400,-10,o),
(474,27,o),
(512,93,cs),
(531,127,o),
(541,166,o),
(541,208,cs),
(541,295,o),
(503,364,o),
(435,400,cs),
(402,418,o),
(363,429,o),
(319,429,cs)
);
},
{
closed = 1;
nodes = (
(213,53,o),
(149,115,o),
(149,207,cs),
(149,300,o),
(212,360,o),
(308,360,cs),
(404,360,o),
(468,300,o),
(468,207,cs),
(468,115,o),
(404,53,o),
(308,53,cs)
);
}
);
width = 607;
}
);
rightKerningGroup = six;
unicode = 54;
}
{
glyphname = seven;
layers = (
{
layerId = "198774C1-CC10-42B9-85F8-E7CE679A5159";
shapes = (
{
closed = 1;
nodes = (
(241,-10,l),
(524,700,l),
(21,700,l),
(21,553,l),
(304,553,l),
(291,532,o),
(275,496,o),
(253,442,cs),
(84,31,l),
(231,-10,l)
);
}
);
width = 534;
},
{
layerId = "D316A020-56DB-4308-AD51-D49B9BC7B732";
shapes = (
{
closed = 1;
nodes = (
(218,-10,l),
(492,700,l),
(21,700,l),
(21,609,l),
(359,609,l),
(349,593,o),
(335,562,o),
(316,515,cs),
(116,22,l),
(211,-10,l)
);
}
);
width = 503;
},
{
layerId = "DA1743F1-FF62-465F-8D09-7851030965A4";
shapes = (
{
closed = 1;
nodes = (
(206,-10,l),
(476,700,l),
(21,700,l),
(21,637,l),
(387,637,l),
(378,623,o),
(365,595,o),
(347,552,cs),
(132,17,l),
(201,-10,l)
);
}
);
width = 487;
}
);
leftKerningGroup = seven2;
rightKerningGroup = seven;
unicode = 55;
}
{
glyphname = eight;
layers = (
{
layerId = "62CCE428-27AF-4174-8C32-8EDF06C2E6AE";
shapes = (
{
closed = 1;
nodes = (
(255,-10,o),
(211,-1,o),
(173,17,cs),
(96,53,o),
(52,123,o),
(52,210,cs),
(52,278,o),
(91,342,o),
(151,374,c),
(104,403,o),
(73,457,o),
(73,511,cs),
(73,550,o),
(83,586,o),
(103,616,cs),
(140,677,o),
(213,710,o),
(304,710,cs),
(349,710,o),
(390,702,o),
(424,686,cs),
(495,653,o),
(534,590,o),
(534,511,cs),
(534,457,o),
(504,403,o),
(457,374,c),
(517,342,o),
(555,278,o),
(555,210,cs),
(555,167,o),
(545,128,o),
(524,94,cs),
(482,27,o),
(403,-10,o),
(304,-10,cs)
);
},
{
closed = 1;
nodes = (
(362,136,o),
(398,172,o),
(398,225,cs),
(398,279,o),
(362,314,o),
(304,314,cs),
(248,314,o),
(210,279,o),
(210,225,cs),
(210,172,o),
(248,136,o),
(304,136,cs)
);
},
{
closed = 1;
nodes = (
(351,428,o),
(382,455,o),
(382,496,cs),
(382,537,o),
(351,564,o),
(304,564,cs),
(257,564,o),
(225,537,o),
(225,496,cs),
(225,455,o),
(257,428,o),
(304,428,cs)
);
}
);
width = 608;
},
{
layerId = "7A295977-FA7A-4808-B07F-0795E8A98AF6";
shapes = (
{
closed = 1;
nodes = (
(252,-10,o),
(211,-2,o),
(174,16,cs),
(102,50,o),
(60,116,o),
(60,198,cs),
(60,275,o),
(105,341,o),
(176,369,c),
(120,398,o),
(81,456,o),
(81,519,cs),
(81,557,o),
(90,591,o),
(109,619,c),
(145,678,o),
(214,710,o),
(300,710,cs),
(344,710,o),
(382,703,o),
(415,687,cs),
(481,655,o),
(518,595,o),
(518,519,cs),
(518,456,o),
(481,398,o),
(424,369,c),
(495,341,o),
(539,275,o),
(539,198,cs),
(539,156,o),
(530,120,o),
(509,89,c),
(470,26,o),
(395,-10,o),
(300,-10,cs)
);
},
{
closed = 1;
nodes = (
(383,81,o),
(438,131,o),
(438,206,cs),
(438,281,o),
(383,330,o),
(300,330,cs),
(217,330,o),
(163,281,o),
(163,206,cs),
(163,131,o),
(217,81,o),
(300,81,cs)
);
},
{
closed = 1;
nodes = (
(370,404,o),
(418,447,o),
(418,512,cs),
(418,576,o),
(370,619,o),
(300,619,cs),
(229,619,o),
(182,576,o),
(182,512,cs),
(182,447,o),
(229,404,o),
(300,404,cs)
);
}
);
width = 600;
},
{
layerId = "FBBD23DC-4A32-4E17-882F-E93472546798";
shapes = (
{
closed = 1;
nodes = (
(250,-10,o),
(211,-2,o),
(175,16,c),
(105,48,o),
(64,112,o),
(64,192,cs),
(64,273,o),
(112,340,o),
(188,367,c),
(128,395,o),
(85,455,o),
(85,523,cs),
(85,560,o),
(94,593,o),
(112,621,cs),
(148,678,o),
(214,710,o),
(298,710,cs),
(341,710,o),
(378,703,o),
(410,687,cs),
(474,656,o),
(510,597,o),
(510,523,cs),
(510,455,o),
(469,395,o),
(407,367,c),
(484,340,o),
(531,273,o),
(531,192,cs),
(531,151,o),
(522,116,o),
(502,86,c),
(464,25,o),
(391,-10,o),
(298,-10,cs)
);
},
{
closed = 1;
nodes = (
(394,53,o),
(458,111,o),
(458,196,cs),
(458,282,o),
(394,338,o),
(298,338,cs),
(201,338,o),
(139,282,o),
(139,196,cs),
(139,111,o),
(201,53,o),
(298,53,cs)
);
},
{
closed = 1;
nodes = (
(380,392,o),
(436,443,o),
(436,520,cs),
(436,596,o),
(380,647,o),
(298,647,cs),
(215,647,o),
(160,596,o),
(160,520,cs),
(160,443,o),
(215,392,o),
(298,392,cs)
);
}
);
width = 596;
}
);
unicode = 56;
}
{
glyphname = nine;
layers = (
{
layerId = "578F755D-994C-42C1-BB23-8F906AA68774";
shapes = (
{
closed = 1;
nodes = (
(272,-10,l),
(393,57,o),
(488,150,o),
(539,263,cs),
(564,320,o),
(576,376,o),
(576,432,cs),
(576,542,o),
(529,630,o),
(446,676,cs),
(406,699,o),
(357,710,o),
(304,710,cs),
(200,710,o),
(117,670,o),
(74,598,cs),
(52,563,o),
(42,522,o),
(42,476,cs),
(42,389,o),
(83,318,o),
(148,279,cs),
(180,259,o),
(216,249,o),
(257,249,cs),
(315,249,o),
(352,264,o),
(377,289,c),
(362,257,o),
(343,226,o),
(319,197,cs),
(281,153,o),
(215,106,o),
(161,81,c)
);
},
{
closed = 1;
nodes = (
(248,375,o),
(210,414,o),
(210,472,cs),
(210,527,o),
(246,564,o),
(304,564,cs),
(362,564,o),
(398,527,o),
(398,472,cs),
(398,414,o),
(359,375,o),
(304,375,cs)
);
}
);
width = 618;
},
{
layerId = "DBD1B0BE-353E-4EBF-B6EE-D0152B0FB6BB";
shapes = (
{
closed = 1;
nodes = (
(249,-10,l),
(370,55,o),
(465,149,o),
(515,268,cs),
(540,328,o),
(553,389,o),
(553,449,cs),
(553,552,o),
(508,635,o),
(432,678,cs),
(395,700,o),
(350,710,o),
(300,710,cs),
(204,710,o),
(128,672,o),
(88,604,cs),
(67,570,o),
(58,530,o),
(58,487,cs),
(58,400,o),
(96,330,o),
(159,294,cs),
(191,275,o),
(228,265,o),
(268,265,cs),
(342,265,o),
(404,296,o),
(433,340,c),
(421,296,o),
(398,249,o),
(363,202,cs),
(324,150,o),
(238,76,o),
(176,50,c)
);
},
{
closed = 1;
nodes = (
(217,352,o),
(163,405,o),
(163,486,cs),
(163,566,o),
(217,619,o),
(300,619,cs),
(383,619,o),
(438,566,o),
(438,486,cs),
(438,405,o),
(382,352,o),
(300,352,cs)
);
}
);
width = 611;
},
{
layerId = "EEBEDCE0-4D70-4EE0-A037-F223D2B7A84D";
shapes = (
{
closed = 1;
nodes = (
(237,-10,l),
(358,54,o),
(453,149,o),
(503,271,cs),
(528,332,o),
(541,395,o),
(541,458,cs),
(541,557,o),
(498,637,o),
(425,679,cs),
(389,700,o),
(347,710,o),
(298,710,cs),
(206,710,o),
(133,673,o),
(95,607,cs),
(75,573,o),
(66,534,o),
(66,492,cs),
(66,405,o),
(102,336,o),
(165,301,cs),
(197,283,o),
(234,273,o),
(274,273,cs),
(356,273,o),
(430,312,o),
(461,366,c),
(450,315,o),
(426,261,o),
(385,204,cs),
(341,143,o),
(254,67,o),
(183,34,c)
);
},
{
closed = 1;
nodes = (
(201,340,o),
(139,400,o),
(139,493,cs),
(139,585,o),
(202,647,o),
(298,647,cs),
(394,647,o),
(458,585,o),
(458,493,cs),
(458,400,o),
(394,340,o),
(298,340,cs)
);
}
);
width = 607;
}
);
leftKerningGroup = nine;
unicode = 57;
}
{
glyphname = colon;
layers = (
{
layerId = "72BDA083-B3C3-4444-A72D-7A06DB42C04D";
shapes = (
{
alignment = -1;
pos = (0,314);
ref = period;
},
{
alignment = -1;
ref = period;
}
);
width = 335;
},
{
layerId = "E5F094ED-45EA-480E-BC3C-862AD7D27802";
shapes = (
{
closed = 1;
nodes = (
(83,390,o),
(63,412,o),
(63,442,cs),
(63,474,o),
(84,495,o),
(115,495,cs),
(145,495,o),
(165,473,o),
(165,442,cs),
(165,411,o),
(144,390,o),
(115,390,cs)
);
},
{
closed = 1;
nodes = (
(83,-10,o),
(63,12,o),
(63,42,cs),
(63,74,o),
(84,95,o),
(115,95,cs),
(145,95,o),
(165,73,o),
(165,42,cs),
(165,11,o),
(144,-10,o),
(115,-10,cs)
);
}
);
width = 228;
},
{
layerId = "29E3C8E8-2B44-49C3-BAE8-24201C487834";
shapes = (
{
closed = 1;
nodes = (
(83,390,o),
(63,412,o),
(63,442,cs),
(63,474,o),
(84,495,o),
(115,495,cs),
(145,495,o),
(165,473,o),
(165,442,cs),
(165,411,o),
(144,390,o),
(115,390,cs)
);
},
{
closed = 1;
nodes = (
(83,-10,o),
(63,12,o),
(63,42,cs),
(63,74,o),
(84,95,o),
(115,95,cs),
(145,95,o),
(165,73,o),
(165,42,cs),
(165,11,o),
(144,-10,o),
(115,-10,cs)
);
}
);
width = 228;
}
);
leftKerningGroup = comma2;
rightKerningGroup = comma;
unicode = 58;
}
{
glyphname = equal;
layers = (
{
layerId = "E5F094ED-45EA-480E-BC3C-862AD7D27802";
shapes = (
{
closed = 1;
nodes = (
(629,241,l),
(629,157,l),
(84,157,l),
(84,241,l)
);
},
{
closed = 1;
nodes = (
(629,482,l),
(629,398,l),
(84,398,l),
(84,482,l)
);
}
);
width = 0;
}
);
unicode = 61;
}
{
glyphname = greater;
layers = (
{
layerId = "405326B1-6BF5-43CA-AF9F-47F385A9BA9E";
shapes = (
{
closed = 1;
nodes = (
(84,84,l),
(84,210,l),
(402,325,l),
(84,440,l),
(84,566,l),
(629,346,l),
(629,304,l)
);
}
);
width = 713;
},
{
layerId = "757F0D97-04AA-4B34-B6FD-694B5135A2D3";
shapes = (
{
closed = 1;
nodes = (
(84,84,l),
(84,186,l),
(458,325,l),
(84,464,l),
(84,566,l),
(629,346,l),
(629,304,l)
);
}
);
width = 713;
},
{
layerId = "41C2A34C-83CD-4E58-A113-8C77F8A82D56";
shapes = (
{
closed = 1;
nodes = (
(84,84,l),
(84,174,l),
(486,325,l),
(84,476,l),
(84,566,l),
(629,346,l),
(629,304,l)
);
}
);
width = 713;
}
);
unicode = 62;
}
{
glyphname = question;
layers = (
{
layerId = "72BDA083-B3C3-4444-A72D-7A06DB42C04D";
shapes = (
{
closed = 1;
nodes = (
(196,266,l),
(174,280,o),
(161,319,o),
(161,340,cs),
(161,441,o),
(289,489,o),
(289,551,cs),
(289,590,o),
(256,606,o),
(221,606,cs),
(173,606,o),
(119,581,o),
(84,550,c),
(73,559,l),
(84,702,l),
(127,739,o),
(200,754,o),
(255,754,cs),
(368,754,o),
(457,691,o),
(457,571,cs),
(457,539,o),
(449,507,o),
(431,480,cs),
(410,449,o),
(380,423,o),
(352,399,cs),
(309,363,o),
(267,329,o),
(235,283,cs),
(230,276,o),
(225,270,o),
(219,266,c)
);
},
{
closed = 1;
nodes = (
(201,-10,o),
(151,25,o),
(151,84,cs),
(151,143,o),
(200,178,o),
(256,178,cs),
(312,178,o),
(360,144,o),
(360,84,cs),
(360,25,o),
(312,-10,o),
(256,-10,cs)
);
}
);
width = 541;
},
{
layerId = "E5F094ED-45EA-480E-BC3C-862AD7D27802";
shapes = (
{
closed = 1;
nodes = (
(207,241,l),
(194,252,o),
(188,279,o),
(188,293,cs),
(188,410,o),
(352,464,o),
(352,566,cs),
(352,630,o),
(301,663,o),
(242,663,cs),
(188,663,o),
(122,636,o),
(84,597,c),
(73,605,l),
(84,698,l),
(126,738,o),
(199,754,o),
(255,754,cs),
(368,754,o),
(457,691,o),
(457,571,cs),
(457,538,o),
(450,508,o),
(432,480,cs),
(415,455,o),
(395,433,o),
(373,412,c),
(328,366,o),
(280,325,o),
(248,268,cs),
(243,260,o),
(234,249,o),
(226,241,c)
);
},
{
closed = 1;
nodes = (
(212,-10,o),
(183,16,o),
(183,56,cs),
(183,96,o),
(212,123,o),
(251,123,cs),
(291,123,o),
(321,97,o),
(321,56,cs),
(321,15,o),
(291,-10,o),
(251,-10,cs)
);
}
);
width = 541;
},
{
layerId = "29E3C8E8-2B44-49C3-BAE8-24201C487834";
shapes = (
{
closed = 1;
nodes = (
(213,229,l),
(204,238,o),
(201,259,o),
(201,270,cs),
(201,395,o),
(384,451,o),
(384,574,cs),
(384,650,o),
(324,691,o),
(253,691,cs),
(195,691,o),
(124,663,o),
(84,621,c),
(73,628,l),
(84,696,l),
(126,738,o),
(198,754,o),
(255,754,cs),
(368,754,o),
(457,691,o),
(457,571,cs),
(457,538,o),
(450,508,o),
(432,480,cs),
(418,458,o),
(402,438,o),
(384,419,cs),
(338,368,o),
(286,323,o),
(254,260,cs),
(249,252,o),
(239,239,o),
(229,229,c)
);
},
{
closed = 1;
nodes = (
(218,-10,o),
(199,12,o),
(199,42,cs),
(199,72,o),
(218,95,o),
(249,95,cs),
(281,95,o),
(301,73,o),
(301,42,cs),
(301,10,o),
(281,-10,o),
(249,-10,cs)
);
}
);
width = 541;
}
);
unicode = 63;
}
{
glyphname = at;
layers = (
{
layerId = "62CCE428-27AF-4174-8C32-8EDF06C2E6AE";
shapes = (
{
closed = 1;
nodes = (
(476,-10,o),
(441,1,o),
(409,22,cs),
(344,64,o),
(304,144,o),
(304,237,cs),
(304,286,o),
(315,329,o),
(338,366,cs),
(383,441,o),
(469,484,o),
(576,484,cs),
(599,484,o),
(632,483,o),
(674,480,cs),
(711,477,o),
(756,474,o),
(807,474,c),
(807,337,l),
(766,337,o),
(717,341,o),
(676,344,cs),
(627,347,o),
(594,348,o),
(576,348,cs),
(541,348,o),
(514,338,o),
(493,318,cs),
(472,297,o),
(461,270,o),
(461,237,cs),
(461,204,o),
(471,177,o),
(490,157,cs),
(509,136,o),
(535,126,o),
(566,126,cs),
(627,126,o),
(667,166,o),
(692,231,c),
(692,178,l),
(686,138,o),
(676,104,o),
(662,77,cs),
(633,21,o),
(585,-10,o),
(513,-10,cs)
);
},
{
closed = 1;
nodes = (
(488,-220,o),
(400,-201,o),
(324,-162,cs),
(172,-85,o),
(84,61,o),
(84,241,cs),
(84,332,o),
(106,414,o),
(149,486,cs),
(192,557,o),
(254,613,o),
(333,653,cs),
(412,693,o),
(503,713,o),
(606,713,cs),
(700,713,o),
(783,695,o),
(855,660,cs),
(998,588,o),
(1080,454,o),
(1080,283,cs),
(1080,224,o),
(1069,171,o),
(1048,124,cs),
(1004,31,o),
(925,-23,o),
(836,-23,cs),
(712,-23,o),
(650,48,o),
(650,189,cs),
(650,390,l),
(807,390,l),
(807,189,ls),
(807,118,o),
(828,93,o),
(879,93,cs),
(895,93,o),
(912,100,o),
(930,114,cs),
(965,141,o),
(991,199,o),
(991,283,cs),
(991,352,o),
(975,412,o),
(943,465,cs),
(879,569,o),
(758,629,o),
(606,629,cs),
(521,629,o),
(445,613,o),
(380,580,cs),
(248,514,o),
(173,390,o),
(173,241,cs),
(173,168,o),
(190,102,o),
(225,45,cs),
(293,-70,o),
(422,-136,o),
(585,-136,cs),
(670,-136,o),
(735,-121,o),
(790,-93,c),
(790,-175,l),
(773,-187,o),
(745,-198,o),
(708,-207,cs),
(670,-216,o),
(630,-220,o),
(587,-220,cs)
);
}
);
width = 1164;
},
{
layerId = "7A295977-FA7A-4808-B07F-0795E8A98AF6";
shapes = (
{
closed = 1;
nodes = (
(480,-10,o),
(442,0,o),
(409,21,cs),
(342,62,o),
(304,139,o),
(304,237,cs),
(304,286,o),
(315,329,o),
(337,366,cs),
(381,441,o),
(464,484,o),
(569,484,cs),
(598,484,o),
(631,482,o),
(667,479,cs),
(701,476,o),
(739,474,o),
(775,474,c),
(775,393,l),
(738,393,o),
(699,396,o),
(664,399,cs),
(625,402,o),
(593,403,o),
(569,403,cs),
(517,403,o),
(476,388,o),
(444,358,c),
(413,327,o),
(398,287,o),
(398,237,cs),
(398,187,o),
(410,147,o),
(437,116,cs),
(464,85,o),
(499,70,o),
(542,70,cs),
(620,70,o),
(674,119,o),
(708,191,c),
(708,133,l),
(703,109,o),
(692,87,o),
(676,65,cs),
(642,20,o),
(587,-10,o),
(521,-10,cs)
);
},
{
closed = 1;
nodes = (
(474,-220,o),
(389,-201,o),
(316,-162,cs),
(169,-84,o),
(84,63,o),
(84,248,cs),
(84,337,o),
(106,416,o),
(149,487,cs),
(192,558,o),
(252,613,o),
(328,653,cs),
(405,693,o),
(492,713,o),
(590,713,cs),
(681,713,o),
(761,695,o),
(831,660,c),
(969,588,o),
(1048,454,o),
(1048,283,cs),
(1048,224,o),
(1039,171,o),
(1019,124,cs),
(980,31,o),
(908,-23,o),
(829,-23,cs),
(731,-23,o),
(682,34,o),
(682,149,cs),
(682,429,l),
(775,429,l),
(775,149,ls),
(775,81,o),
(796,53,o),
(840,53,cs),
(862,53,o),
(885,63,o),
(907,82,c),
(950,122,o),
(980,194,o),
(980,283,cs),
(980,355,o),
(964,418,o),
(931,473,cs),
(866,583,o),
(744,645,o),
(590,645,cs),
(507,645,o),
(433,628,o),
(367,594,cs),
(235,525,o),
(157,400,o),
(157,248,cs),
(157,169,o),
(174,100,o),
(209,39,cs),
(277,-83,o),
(405,-152,o),
(569,-152,cs),
(651,-152,o),
(724,-136,o),
(774,-109,c),
(774,-175,l),
(756,-187,o),
(727,-198,o),
(689,-207,cs),
(649,-216,o),
(611,-220,o),
(571,-220,cs)
);
}
);
width = 1132;
},
{
layerId = "FBBD23DC-4A32-4E17-882F-E93472546798";
shapes = (
{
closed = 1;
nodes = (
(482,-10,o),
(442,0,o),
(409,21,c),
(341,61,o),
(304,137,o),
(304,237,cs),
(304,286,o),
(315,329,o),
(337,366,cs),
(380,441,o),
(461,484,o),
(565,484,cs),
(597,484,o),
(630,482,o),
(664,479,cs),
(696,476,o),
(731,474,o),
(759,474,c),
(759,421,l),
(724,421,o),
(690,423,o),
(658,426,cs),
(624,429,o),
(593,431,o),
(565,431,cs),
(505,431,o),
(457,413,o),
(420,378,c),
(384,342,o),
(366,295,o),
(366,237,cs),
(366,179,o),
(380,132,o),
(410,96,cs),
(441,60,o),
(481,42,o),
(530,42,cs),
(617,42,o),
(678,95,o),
(716,171,c),
(716,111,l),
(711,95,o),
(700,78,o),
(683,59,cs),
(647,20,o),
(588,-10,o),
(525,-10,cs)
);
},
{
closed = 1;
nodes = (
(467,-220,o),
(384,-201,o),
(312,-162,cs),
(167,-84,o),
(84,64,o),
(84,252,cs),
(84,339,o),
(106,417,o),
(149,488,cs),
(192,558,o),
(251,613,o),
(326,653,cs),
(402,693,o),
(487,713,o),
(582,713,cs),
(672,713,o),
(750,695,o),
(819,660,c),
(954,588,o),
(1032,454,o),
(1032,283,cs),
(1032,224,o),
(1024,171,o),
(1005,124,cs),
(968,31,o),
(900,-23,o),
(826,-23,cs),
(740,-23,o),
(698,27,o),
(698,129,cs),
(698,449,l),
(759,449,l),
(759,129,ls),
(759,62,o),
(780,33,o),
(820,33,cs),
(846,33,o),
(872,44,o),
(896,66,c),
(943,112,o),
(974,191,o),
(974,283,cs),
(974,357,o),
(958,421,o),
(925,477,cs),
(860,590,o),
(737,653,o),
(582,653,cs),
(500,653,o),
(427,636,o),
(361,601,cs),
(229,531,o),
(149,405,o),
(149,252,cs),
(149,170,o),
(166,99,o),
(201,36,cs),
(269,-89,o),
(397,-160,o),
(561,-160,cs),
(641,-160,o),
(718,-144,o),
(766,-117,c),
(766,-175,l),
(747,-187,o),
(718,-198,o),
(679,-207,cs),
(639,-216,o),
(602,-220,o),
(563,-220,cs)
);
}
);
width = 1116;
}
);
unicode = 64;
}
{
glyphname = A;
layers = (
{
anchors = (
{
name = m.uni0941_2;
position = "{410, 84}";
},
{
name = t.uni0946_1_3;
position = "{409, 702}";
}
);
layerId = "84F707B8-E6F6-4560-9E91-EBCBB3F7C032";
shapes = (
{
closed = 1;
nodes = (
(587,277,l),
(231,277,l),
(231,151,l),
(587,151,l)
);
},
{
closed = 1;
nodes = (
(618,0,l),
(807,0,l),
(472,700,l),
(346,700,l),
(10,0,l),
(199,0,l),
(409,482,l)
);
}
);
width = 817;
},
{
anchors = (
{
name = m.uni0941_2;
position = "{410, 84}";
},
{
name = t.uni0946_1_3;
position = "{409, 702}";
}
);
layerId = "DF169942-312F-4CB9-BFF4-C95DA1EFA8DD";
shapes = (
{
closed = 1;
nodes = (
(594,284,l),
(207,284,l),
(207,198,l),
(594,198,l)
);
},
{
closed = 1;
nodes = (
(665,0,l),
(783,0,l),
(440,700,l),
(362,700,l),
(18,0,l),
(136,0,l),
(401,561,l)
);
}
);
width = 801;
},
{
anchors = (
{
name = m.uni0941_2;
position = "{410, 84}";
},
{
name = t.uni0946_1_3;
position = "{409, 702}";
}
);
layerId = "85DC3871-BA98-4DCB-A963-6B42D2E15F96";
shapes = (
{
closed = 1;
nodes = (
(598,288,l),
(195,288,l),
(195,222,l),
(598,222,l)
);
},
{
closed = 1;
nodes = (
(689,0,l),
(771,0,l),
(424,700,l),
(370,700,l),
(22,0,l),
(104,0,l),
(397,601,l)
);
}
);
width = 793;
}
);
leftKerningGroup = A;
rightKerningGroup = A2;
unicode = 65;
}
{
glyphname = B;
layers = (
{
layerId = "62CCE428-27AF-4174-8C32-8EDF06C2E6AE";
shapes = (
{
closed = 1;
nodes = (
(251,700,l),
(251,0,l),
(84,0,l),
(84,700,l)
);
},
{
closed = 1;
nodes = (
(304,700,ls),
(383,700,o),
(447,684,o),
(495,653,cs),
(542,622,o),
(566,578,o),
(566,522,cs),
(566,450,o),
(513,391,o),
(438,374,c),
(435,399,l),
(492,391,o),
(537,370,o),
(570,336,cs),
(602,302,o),
(618,261,o),
(618,213,cs),
(618,171,o),
(607,134,o),
(586,102,cs),
(542,37,o),
(460,0,o),
(356,0,cs),
(211,0,l),
(211,147,l),
(356,147,ls),
(413,147,o),
(451,178,o),
(451,223,cs),
(451,247,o),
(441,266,o),
(420,281,cs),
(399,295,o),
(370,302,o),
(335,302,cs),
(211,302,l),
(211,418,l),
(304,418,ls),
(364,418,o),
(398,446,o),
(398,490,cs),
(398,529,o),
(363,553,o),
(304,553,cs),
(211,553,l),
(211,700,l)
);
}
);
width = 660;
},
{
layerId = "7A295977-FA7A-4808-B07F-0795E8A98AF6";
shapes = (
{
closed = 1;
nodes = (
(204,700,l),
(204,0,l),
(100,0,l),
(100,700,l)
);
},
{
closed = 1;
nodes = (
(288,700,ls),
(366,700,o),
(428,685,o),
(474,654,cs),
(519,623,o),
(542,582,o),
(542,529,cs),
(542,457,o),
(490,402,o),
(406,383,c),
(406,402,l),
(465,393,o),
(512,371,o),
(548,336,cs),
(584,301,o),
(602,257,o),
(602,206,cs),
(602,166,o),
(591,130,o),
(570,99,cs),
(526,36,o),
(444,0,o),
(340,0,cs),
(179,0,l),
(179,91,l),
(340,91,ls),
(436,91,o),
(498,139,o),
(498,208,cs),
(498,246,o),
(481,277,o),
(447,300,cs),
(413,322,o),
(368,334,o),
(312,334,cs),
(179,334,l),
(179,413,l),
(304,413,ls),
(389,413,o),
(438,450,o),
(438,514,cs),
(438,572,o),
(386,609,o),
(296,609,cs),
(179,609,l),
(179,700,l)
);
}
);
width = 653;
},
{
layerId = "FBBD23DC-4A32-4E17-882F-E93472546798";
shapes = (
{
closed = 1;
nodes = (
(181,700,l),
(181,0,l),
(108,0,l),
(108,700,l)
);
},
{
closed = 1;
nodes = (
(280,700,ls),
(357,700,o),
(419,685,o),
(463,655,cs),
(508,624,o),
(530,584,o),
(530,533,cs),
(530,461,o),
(479,407,o),
(390,388,c),
(392,404,l),
(451,394,o),
(500,372,o),
(537,336,cs),
(575,300,o),
(594,255,o),
(594,203,cs),
(594,163,o),
(583,128,o),
(562,97,c),
(518,36,o),
(436,0,o),
(332,0,cs),
(163,0,l),
(163,63,l),
(332,63,ls),
(447,63,o),
(521,120,o),
(521,201,cs),
(521,246,o),
(501,282,o),
(461,309,c),
(420,336,o),
(367,350,o),
(300,350,cs),
(163,350,l),
(163,411,l),
(304,411,ls),
(401,411,o),
(458,452,o),
(458,526,cs),
(458,594,o),
(397,637,o),
(292,637,cs),
(163,637,l),
(163,700,l)
);
}
);
width = 649;
}
);
leftKerningGroup = B;
unicode = 66;
}
{
glyphname = C;
layers = (
{
anchors = (
{
name = m.uni0941_2;
position = "{430, 0}";
},
{
name = t.uni0946_1_3;
position = "{430, 710}";
}
);
layerId = "268DAC57-E2A2-4703-9B87-2E4F83AD2FBF";
shapes = (
{
closed = 1;
nodes = (
(671,241,l),
(647,209,o),
(614,183,o),
(573,165,cs),
(531,146,o),
(483,136,o),
(430,136,cs),
(343,136,o),
(274,174,o),
(237,239,cs),
(219,271,o),
(210,308,o),
(210,350,cs),
(210,434,o),
(247,502,o),
(314,538,c),
(348,555,o),
(387,564,o),
(430,564,cs),
(534,564,o),
(620,523,o),
(671,459,c),
(671,637,l),
(616,682,o),
(529,710,o),
(430,710,cs),
(276,710,o),
(154,648,o),
(90,539,cs),
(58,484,o),
(42,421,o),
(42,350,cs),
(42,207,o),
(109,94,o),
(226,35,cs),
(285,4,o),
(353,-10,o),
(430,-10,cs),
(481,-10,o),
(528,-4,o),
(572,10,cs),
(616,24,o),
(649,41,o),
(671,63,c)
);
}
);
width = 734;
},
{
anchors = (
{
name = m.uni0941_2;
position = "{430, 0}";
},
{
name = t.uni0946_1_3;
position = "{430, 710}";
}
);
layerId = "295DBF72-63CE-4360-AA06-723F1178BFCA";
shapes = (
{
closed = 1;
nodes = (
(694,186,l),
(666,154,o),
(627,128,o),
(580,110,cs),
(531,90,o),
(482,81,o),
(430,81,cs),
(320,81,o),
(235,127,o),
(188,210,cs),
(166,250,o),
(154,297,o),
(154,350,cs),
(154,456,o),
(202,541,o),
(286,585,c),
(327,609,o),
(376,619,o),
(430,619,cs),
(529,619,o),
(625,578,o),
(687,514,c),
(687,630,l),
(623,679,o),
(528,710,o),
(430,710,cs),
(279,710,o),
(160,648,o),
(97,539,cs),
(65,484,o),
(49,421,o),
(49,350,cs),
(49,207,o),
(116,94,o),
(231,35,c),
(288,4,o),
(354,-10,o),
(430,-10,cs),
(482,-10,o),
(532,-3,o),
(581,13,cs),
(629,28,o),
(667,47,o),
(694,70,c)
);
}
);
width = 757;
},
{
anchors = (
{
name = m.uni0941_2;
position = "{430, 0}";
},
{
name = t.uni0946_1_3;
position = "{430, 710}";
}
);
layerId = "3548BA04-AEF4-4D65-BB36-2983657EE332";
shapes = (
{
closed = 1;
nodes = (
(706,158,l),
(675,126,o),
(633,101,o),
(583,82,cs),
(531,62,o),
(481,53,o),
(430,53,cs),
(309,53,o),
(215,104,o),
(164,195,cs),
(139,239,o),
(126,291,o),
(126,350,cs),
(126,467,o),
(180,561,o),
(272,609,c),
(317,636,o),
(370,647,o),
(430,647,cs),
(526,647,o),
(627,605,o),
(695,542,c),
(695,626,l),
(627,677,o),
(527,710,o),
(430,710,cs),
(281,710,o),
(163,648,o),
(101,539,cs),
(69,484,o),
(53,421,o),
(53,350,cs),
(53,207,o),
(119,94,o),
(234,35,c),
(290,4,o),
(355,-10,o),
(430,-10,cs),
(482,-10,o),
(534,-3,o),
(586,15,c),
(635,30,o),
(676,50,o),
(706,74,c)
);
}
);
width = 769;
}
);
leftKerningGroup = C;
unicode = 67;
}
{
glyphname = D;
layers = (
{
anchors = (
{
name = m.uni0941_2;
position = "{380, 0}";
},
{
name = t.uni0946_1_3;
position = "{380, 702}";
}
);
layerId = "405326B1-6BF5-43CA-AF9F-47F385A9BA9E";
shapes = (
{
closed = 1;
nodes = (
(84,700,l),
(84,0,l),
(356,0,ls),
(504,0,o),
(627,58,o),
(694,163,cs),
(727,216,o),
(744,278,o),
(744,350,cs),
(744,494,o),
(673,603,o),
(555,658,cs),
(497,686,o),
(431,700,o),
(356,700,cs)
);
},
{
closed = 1;
nodes = (
(251,147,l),
(251,553,l),
(346,553,ls),
(437,553,o),
(509,518,o),
(548,456,cs),
(567,425,o),
(576,390,o),
(576,350,cs),
(576,270,o),
(537,206,o),
(466,173,c),
(432,155,o),
(391,147,o),
(346,147,cs)
);
}
);
width = 786;
},
{
anchors = (
{
name = m.uni0941_2;
position = "{380, 0}";
},
{
name = t.uni0946_1_3;
position = "{380, 702}";
}
);
layerId = "757F0D97-04AA-4B34-B6FD-694B5135A2D3";
shapes = (
{
closed = 1;
nodes = (
(100,700,l),
(100,0,l),
(333,0,ls),
(485,0,o),
(610,58,o),
(678,163,c),
(711,216,o),
(728,278,o),
(728,350,cs),
(728,494,o),
(657,603,o),
(537,658,cs),
(478,686,o),
(408,700,o),
(333,700,cs)
);
},
{
closed = 1;
nodes = (
(204,91,l),
(204,609,l),
(322,609,ls),
(443,609,o),
(537,565,o),
(587,487,cs),
(612,448,o),
(623,402,o),
(623,350,cs),
(623,246,o),
(572,165,o),
(481,123,cs),
(436,102,o),
(383,91,o),
(322,91,cs)
);
}
);
width = 778;
},
{
anchors = (
{
name = m.uni0941_2;
position = "{380, 0}";
},
{
name = t.uni0946_1_3;
position = "{380, 702}";
}
);
layerId = "41C2A34C-83CD-4E58-A113-8C77F8A82D56";
shapes = (
{
closed = 1;
nodes = (
(108,700,l),
(108,0,l),
(321,0,ls),
(476,0,o),
(602,58,o),
(670,163,c),
(703,216,o),
(720,278,o),
(720,350,cs),
(720,494,o),
(649,603,o),
(528,658,cs),
(468,686,o),
(397,700,o),
(321,700,cs)
);
},
{
closed = 1;
nodes = (
(181,63,l),
(181,637,l),
(310,637,ls),
(446,637,o),
(551,589,o),
(606,503,cs),
(634,459,o),
(647,408,o),
(647,350,cs),
(647,234,o),
(590,145,o),
(489,98,cs),
(438,75,o),
(379,63,o),
(310,63,cs)
);
}
);
width = 774;
}
);
leftKerningGroup = B;
rightKerningGroup = D;
unicode = 68;
}
{
glyphname = E;
layers = (
{
anchors = (
{
name = t.uni0946_1_3;
position = "{319, 700}";
},
{
name = m.uni0328_2;
position = "{461, 0}";
}
);
layerId = "72BDA083-B3C3-4444-A72D-7A06DB42C04D";
shapes = (
{
closed = 1;
nodes = (
(534,429,l),
(534,282,l),
(235,282,l),
(235,429,l)
);
},
{
closed = 1;
nodes = (
(204,147,l),
(534,147,l),
(534,0,l),
(84,0,l),
(84,700,l),
(534,700,l),
(534,553,l),
(204,553,l),
(251,600,l),
(251,100,l)
);
}
);
width = 610;
},
{
anchors = (
{
name = t.uni0946_1_3;
position = "{319, 700}";
},
{
name = m.uni0328_2;
position = "{461, 0}";
}
);
layerId = "E5F094ED-45EA-480E-BC3C-862AD7D27802";
shapes = (
{
closed = 1;
nodes = (
(518,405,l),
(518,314,l),
(188,314,l),
(188,405,l)
);
},
{
closed = 1;
nodes = (
(157,91,l),
(518,91,l),
(518,0,l),
(100,0,l),
(100,700,l),
(518,700,l),
(518,609,l),
(157,609,l),
(204,656,l),
(204,44,l)
);
}
);
width = 609;
},
{
anchors = (
{
name = t.uni0946_1_3;
position = "{319, 700}";
},
{
name = m.uni0328_2;
position = "{461, 0}";
}
);
layerId = "29E3C8E8-2B44-49C3-BAE8-24201C487834";
shapes = (
{
closed = 1;
nodes = (
(510,393,l),
(510,330,l),
(164,330,l),
(164,393,l)
);
},
{
closed = 1;
nodes = (
(133,63,l),
(510,63,l),
(510,0,l),
(108,0,l),
(108,700,l),
(510,700,l),
(510,637,l),
(133,637,l),
(181,684,l),
(181,16,l)
);
}
);
width = 608;
}
);
leftKerningGroup = B;
unicode = 69;
}
{
glyphname = F;
layers = (
{
layerId = "578F755D-994C-42C1-BB23-8F906AA68774";
shapes = (
{
closed = 1;
nodes = (
(513,423,l),
(235,423,l),
(235,277,l),
(513,277,l)
);
},
{
closed = 1;
nodes = (
(84,0,l),
(251,0,l),
(251,600,l),
(204,553,l),
(513,553,l),
(513,700,l),
(84,700,l)
);
}
);
width = 574;
},
{
layerId = "DBD1B0BE-353E-4EBF-B6EE-D0152B0FB6BB";
shapes = (
{
closed = 1;
nodes = (
(498,407,l),
(188,407,l),
(188,316,l),
(498,316,l)
);
},
{
closed = 1;
nodes = (
(100,0,l),
(204,0,l),
(204,656,l),
(157,609,l),
(498,609,l),
(498,700,l),
(100,700,l)
);
}
);
width = 569;
},
{
layerId = "EEBEDCE0-4D70-4EE0-A037-F223D2B7A84D";
shapes = (
{
closed = 1;
nodes = (
(490,399,l),
(164,399,l),
(164,336,l),
(490,336,l)
);
},
{
closed = 1;
nodes = (
(108,0,l),
(181,0,l),
(181,684,l),
(133,637,l),
(490,637,l),
(490,700,l),
(108,700,l)
);
}
);
width = 567;
}
);
leftKerningGroup = B;
unicode = 70;
}
{
glyphname = G;
layers = (
{
anchors = (
{
name = m.uni0941_2;
position = "{429, -10}";
},
{
name = t.uni0946_1_3;
position = "{418, 713}";
}
);
layerId = "62CCE428-27AF-4174-8C32-8EDF06C2E6AE";
shapes = (
{
closed = 1;
nodes = (
(718,402,l),
(718,63,l),
(687,41,o),
(647,24,o),
(594,10,cs),
(541,-4,o),
(486,-10,o),
(430,-10,cs),
(353,-10,o),
(285,4,o),
(226,35,cs),
(109,94,o),
(42,207,o),
(42,350,cs),
(42,421,o),
(58,484,o),
(89,539,cs),
(152,648,o),
(269,710,o),
(419,710,cs),
(468,710,o),
(518,704,o),
(565,692,cs),
(612,678,o),
(651,660,o),
(681,637,c),
(681,480,l),
(646,506,o),
(606,526,o),
(561,542,cs),
(516,556,o),
(468,564,o),
(419,564,cs),
(378,564,o),
(342,555,o),
(310,538,cs),
(246,502,o),
(210,434,o),
(210,350,cs),
(210,308,o),
(219,271,o),
(237,239,cs),
(274,174,o),
(343,136,o),
(430,136,cs),
(498,136,o),
(540,146,o),
(578,171,c),
(550,106,l),
(550,313,l),
(597,266,l),
(414,266,l),
(414,402,l)
);
}
);
width = 781;
},
{
anchors = (
{
name = m.uni0941_2;
position = "{429, -10}";
},
{
name = t.uni0946_1_3;
position = "{418, 713}";
}
);
layerId = "7A295977-FA7A-4808-B07F-0795E8A98AF6";
shapes = (
{
closed = 1;
nodes = (
(725,363,l),
(725,63,l),
(695,41,o),
(654,24,o),
(602,10,cs),
(548,-4,o),
(494,-10,o),
(437,-10,cs),
(361,-10,o),
(293,4,o),
(234,35,c),
(116,94,o),
(49,207,o),
(49,350,cs),
(49,421,o),
(65,484,o),
(97,539,cs),
(159,648,o),
(277,710,o),
(427,710,cs),
(475,710,o),
(523,704,o),
(571,691,c),
(619,677,o),
(658,659,o),
(689,637,c),
(689,527,l),
(656,555,o),
(615,577,o),
(568,595,c),
(521,611,o),
(473,619,o),
(427,619,cs),
(373,619,o),
(326,609,o),
(285,585,c),
(202,541,o),
(154,456,o),
(154,350,cs),
(154,297,o),
(166,250,o),
(190,210,c),
(236,127,o),
(326,81,o),
(437,81,cs),
(512,81,o),
(591,100,o),
(647,131,c),
(621,71,l),
(621,321,l),
(669,274,l),
(446,274,l),
(446,363,l)
);
}
);
width = 804;
},
{
anchors = (
{
name = m.uni0941_2;
position = "{429, -10}";
},
{
name = t.uni0946_1_3;
position = "{418, 713}";
}
);
layerId = "FBBD23DC-4A32-4E17-882F-E93472546798";
shapes = (
{
closed = 1;
nodes = (
(729,343,l),
(729,63,l),
(699,41,o),
(658,24,o),
(606,10,cs),
(552,-4,o),
(498,-10,o),
(441,-10,cs),
(365,-10,o),
(297,4,o),
(238,35,c),
(120,94,o),
(53,207,o),
(53,350,cs),
(53,421,o),
(69,484,o),
(101,539,cs),
(163,648,o),
(281,710,o),
(431,710,cs),
(478,710,o),
(526,704,o),
(574,691,cs),
(622,677,o),
(662,659,o),
(693,637,c),
(693,551,l),
(661,580,o),
(620,603,o),
(571,622,c),
(523,639,o),
(476,647,o),
(431,647,cs),
(371,647,o),
(318,636,o),
(273,609,c),
(180,561,o),
(126,467,o),
(126,350,cs),
(126,291,o),
(139,239,o),
(166,195,c),
(217,104,o),
(317,53,o),
(441,53,cs),
(519,53,o),
(616,77,o),
(682,111,c),
(657,53,l),
(657,325,l),
(705,278,l),
(462,278,l),
(462,343,l)
);
}
);
width = 816;
}
);
leftKerningGroup = C;
rightKerningGroup = G;
unicode = 71;
}
{
glyphname = H;
layers = (
{
anchors = (
{
name = t.uni0335_2;
position = "{402, 555}";
}
);
layerId = "72BDA083-B3C3-4444-A72D-7A06DB42C04D";
shapes = (
{
closed = 1;
nodes = (
(723,700,l),
(723,0,l),
(555,0,l),
(555,700,l)
);
},
{
closed = 1;
nodes = (
(572,434,l),
(572,287,l),
(235,287,l),
(235,434,l)
);
},
{
closed = 1;
nodes = (
(84,0,l),
(84,700,l),
(251,700,l),
(251,0,l)
);
}
);
width = 807;
},
{
anchors = (
{
name = t.uni0335_2;
position = "{402, 555}";
}
);
layerId = "E5F094ED-45EA-480E-BC3C-862AD7D27802";
shapes = (
{
closed = 1;
nodes = (
(707,700,l),
(707,0,l),
(602,0,l),
(602,700,l)
);
},
{
closed = 1;
nodes = (
(619,410,l),
(619,319,l),
(188,319,l),
(188,410,l)
);
},
{
closed = 1;
nodes = (
(100,0,l),
(100,700,l),
(204,700,l),
(204,0,l)
);
}
);
width = 807;
},
{
anchors = (
{
name = t.uni0335_2;
position = "{402, 555}";
}
);
layerId = "29E3C8E8-2B44-49C3-BAE8-24201C487834";
shapes = (
{
closed = 1;
nodes = (
(699,700,l),
(699,0,l),
(626,0,l),
(626,700,l)
);
},
{
closed = 1;
nodes = (
(643,398,l),
(643,335,l),
(164,335,l),
(164,398,l)
);
},
{
closed = 1;
nodes = (
(108,0,l),
(108,700,l),
(181,700,l),
(181,0,l)
);
}
);
width = 807;
}
);
leftKerningGroup = B;
unicode = 72;
}
{
glyphname = I;
layers = (
{
anchors = (
{
name = m.uni0941_2;
position = "{173, 0}";
},
{
name = t.uni0946_1_3;
position = "{166, 702}";
},
{
name = m.uni0328_2;
position = "{232, 0}";
}
);
layerId = "198774C1-CC10-42B9-85F8-E7CE679A5159";
shapes = (
{
closed = 1;
nodes = (
(251,700,l),
(84,700,l),
(84,0,l),
(251,0,l)
);
}
);
width = 335;
},
{
anchors = (
{
name = m.uni0941_2;
position = "{173, 0}";
},
{
name = t.uni0946_1_3;
position = "{166, 702}";
},
{
name = m.uni0328_2;
position = "{232, 0}";
}
);
layerId = "D316A020-56DB-4308-AD51-D49B9BC7B732";
shapes = (
{
closed = 1;
nodes = (
(204,700,l),
(100,700,l),
(100,0,l),
(204,0,l)
);
}
);
width = 303;
},
{
anchors = (
{
name = m.uni0941_2;
position = "{173, 0}";
},
{
name = t.uni0946_1_3;
position = "{166, 702}";
},
{
name = m.uni0328_2;
position = "{232, 0}";
}
);
layerId = "DA1743F1-FF62-465F-8D09-7851030965A4";
shapes = (
{
closed = 1;
nodes = (
(181,700,l),
(108,700,l),
(108,0,l),
(181,0,l)
);
}
);
width = 287;
}
);
leftKerningGroup = B;
unicode = 73;
}
{
glyphname = J;
layers = (
{
anchors = (
{
name = m.uni0941_2;
position = "{119, 0}";
},
{
name = t.uni0946_1_3;
position = "{262, 702}";
}
);
layerId = "198774C1-CC10-42B9-85F8-E7CE679A5159";
shapes = (
{
closed = 1;
nodes = (
(344,700,l),
(176,700,l),
(176,246,ls),
(176,159,o),
(162,112,o),
(112,80,cs),
(87,63,o),
(49,49,o),
(0,40,c),
(63,-94,l),
(156,-81,o),
(226,-48,o),
(274,2,cs),
(321,52,o),
(344,123,o),
(344,214,cs)
);
}
);
width = 428;
},
{
anchors = (
{
name = m.uni0941_2;
position = "{119, 0}";
},
{
name = t.uni0946_1_3;
position = "{262, 702}";
}
);
layerId = "D316A020-56DB-4308-AD51-D49B9BC7B732";
shapes = (
{
closed = 1;
nodes = (
(272,700,l),
(169,700,l),
(169,197,ls),
(169,120,o),
(151,77,o),
(106,47,c),
(83,33,o),
(50,20,o),
(7,10,c),
(50,-78,l),
(118,-66,o),
(171,-41,o),
(213,-1,cs),
(253,39,o),
(272,96,o),
(272,173,cs)
);
}
);
width = 372;
},
{
anchors = (
{
name = m.uni0941_2;
position = "{119, 0}";
},
{
name = t.uni0946_1_3;
position = "{262, 702}";
}
);
layerId = "DA1743F1-FF62-465F-8D09-7851030965A4";
shapes = (
{
closed = 1;
nodes = (
(236,700,l),
(165,700,l),
(165,173,ls),
(165,100,o),
(146,59,o),
(103,31,c),
(81,18,o),
(50,5,o),
(11,-5,c),
(44,-70,l),
(99,-59,o),
(144,-38,o),
(182,-3,c),
(219,33,o),
(236,83,o),
(236,153,cs)
);
}
);
width = 344;
}
);
leftKerningGroup = J;
rightKerningGroup = J2;
unicode = 74;
}
{
glyphname = K;
layers = (
{
anchors = (
{
name = m.uni0941_2;
position = "{381, 21}";
},
{
name = t.uni0946_1_3;
position = "{386, 692}";
}
);
layerId = "84F707B8-E6F6-4560-9E91-EBCBB3F7C032";
shapes = (
{
closed = 1;
nodes = (
(251,700,l),
(84,700,l),
(84,0,l),
(251,0,l)
);
},
{
closed = 1;
nodes = (
(419,371,l),
(723,700,l),
(513,700,l),
(231,371,l),
(545,0,l),
(754,0,l)
);
}
);
width = 765;
},
{
anchors = (
{
name = m.uni0941_2;
position = "{381, 21}";
},
{
name = t.uni0946_1_3;
position = "{386, 692}";
}
);
layerId = "DF169942-312F-4CB9-BFF4-C95DA1EFA8DD";
shapes = (
{
closed = 1;
nodes = (
(204,700,l),
(100,700,l),
(100,0,l),
(204,0,l)
);
},
{
closed = 1;
nodes = (
(332,371,l),
(644,700,l),
(506,700,l),
(207,371,l),
(537,0,l),
(675,0,l)
);
}
);
width = 686;
},
{
anchors = (
{
name = m.uni0941_2;
position = "{381, 21}";
},
{
name = t.uni0946_1_3;
position = "{386, 692}";
}
);
layerId = "85DC3871-BA98-4DCB-A963-6B42D2E15F96";
shapes = (
{
closed = 1;
nodes = (
(181,700,l),
(108,700,l),
(108,0,l),
(181,0,l)
);
},
{
closed = 1;
nodes = (
(289,371,l),
(604,700,l),
(502,700,l),
(195,371,l),
(533,0,l),
(636,0,l)
);
}
);
width = 646;
}
);
leftKerningGroup = B;
rightKerningGroup = K;
unicode = 75;
}
{
glyphname = L;
layers = (
{
anchors = (
{
name = t.uni0946_1_3;
position = "{166, 702}";
},
{
name = t.uni0335_2;
position = "{175, 388}";
},
{
name = t.uni031B_3;
position = "{413, 792}";
}
);
layerId = "72BDA083-B3C3-4444-A72D-7A06DB42C04D";
shapes = (
{
closed = 1;
nodes = (
(204,147,l),
(545,147,l),
(545,0,l),
(84,0,l),
(84,700,l),
(251,700,l),
(251,100,l)
);
}
);
width = 566;
},
{
anchors = (
{
name = t.uni0946_1_3;
position = "{166, 702}";
},
{
name = t.uni0335_2;
position = "{175, 388}";
},
{
name = t.uni031B_3;
position = "{413, 792}";
}
);
layerId = "E5F094ED-45EA-480E-BC3C-862AD7D27802";
shapes = (
{
closed = 1;
nodes = (
(157,91,l),
(529,91,l),
(529,0,l),
(100,0,l),
(100,700,l),
(204,700,l),
(204,44,l)
);
}
);
width = 550;
},
{
anchors = (
{
name = t.uni0946_1_3;
position = "{166, 702}";
},
{
name = t.uni0335_2;
position = "{175, 388}";
},
{
name = t.uni031B_3;
position = "{413, 792}";
}
);
layerId = "29E3C8E8-2B44-49C3-BAE8-24201C487834";
shapes = (
{
closed = 1;
nodes = (
(133,63,l),
(521,63,l),
(521,0,l),
(108,0,l),
(108,700,l),
(181,700,l),
(181,16,l)
);
}
);
width = 542;
}
);
leftKerningGroup = B;
rightKerningGroup = L;
unicode = 76;
}
{
glyphname = M;
layers = (
{
layerId = "198774C1-CC10-42B9-85F8-E7CE679A5159";
shapes = (
{
closed = 1;
nodes = (
(838,700,l),
(692,700,l),
(461,381,l),
(231,700,l),
(84,700,l),
(84,0,l),
(251,0,l),
(251,424,l),
(451,163,l),
(472,163,l),
(671,424,l),
(671,0,l),
(838,0,l)
);
}
);
width = 922;
},
{
layerId = "D316A020-56DB-4308-AD51-D49B9BC7B732";
shapes = (
{
closed = 1;
nodes = (
(822,700,l),
(731,700,l),
(461,350,l),
(191,700,l),
(100,700,l),
(100,0,l),
(204,0,l),
(204,527,l),
(451,210,l),
(472,210,l),
(718,527,l),
(718,0,l),
(822,0,l)
);
}
);
width = 922;
},
{
layerId = "DA1743F1-FF62-465F-8D09-7851030965A4";
shapes = (
{
closed = 1;
nodes = (
(814,700,l),
(751,700,l),
(461,334,l),
(171,700,l),
(108,700,l),
(108,0,l),
(181,0,l),
(181,579,l),
(451,234,l),
(472,234,l),
(742,579,l),
(742,0,l),
(814,0,l)
);
}
);
width = 922;
}
);
unicode = 77;
}
{
glyphname = N;
layers = (
{
layerId = "405326B1-6BF5-43CA-AF9F-47F385A9BA9E";
shapes = (
{
closed = 1;
nodes = (
(754,700,l),
(587,700,l),
(587,259,l),
(231,700,l),
(84,700,l),
(84,0,l),
(251,0,l),
(251,441,l),
(608,0,l),
(754,0,l)
);
}
);
width = 838;
},
{
layerId = "757F0D97-04AA-4B34-B6FD-694B5135A2D3";
shapes = (
{
closed = 1;
nodes = (
(739,700,l),
(634,700,l),
(634,172,l),
(184,700,l),
(100,700,l),
(100,0,l),
(204,0,l),
(204,528,l),
(655,0,l),
(739,0,l)
);
}
);
width = 838;
},
{
layerId = "41C2A34C-83CD-4E58-A113-8C77F8A82D56";
shapes = (
{
closed = 1;
nodes = (
(731,700,l),
(658,700,l),
(658,129,l),
(160,700,l),
(108,700,l),
(108,0,l),
(181,0,l),
(181,571,l),
(679,0,l),
(731,0,l)
);
}
);
width = 838;
}
);
leftKerningGroup = B;
unicode = 78;
}
{
glyphname = O;
layers = (
{
layerId = "405326B1-6BF5-43CA-AF9F-47F385A9BA9E";
shapes = (
{
closed = 1;
nodes = (
(276,710,o),
(156,648,o),
(91,539,cs),
(59,484,o),
(42,421,o),
(42,350,cs),
(42,207,o),
(110,94,o),
(227,35,c),
(285,4,o),
(353,-10,o),
(430,-10,cs),
(584,-10,o),
(704,52,o),
(769,161,cs),
(802,216,o),
(817,279,o),
(817,350,cs),
(817,493,o),
(749,606,o),
(633,665,cs),
(574,696,o),
(506,710,o),
(430,710,cs)
);
},
{
closed = 1;
nodes = (
(343,136,o),
(274,174,o),
(237,239,cs),
(219,271,o),
(210,308,o),
(210,350,cs),
(210,434,o),
(247,502,o),
(314,538,c),
(348,555,o),
(387,564,o),
(430,564,cs),
(517,564,o),
(586,527,o),
(622,462,cs),
(640,430,o),
(650,392,o),
(650,350,cs),
(650,266,o),
(612,199,o),
(545,163,c),
(511,146,o),
(473,136,o),
(430,136,cs)
);
}
);
width = 859;
},
{
layerId = "757F0D97-04AA-4B34-B6FD-694B5135A2D3";
shapes = (
{
closed = 1;
nodes = (
(279,710,o),
(161,648,o),
(98,539,cs),
(66,484,o),
(49,421,o),
(49,350,cs),
(49,207,o),
(116,94,o),
(232,35,c),
(288,4,o),
(354,-10,o),
(430,-10,cs),
(580,-10,o),
(699,52,o),
(762,161,cs),
(794,216,o),
(810,279,o),
(810,350,cs),
(810,493,o),
(743,606,o),
(629,665,cs),
(571,696,o),
(505,710,o),
(430,710,cs)
);
},
{
closed = 1;
nodes = (
(320,81,o),
(235,127,o),
(188,210,cs),
(166,250,o),
(154,297,o),
(154,350,cs),
(154,456,o),
(202,541,o),
(286,585,c),
(327,609,o),
(376,619,o),
(430,619,cs),
(539,619,o),
(625,573,o),
(671,491,cs),
(693,451,o),
(705,403,o),
(705,350,cs),
(705,244,o),
(657,159,o),
(574,114,cs),
(532,91,o),
(484,81,o),
(430,81,cs)
);
}
);
width = 859;
},
{
layerId = "41C2A34C-83CD-4E58-A113-8C77F8A82D56";
shapes = (
{
closed = 1;
nodes = (
(281,710,o),
(163,648,o),
(101,539,cs),
(69,484,o),
(53,421,o),
(53,350,cs),
(53,207,o),
(119,94,o),
(234,35,c),
(290,4,o),
(355,-10,o),
(430,-10,cs),
(578,-10,o),
(696,52,o),
(759,161,cs),
(790,216,o),
(806,279,o),
(806,350,cs),
(806,493,o),
(740,606,o),
(627,665,cs),
(569,696,o),
(504,710,o),
(430,710,cs)
);
},
{
closed = 1;
nodes = (
(309,53,o),
(215,104,o),
(164,195,cs),
(139,239,o),
(126,291,o),
(126,350,cs),
(126,467,o),
(180,561,o),
(272,609,c),
(317,636,o),
(370,647,o),
(430,647,cs),
(550,647,o),
(644,596,o),
(695,506,cs),
(720,461,o),
(733,409,o),
(733,350,cs),
(733,233,o),
(680,139,o),
(589,90,c),
(543,64,o),
(489,53,o),
(430,53,cs)
);
}
);
width = 859;
}
);
leftKerningGroup = C;
rightKerningGroup = D;
unicode = 79;
}
{
glyphname = P;
layers = (
{
layerId = "62CCE428-27AF-4174-8C32-8EDF06C2E6AE";
shapes = (
{
closed = 1;
nodes = (
(251,700,l),
(251,0,l),
(84,0,l),
(84,700,l)
);
},
{
closed = 1;
nodes = (
(335,700,ls),
(389,700,o),
(437,690,o),
(478,670,cs),
(561,630,o),
(608,555,o),
(608,460,cs),
(608,413,o),
(597,371,o),
(574,335,cs),
(529,263,o),
(443,221,o),
(335,221,cs),
(211,221,l),
(211,368,l),
(335,368,ls),
(366,368,o),
(392,376,o),
(411,393,cs),
(430,410,o),
(440,432,o),
(440,460,cs),
(440,488,o),
(430,511,o),
(411,528,cs),
(392,545,o),
(366,553,o),
(335,553,cs),
(211,553,l),
(211,700,l)
);
}
);
width = 650;
},
{
layerId = "7A295977-FA7A-4808-B07F-0795E8A98AF6";
shapes = (
{
closed = 1;
nodes = (
(204,700,l),
(204,0,l),
(100,0,l),
(100,700,l)
);
},
{
closed = 1;
nodes = (
(328,700,ls),
(378,700,o),
(422,690,o),
(461,671,cs),
(539,631,o),
(584,560,o),
(584,468,cs),
(584,422,o),
(574,382,o),
(552,347,cs),
(510,278,o),
(428,237,o),
(328,237,cs),
(179,237,l),
(179,328,l),
(328,328,ls),
(373,328,o),
(410,341,o),
(438,366,cs),
(466,392,o),
(480,426,o),
(480,468,cs),
(480,511,o),
(466,544,o),
(438,571,c),
(410,596,o),
(373,609,o),
(328,609,cs),
(179,609,l),
(179,700,l)
);
}
);
width = 634;
},
{
layerId = "FBBD23DC-4A32-4E17-882F-E93472546798";
shapes = (
{
closed = 1;
nodes = (
(181,700,l),
(181,0,l),
(108,0,l),
(108,700,l)
);
},
{
closed = 1;
nodes = (
(324,700,ls),
(372,700,o),
(415,690,o),
(453,671,cs),
(528,632,o),
(572,563,o),
(572,472,cs),
(572,427,o),
(562,387,o),
(541,353,cs),
(500,285,o),
(421,245,o),
(324,245,cs),
(163,245,l),
(163,308,l),
(324,308,ls),
(376,308,o),
(419,323,o),
(452,353,cs),
(484,383,o),
(500,423,o),
(500,472,cs),
(500,522,o),
(484,561,o),
(452,592,c),
(419,622,o),
(376,637,o),
(324,637,cs),
(163,637,l),
(163,700,l)
);
}
);
width = 626;
}
);
leftKerningGroup = B;
unicode = 80;
}
{
glyphname = Q;
layers = (
{
layerId = "1C312886-EA3B-428D-9B7E-D512CD232D6D";
name = "#instance";
shapes = (
{
closed = 1;
nodes = (
(353,-10,o),
(285,5,o),
(227,35,cs),
(110,95,o),
(42,207,o),
(42,350,cs),
(42,421,o),
(58,484,o),
(91,539,cs),
(155,647,o),
(275,710,o),
(430,710,cs),
(507,710,o),
(574,695,o),
(633,665,cs),
(749,605,o),
(817,493,o),
(817,350,cs),
(817,279,o),
(801,216,o),
(769,162,cs),
(704,53,o),
(583,-10,o),
(430,-10,cs)
);
},
{
closed = 1;
nodes = (
(473,136,o),
(512,145,o),
(545,163,cs),
(612,199,o),
(650,266,o),
(650,350,cs),
(650,392,o),
(641,429,o),
(623,462,cs),
(586,526,o),
(517,564,o),
(430,564,cs),
(387,564,o),
(348,555,o),
(315,537,cs),
(247,501,o),
(210,434,o),
(210,350,cs),
(210,308,o),
(219,271,o),
(237,239,cs),
(273,174,o),
(343,136,o),
(430,136,cs)
);
},
{
closed = 1;
nodes = (
(662,-161,o),
(605,-143,o),
(540,-90,cs),
(426,1,l),
(507,99,l),
(616,15,l),
(649,-12,o),
(691,-25,o),
(740,-25,cs),
(769,-25,o),
(794,-22,o),
(813,-15,c),
(782,-153,l),
(762,-158,o),
(741,-161,o),
(719,-161,cs)
);
}
);
width = 859;
},
{
layerId = "62CCE428-27AF-4174-8C32-8EDF06C2E6AE";
shapes = (
{
closed = 1;
nodes = (
(353,-10,o),
(285,5,o),
(227,35,cs),
(110,95,o),
(42,207,o),
(42,350,cs),
(42,421,o),
(58,484,o),
(91,539,cs),
(155,647,o),
(275,710,o),
(430,710,cs),
(507,710,o),
(574,695,o),
(633,665,cs),
(749,605,o),
(817,493,o),
(817,350,cs),
(817,279,o),
(801,216,o),
(769,162,cs),
(704,53,o),
(583,-10,o),
(430,-10,cs)
);
},
{
closed = 1;
nodes = (
(473,136,o),
(512,145,o),
(545,163,cs),
(612,199,o),
(650,266,o),
(650,350,cs),
(650,392,o),
(641,429,o),
(623,462,cs),
(586,526,o),
(517,564,o),
(430,564,cs),
(387,564,o),
(348,555,o),
(315,537,cs),
(247,501,o),
(210,434,o),
(210,350,cs),
(210,308,o),
(219,271,o),
(237,239,cs),
(273,174,o),
(343,136,o),
(430,136,cs)
);
},
{
closed = 1;
nodes = (
(662,-161,o),
(605,-143,o),
(540,-90,cs),
(426,1,l),
(507,99,l),
(616,15,l),
(649,-12,o),
(691,-25,o),
(740,-25,cs),
(769,-25,o),
(794,-22,o),
(813,-15,c),
(782,-153,l),
(762,-158,o),
(741,-161,o),
(719,-161,cs)
);
}
);
width = 859;
},
{
layerId = "7A295977-FA7A-4808-B07F-0795E8A98AF6";
shapes = (
{
closed = 1;
nodes = (
(354,-10,o),
(289,5,o),
(232,35,cs),
(117,95,o),
(49,207,o),
(49,350,cs),
(49,421,o),
(65,484,o),
(98,539,cs),
(161,647,o),
(280,710,o),
(430,710,cs),
(506,710,o),
(572,695,o),
(629,665,cs),
(744,605,o),
(810,493,o),
(810,350,cs),
(810,279,o),
(794,216,o),
(762,162,cs),
(699,53,o),
(580,-10,o),
(430,-10,cs)
);
},
{
closed = 1;
nodes = (
(484,81,o),
(533,92,o),
(574,114,cs),
(657,159,o),
(705,244,o),
(705,350,cs),
(705,403,o),
(694,450,o),
(672,491,c),
(625,573,o),
(539,619,o),
(430,619,cs),
(376,619,o),
(327,608,o),
(286,586,cs),
(202,541,o),
(154,456,o),
(154,350,cs),
(154,297,o),
(165,250,o),
(188,210,cs),
(234,127,o),
(321,81,o),
(430,81,cs)
);
},
{
closed = 1;
nodes = (
(652,-161,o),
(597,-143,o),
(532,-90,cs),
(419,1,l),
(474,63,l),
(583,-20,ls),
(628,-55,o),
(673,-72,o),
(716,-72,cs),
(745,-72,o),
(770,-69,o),
(790,-62,c),
(774,-153,l),
(755,-158,o),
(734,-161,o),
(711,-161,cs)
);
}
);
width = 859;
},
{
layerId = "FBBD23DC-4A32-4E17-882F-E93472546798";
shapes = (
{
closed = 1;
nodes = (
(355,-10,o),
(291,5,o),
(234,35,cs),
(120,95,o),
(53,207,o),
(53,350,cs),
(53,421,o),
(69,484,o),
(101,539,cs),
(164,647,o),
(282,710,o),
(430,710,cs),
(505,710,o),
(571,695,o),
(627,665,cs),
(741,605,o),
(806,493,o),
(806,350,cs),
(806,279,o),
(790,216,o),
(759,162,cs),
(696,53,o),
(578,-10,o),
(430,-10,cs)
);
},
{
closed = 1;
nodes = (
(490,53,o),
(543,65,o),
(589,90,cs),
(680,139,o),
(733,233,o),
(733,350,cs),
(733,409,o),
(721,461,o),
(696,506,cs),
(645,596,o),
(550,647,o),
(430,647,cs),
(370,647,o),
(317,635,o),
(272,611,cs),
(180,561,o),
(126,467,o),
(126,350,cs),
(126,291,o),
(138,239,o),
(164,195,cs),
(215,104,o),
(310,53,o),
(430,53,cs)
);
},
{
closed = 1;
nodes = (
(647,-161,o),
(593,-143,o),
(528,-90,cs),
(415,1,l),
(457,45,l),
(566,-38,ls),
(617,-77,o),
(664,-96,o),
(704,-96,cs),
(733,-96,o),
(758,-93,o),
(778,-86,c),
(770,-153,l),
(751,-158,o),
(730,-161,o),
(707,-161,cs)
);
}
);
width = 859;
}
);
leftKerningGroup = C;
rightKerningGroup = D;
unicode = 81;
}
{
glyphname = R;
layers = (
{
anchors = (
{
name = t.uni0946_1_3;
position = "{328, 713}";
}
);
layerId = "405326B1-6BF5-43CA-AF9F-47F385A9BA9E";
shapes = (
{
closed = 1;
nodes = (
(84,700,l),
(84,0,l),
(251,0,l),
(251,700,l)
);
},
{
closed = 1;
nodes = (
(679,0,l),
(673,12,o),
(661,35,o),
(646,70,c),
(634,95,o),
(622,123,o),
(609,152,c),
(595,180,o),
(581,206,o),
(567,228,c),
(521,307,o),
(447,348,o),
(327,348,cs),
(315,348,l),
(263,253,l),
(272,253,ls),
(347,253,o),
(387,226,o),
(423,154,c),
(439,124,o),
(453,94,o),
(465,65,cs),
(477,36,o),
(485,14,o),
(489,0,c)
);
},
{
closed = 1;
nodes = (
(211,700,l),
(211,553,l),
(314,553,ls),
(377,553,o),
(419,516,o),
(419,460,cs),
(419,404,o),
(377,368,o),
(314,368,cs),
(211,368,l),
(211,253,l),
(304,253,l),
(328,294,l),
(346,294,ls),
(445,294,o),
(520,331,o),
(559,391,cs),
(577,420,o),
(587,454,o),
(587,491,cs),
(587,571,o),
(540,638,o),
(457,674,cs),
(416,692,o),
(368,700,o),
(314,700,cs)
);
}
);
width = 690;
},
{
anchors = (
{
name = t.uni0946_1_3;
position = "{328, 713}";
}
);
layerId = "757F0D97-04AA-4B34-B6FD-694B5135A2D3";
shapes = (
{
closed = 1;
nodes = (
(100,700,l),
(100,0,l),
(204,0,l),
(204,700,l)
);
},
{
closed = 1;
nodes = (
(644,0,l),
(638,11,o),
(632,24,o),
(624,41,cs),
(613,66,o),
(599,95,o),
(584,127,cs),
(568,159,o),
(553,188,o),
(538,212,cs),
(489,295,o),
(424,339,o),
(310,339,cs),
(268,339,l),
(224,276,l),
(265,276,ls),
(358,276,o),
(405,243,o),
(448,165,cs),
(467,131,o),
(483,99,o),
(496,67,cs),
(510,35,o),
(518,13,o),
(521,0,c)
);
},
{
closed = 1;
nodes = (
(179,700,l),
(179,609,l),
(282,609,ls),
(384,609,o),
(443,561,o),
(443,483,cs),
(443,407,o),
(384,360,o),
(282,360,cs),
(179,360,l),
(179,276,l),
(287,276,l),
(312,310,l),
(330,310,ls),
(420,310,o),
(487,346,o),
(522,404,cs),
(538,432,o),
(547,464,o),
(547,499,cs),
(547,576,o),
(505,640,o),
(424,675,cs),
(384,692,o),
(337,700,o),
(282,700,cs)
);
}
);
width = 654;
},
{
anchors = (
{
name = t.uni0946_1_3;
position = "{328, 713}";
}
);
layerId = "41C2A34C-83CD-4E58-A113-8C77F8A82D56";
shapes = (
{
closed = 1;
nodes = (
(108,700,l),
(108,0,l),
(181,0,l),
(181,700,l)
);
},
{
closed = 1;
nodes = (
(626,0,l),
(621,10,o),
(617,19,o),
(613,26,c),
(602,52,o),
(588,81,o),
(572,115,cs),
(555,149,o),
(539,179,o),
(524,204,cs),
(473,289,o),
(412,334,o),
(301,334,cs),
(245,334,l),
(204,288,l),
(261,288,ls),
(364,288,o),
(414,251,o),
(460,171,cs),
(481,135,o),
(498,102,o),
(512,68,cs),
(526,35,o),
(534,12,o),
(537,0,c)
);
},
{
closed = 1;
nodes = (
(163,700,l),
(163,637,l),
(266,637,ls),
(388,637,o),
(455,583,o),
(455,495,cs),
(455,409,o),
(388,356,o),
(266,356,cs),
(163,356,l),
(163,288,l),
(279,288,l),
(304,318,l),
(322,318,ls),
(408,318,o),
(471,354,o),
(503,410,cs),
(519,438,o),
(527,469,o),
(527,503,cs),
(527,579,o),
(487,641,o),
(408,675,cs),
(368,692,o),
(321,700,o),
(266,700,cs)
);
}
);
width = 636;
}
);
leftKerningGroup = B;
rightKerningGroup = R;
unicode = 82;
}
{
glyphname = S;
layers = (
{
anchors = (
{
name = m.uni0941_2;
position = "{282, 0}";
},
{
name = t.uni0946_1_3;
position = "{277, 710}";
}
);
layerId = "72BDA083-B3C3-4444-A72D-7A06DB42C04D";
shapes = (
{
closed = 1;
nodes = (
(250,564,o),
(220,545,o),
(220,520,cs),
(220,496,o),
(240,476,o),
(272,455,cs),
(364,397,ls),
(456,338,o),
(503,280,o),
(503,199,cs),
(503,158,o),
(494,122,o),
(474,90,cs),
(435,26,o),
(359,-10,o),
(266,-10,cs),
(185,-10,o),
(104,20,o),
(52,63,c),
(52,231,l),
(125,171,o),
(200,136,o),
(266,136,cs),
(305,136,o),
(335,156,o),
(335,189,cs),
(335,215,o),
(315,238,o),
(266,270,cs),
(174,330,ls),
(89,386,o),
(52,438,o),
(52,509,cs),
(52,549,o),
(63,585,o),
(83,615,cs),
(123,676,o),
(198,710,o),
(293,710,cs),
(372,710,o),
(438,690,o),
(475,660,c),
(475,503,l),
(419,541,o),
(351,564,o),
(293,564,cs)
);
}
);
width = 555;
},
{
anchors = (
{
name = m.uni0941_2;
position = "{282, 0}";
},
{
name = t.uni0946_1_3;
position = "{277, 710}";
}
);
layerId = "E5F094ED-45EA-480E-BC3C-862AD7D27802";
shapes = (
{
closed = 1;
nodes = (
(205,619,o),
(165,584,o),
(165,542,cs),
(165,502,o),
(189,469,o),
(250,432,cs),
(333,381,ls),
(426,325,o),
(471,261,o),
(471,181,cs),
(471,143,o),
(463,111,o),
(445,83,cs),
(408,24,o),
(342,-10,o),
(263,-10,cs),
(183,-10,o),
(113,18,o),
(60,63,c),
(60,179,l),
(122,114,o),
(190,81,o),
(263,81,cs),
(327,81,o),
(368,118,o),
(367,171,cs),
(366,215,o),
(336,256,o),
(276,293,cs),
(193,345,ls),
(96,405,o),
(60,457,o),
(60,532,cs),
(60,566,o),
(69,596,o),
(87,624,cs),
(122,678,o),
(188,710,o),
(270,710,cs),
(339,710,o),
(405,690,o),
(445,660,c),
(445,554,l),
(394,596,o),
(336,619,o),
(270,619,cs)
);
}
);
width = 532;
},
{
anchors = (
{
name = m.uni0941_2;
position = "{282, 0}";
},
{
name = t.uni0946_1_3;
position = "{277, 710}";
}
);
layerId = "29E3C8E8-2B44-49C3-BAE8-24201C487834";
shapes = (
{
closed = 1;
nodes = (
(183,647,o),
(137,603,o),
(137,553,cs),
(137,505,o),
(164,465,o),
(239,420,cs),
(317,373,ls),
(411,319,o),
(455,251,o),
(455,172,cs),
(455,136,o),
(447,106,o),
(430,79,cs),
(395,23,o),
(333,-10,o),
(261,-10,cs),
(182,-10,o),
(118,17,o),
(64,63,c),
(64,153,l),
(120,85,o),
(185,53,o),
(261,53,cs),
(338,53,o),
(384,99,o),
(383,162,cs),
(382,215,o),
(347,265,o),
(281,305,cs),
(202,353,ls),
(100,415,o),
(64,466,o),
(64,543,cs),
(64,574,o),
(72,602,o),
(89,629,cs),
(122,679,o),
(183,710,o),
(258,710,cs),
(323,710,o),
(388,690,o),
(430,660,c),
(430,580,l),
(382,623,o),
(329,647,o),
(258,647,cs)
);
}
);
width = 520;
}
);
leftKerningGroup = S;
unicode = 83;
}
{
glyphname = T;
layers = (
{
anchors = (
{
name = m.uni0941_2;
position = "{335, 0}";
},
{
name = t.uni0946_1_3;
position = "{334, 702}";
},
{
name = t.uni0335_2;
position = "{345, 356}";
}
);
layerId = "84F707B8-E6F6-4560-9E91-EBCBB3F7C032";
shapes = (
{
closed = 1;
nodes = (
(419,627,l),
(251,627,l),
(251,0,l),
(419,0,l)
);
},
{
closed = 1;
nodes = (
(650,700,l),
(21,700,l),
(21,553,l),
(650,553,l)
);
}
);
width = 671;
},
{
anchors = (
{
name = m.uni0941_2;
position = "{335, 0}";
},
{
name = t.uni0946_1_3;
position = "{334, 702}";
},
{
name = t.uni0335_2;
position = "{345, 356}";
}
);
layerId = "DF169942-312F-4CB9-BFF4-C95DA1EFA8DD";
shapes = (
{
closed = 1;
nodes = (
(372,659,l),
(267,659,l),
(267,0,l),
(372,0,l)
);
},
{
closed = 1;
nodes = (
(618,700,l),
(21,700,l),
(21,609,l),
(618,609,l)
);
}
);
width = 639;
},
{
anchors = (
{
name = m.uni0941_2;
position = "{335, 0}";
},
{
name = t.uni0946_1_3;
position = "{334, 702}";
},
{
name = t.uni0335_2;
position = "{345, 356}";
}
);
layerId = "85DC3871-BA98-4DCB-A963-6B42D2E15F96";
shapes = (
{
closed = 1;
nodes = (
(348,675,l),
(275,675,l),
(275,0,l),
(348,0,l)
);
},
{
closed = 1;
nodes = (
(602,700,l),
(21,700,l),
(21,637,l),
(602,637,l)
);
}
);
width = 623;
}
);
leftKerningGroup = T;
rightKerningGroup = T2;
unicode = 84;
}
{
glyphname = U;
layers = (
{
anchors = (
{
name = m.uni0941_2;
position = "{409, -10}";
},
{
name = t.uni0946_1_3;
position = "{410, 702}";
},
{
name = m.uni0328_2;
position = "{527, 6}";
},
{
name = t.uni031B_3;
position = "{698, 700}";
}
);
layerId = "72BDA083-B3C3-4444-A72D-7A06DB42C04D";
shapes = (
{
closed = 1;
nodes = (
(745,307,ls),
(745,241,o),
(731,183,o),
(704,136,cs),
(649,40,o),
(544,-10,o),
(410,-10,cs),
(343,-10,o),
(284,2,o),
(234,27,cs),
(133,76,o),
(75,174,o),
(75,307,cs),
(75,699,l),
(243,699,l),
(243,308,ls),
(243,256,o),
(259,214,o),
(289,183,cs),
(320,152,o),
(359,136,o),
(410,136,cs),
(460,136,o),
(501,152,o),
(531,183,cs),
(562,214,o),
(577,256,o),
(577,308,cs),
(577,699,l),
(745,699,l)
);
}
);
width = 821;
},
{
anchors = (
{
name = m.uni0941_2;
position = "{409, -10}";
},
{
name = t.uni0946_1_3;
position = "{410, 702}";
},
{
name = m.uni0328_2;
position = "{527, 6}";
},
{
name = t.uni031B_3;
position = "{698, 700}";
}
);
layerId = "E5F094ED-45EA-480E-BC3C-862AD7D27802";
shapes = (
{
closed = 1;
nodes = (
(728,291,ls),
(728,228,o),
(714,174,o),
(688,129,cs),
(636,39,o),
(536,-10,o),
(409,-10,cs),
(344,-10,o),
(289,1,o),
(241,26,c),
(145,72,o),
(90,164,o),
(90,291,cs),
(90,699,l),
(194,699,l),
(194,292,ls),
(194,228,o),
(213,178,o),
(251,139,cs),
(289,101,o),
(341,81,o),
(409,81,cs),
(475,81,o),
(528,101,o),
(566,139,cs),
(605,178,o),
(623,228,o),
(623,292,cs),
(623,699,l),
(728,699,l)
);
}
);
width = 817;
},
{
anchors = (
{
name = m.uni0941_2;
position = "{409, -10}";
},
{
name = t.uni0946_1_3;
position = "{410, 702}";
},
{
name = m.uni0328_2;
position = "{527, 6}";
},
{
name = t.uni031B_3;
position = "{698, 700}";
}
);
layerId = "29E3C8E8-2B44-49C3-BAE8-24201C487834";
shapes = (
{
closed = 1;
nodes = (
(719,283,ls),
(719,222,o),
(706,169,o),
(680,126,c),
(630,38,o),
(532,-10,o),
(408,-10,cs),
(345,-10,o),
(291,1,o),
(244,25,cs),
(151,70,o),
(97,159,o),
(97,283,cs),
(97,699,l),
(169,699,l),
(169,284,ls),
(169,214,o),
(190,160,o),
(232,117,cs),
(273,75,o),
(332,53,o),
(408,53,cs),
(483,53,o),
(542,75,o),
(583,117,cs),
(626,160,o),
(646,214,o),
(646,284,cs),
(646,699,l),
(719,699,l)
);
}
);
width = 815;
}
);
leftKerningGroup = U2;
rightKerningGroup = U;
unicode = 85;
}
{
glyphname = V;
layers = (
{
layerId = "72BDA083-B3C3-4444-A72D-7A06DB42C04D";
shapes = (
{
closed = 1;
nodes = (
(440,-10,l),
(356,-10,l),
(10,700,l),
(210,700,l),
(398,262,l),
(587,700,l),
(786,700,l)
);
}
);
width = 796;
},
{
layerId = "E5F094ED-45EA-480E-BC3C-862AD7D27802";
shapes = (
{
closed = 1;
nodes = (
(417,-10,l),
(364,-10,l),
(18,700,l),
(138,700,l),
(391,159,l),
(642,700,l),
(762,700,l)
);
}
);
width = 780;
},
{
layerId = "29E3C8E8-2B44-49C3-BAE8-24201C487834";
shapes = (
{
closed = 1;
nodes = (
(405,-10,l),
(368,-10,l),
(22,700,l),
(102,700,l),
(387,108,l),
(670,700,l),
(750,700,l)
);
}
);
width = 772;
}
);
leftKerningGroup = V;
rightKerningGroup = V2;
unicode = 86;
}
{
glyphname = W;
layers = (
{
anchors = (
{
name = m.uni0941_2;
position = "{634, 0}";
},
{
name = t.uni0946_1_3;
position = "{635, 700}";
}
);
layerId = "62CCE428-27AF-4174-8C32-8EDF06C2E6AE";
shapes = (
{
closed = 1;
nodes = (
(1257,700,l),
(922,-10,l),
(838,-10,l),
(634,511,l),
(430,-10,l),
(346,-10,l),
(10,700,l),
(210,700,l),
(388,272,l),
(545,700,l),
(723,700,l),
(880,272,l),
(1058,700,l)
);
}
);
width = 1268;
},
{
anchors = (
{
name = m.uni0941_2;
position = "{634, 0}";
},
{
name = t.uni0946_1_3;
position = "{635, 700}";
}
);
layerId = "7A295977-FA7A-4808-B07F-0795E8A98AF6";
shapes = (
{
closed = 1;
nodes = (
(1234,700,l),
(906,-10,l),
(854,-10,l),
(627,574,l),
(398,-10,l),
(346,-10,l),
(18,700,l),
(138,700,l),
(372,169,l),
(568,700,l),
(684,700,l),
(880,169,l),
(1114,700,l)
);
}
);
width = 1252;
},
{
anchors = (
{
name = m.uni0941_2;
position = "{634, 0}";
},
{
name = t.uni0946_1_3;
position = "{635, 700}";
}
);
layerId = "FBBD23DC-4A32-4E17-882F-E93472546798";
shapes = (
{
closed = 1;
nodes = (
(1222,700,l),
(898,-10,l),
(862,-10,l),
(623,606,l),
(382,-10,l),
(346,-10,l),
(22,700,l),
(102,700,l),
(364,118,l),
(580,700,l),
(664,700,l),
(880,118,l),
(1142,700,l)
);
}
);
width = 1244;
}
);
leftKerningGroup = V;
rightKerningGroup = V2;
unicode = 87;
}
{
glyphname = X;
layers = (
{
layerId = "84F707B8-E6F6-4560-9E91-EBCBB3F7C032";
shapes = (
{
closed = 1;
nodes = (
(503,371,l),
(765,700,l),
(555,700,l),
(398,483,l),
(241,700,l),
(31,700,l),
(293,371,l),
(10,0,l),
(220,0,l),
(398,259,l),
(576,0,l),
(786,0,l)
);
}
);
width = 796;
},
{
layerId = "DF169942-312F-4CB9-BFF4-C95DA1EFA8DD";
shapes = (
{
closed = 1;
nodes = (
(440,371,l),
(694,700,l),
(563,700,l),
(366,436,l),
(170,700,l),
(39,700,l),
(293,371,l),
(18,0,l),
(149,0,l),
(366,306,l),
(584,0,l),
(715,0,l)
);
}
);
width = 733;
},
{
layerId = "85DC3871-BA98-4DCB-A963-6B42D2E15F96";
shapes = (
{
closed = 1;
nodes = (
(408,371,l),
(658,700,l),
(567,700,l),
(350,412,l),
(134,700,l),
(43,700,l),
(293,371,l),
(22,0,l),
(113,0,l),
(350,330,l),
(588,0,l),
(679,0,l)
);
}
);
width = 702;
}
);
unicode = 88;
}
{
glyphname = Y;
layers = (
{
anchors = (
{
name = m.uni0941_2;
position = "{336, 0}";
},
{
name = t.uni0946_1_3;
position = "{336, 702}";
}
);
layerId = "72BDA083-B3C3-4444-A72D-7A06DB42C04D";
shapes = (
{
closed = 1;
nodes = (
(660,700,l),
(419,350,l),
(419,0,l),
(251,0,l),
(251,350,l),
(10,700,l),
(220,700,l),
(335,494,l),
(451,700,l)
);
}
);
width = 671;
},
{
anchors = (
{
name = m.uni0941_2;
position = "{336, 0}";
},
{
name = t.uni0946_1_3;
position = "{336, 702}";
}
);
layerId = "E5F094ED-45EA-480E-BC3C-862AD7D27802";
shapes = (
{
closed = 1;
nodes = (
(605,700,l),
(364,350,l),
(364,0,l),
(259,0,l),
(259,350,l),
(18,700,l),
(149,700,l),
(312,447,l),
(474,700,l)
);
}
);
width = 624;
},
{
anchors = (
{
name = m.uni0941_2;
position = "{336, 0}";
},
{
name = t.uni0946_1_3;
position = "{336, 702}";
}
);
layerId = "29E3C8E8-2B44-49C3-BAE8-24201C487834";
shapes = (
{
closed = 1;
nodes = (
(577,700,l),
(336,350,l),
(336,0,l),
(263,0,l),
(263,350,l),
(22,700,l),
(113,700,l),
(300,423,l),
(486,700,l)
);
}
);
width = 600;
}
);
leftKerningGroup = Y;
rightKerningGroup = Y2;
unicode = 89;
}
{
glyphname = Z;
layers = (
{
anchors = (
{
name = m.uni0941_2;
position = "{359, 0}";
},
{
name = t.uni0946_1_3;
position = "{344, 700}";
}
);
layerId = "84F707B8-E6F6-4560-9E91-EBCBB3F7C032";
shapes = (
{
closed = 1;
nodes = (
(291,108,l),
(692,700,l),
(52,700,l),
(52,553,l),
(442,553,l),
(421,592,l),
(21,0,l),
(692,0,l),
(692,147,l),
(270,147,l)
);
}
);
width = 713;
},
{
anchors = (
{
name = m.uni0941_2;
position = "{359, 0}";
},
{
name = t.uni0946_1_3;
position = "{344, 700}";
}
);
layerId = "DF169942-312F-4CB9-BFF4-C95DA1EFA8DD";
shapes = (
{
closed = 1;
nodes = (
(196,53,l),
(652,700,l),
(60,700,l),
(60,609,l),
(514,609,l),
(494,647,l),
(37,0,l),
(652,0,l),
(652,91,l),
(175,91,l)
);
}
);
width = 689;
},
{
anchors = (
{
name = m.uni0941_2;
position = "{359, 0}";
},
{
name = t.uni0946_1_3;
position = "{344, 700}";
}
);
layerId = "85DC3871-BA98-4DCB-A963-6B42D2E15F96";
shapes = (
{
closed = 1;
nodes = (
(148,25,l),
(632,700,l),
(64,700,l),
(64,637,l),
(550,637,l),
(530,675,l),
(45,0,l),
(632,0,l),
(632,63,l),
(128,63,l)
);
}
);
width = 677;
}
);
leftKerningGroup = Z2;
rightKerningGroup = Z;
unicode = 90;
}
{
glyphname = bracketright;
layers = (
{
layerId = "84F707B8-E6F6-4560-9E91-EBCBB3F7C032";
shapes = (
{
closed = 1;
nodes = (
(335,-168,l),
(335,848,l),
(63,848,l),
(63,743,l),
(212,743,l),
(212,-63,l),
(63,-63,l),
(63,-168,l)
);
}
);
width = 398;
},
{
layerId = "DF169942-312F-4CB9-BFF4-C95DA1EFA8DD";
shapes = (
{
closed = 1;
nodes = (
(303,-168,l),
(303,848,l),
(63,848,l),
(63,775,l),
(219,775,l),
(219,-95,l),
(63,-95,l),
(63,-168,l)
);
}
);
width = 366;
},
{
layerId = "85DC3871-BA98-4DCB-A963-6B42D2E15F96";
shapes = (
{
closed = 1;
nodes = (
(287,-168,l),
(287,848,l),
(63,848,l),
(63,791,l),
(223,791,l),
(223,-111,l),
(63,-111,l),
(63,-168,l)
);
}
);
width = 350;
}
);
unicode = 93;
}
{
glyphname = asciicircum;
layers = (
{
layerId = "578F755D-994C-42C1-BB23-8F906AA68774";
shapes = (
{
closed = 1;
nodes = (
(224,744,l),
(84,493,l),
(199,493,l),
(277,629,l),
(348,493,l),
(463,493,l),
(329,744,l)
);
}
);
width = 547;
},
{
layerId = "DBD1B0BE-353E-4EBF-B6EE-D0152B0FB6BB";
shapes = (
{
closed = 1;
nodes = (
(224,744,l),
(84,493,l),
(176,493,l),
(261,640,l),
(340,493,l),
(431,493,l),
(297,744,l)
);
}
);
width = 515;
},
{
layerId = "EEBEDCE0-4D70-4EE0-A037-F223D2B7A84D";
shapes = (
{
closed = 1;
nodes = (
(224,744,l),
(84,493,l),
(164,493,l),
(253,646,l),
(336,493,l),
(415,493,l),
(281,744,l)
);
}
);
width = 499;
}
);
unicode = 94;
}
{
glyphname = underscore;
layers = (
{
layerId = "198774C1-CC10-42B9-85F8-E7CE679A5159";
shapes = (
{
closed = 1;
nodes = (
(10,-105,l),
(10,-189,l),
(587,-189,l),
(587,-105,l)
);
}
);
width = 597;
},
{
layerId = "D316A020-56DB-4308-AD51-D49B9BC7B732";
shapes = (
{
closed = 1;
nodes = (
(10,-121,l),
(10,-189,l),
(587,-189,l),
(587,-121,l)
);
}
);
width = 597;
},
{
layerId = "DA1743F1-FF62-465F-8D09-7851030965A4";
shapes = (
{
closed = 1;
nodes = (
(10,-129,l),
(10,-189,l),
(587,-189,l),
(587,-129,l)
);
}
);
width = 597;
}
);
unicode = 95;
}
{
glyphname = a;
layers = (
{
anchors = (
{
name = m.uni0941_2;
position = "{273, 0}";
},
{
name = t.uni0946_1_3;
position = "{286, 511}";
},
{
name = m.uni0328_2;
position = "{508, -2}";
}
);
layerId = "72BDA083-B3C3-4444-A72D-7A06DB42C04D";
shapes = (
{
closed = 1;
nodes = (
(362,-11,o),
(328,25,o),
(328,106,cs),
(328,311,ls),
(328,352,o),
(306,373,o),
(254,373,cs),
(225,373,o),
(194,367,o),
(158,358,cs),
(122,347,o),
(90,334,o),
(64,320,c),
(64,457,l),
(91,473,o),
(123,486,o),
(158,495,cs),
(193,505,o),
(232,510,o),
(275,510,cs),
(406,510,o),
(487,438,o),
(487,321,cs),
(487,140,ls),
(487,117,o),
(495,106,o),
(515,106,cs),
(527,106,o),
(539,108,o),
(550,111,c),
(550,11,l),
(521,-1,o),
(476,-11,o),
(434,-11,cs)
);
},
{
closed = 1;
nodes = (
(98,-11,o),
(42,41,o),
(42,117,cs),
(42,197,o),
(111,257,o),
(237,286,cs),
(302,302,o),
(355,308,o),
(392,309,c),
(392,242,l),
(341,237,o),
(297,228,o),
(261,213,cs),
(223,197,o),
(201,175,o),
(201,149,cs),
(201,123,o),
(220,106,o),
(249,106,cs),
(295,106,o),
(345,133,o),
(392,185,c),
(392,101,l),
(366,69,o),
(336,42,o),
(301,21,cs),
(266,0,o),
(225,-11,o),
(180,-11,cs)
);
}
);
width = 561;
},
{
anchors = (
{
name = m.uni0941_2;
position = "{273, 0}";
},
{
name = t.uni0946_1_3;
position = "{286, 511}";
},
{
name = m.uni0328_2;
position = "{508, -2}";
}
);
layerId = "E5F094ED-45EA-480E-BC3C-862AD7D27802";
shapes = (
{
closed = 1;
nodes = (
(373,-11,o),
(349,20,o),
(349,82,cs),
(349,311,ls),
(349,391,o),
(319,424,o),
(254,424,cs),
(224,424,o),
(194,418,o),
(162,407,cs),
(129,396,o),
(99,381,o),
(71,364,c),
(71,457,l),
(92,472,o),
(120,484,o),
(154,494,cs),
(189,505,o),
(224,510,o),
(259,510,cs),
(381,510,o),
(447,445,o),
(447,321,cs),
(447,102,ls),
(447,78,o),
(454,70,o),
(474,70,cs),
(488,70,o),
(503,73,o),
(518,79,c),
(518,11,l),
(496,0,o),
(457,-11,o),
(426,-11,cs)
);
},
{
closed = 1;
nodes = (
(105,-11,o),
(50,38,o),
(50,113,cs),
(50,195,o),
(108,246,o),
(234,280,cs),
(301,299,o),
(370,309,o),
(408,311,c),
(408,254,l),
(360,250,o),
(308,238,o),
(253,219,cs),
(180,194,o),
(149,166,o),
(149,125,cs),
(149,90,o),
(175,70,o),
(216,70,cs),
(282,70,o),
(356,110,o),
(408,173,c),
(408,108,l),
(383,75,o),
(351,47,o),
(310,24,cs),
(270,1,o),
(228,-11,o),
(184,-11,cs)
);
}
);
width = 537;
},
{
anchors = (
{
name = m.uni0941_2;
position = "{273, 0}";
},
{
name = t.uni0946_1_3;
position = "{286, 511}";
},
{
name = m.uni0328_2;
position = "{508, -2}";
}
);
layerId = "29E3C8E8-2B44-49C3-BAE8-24201C487834";
shapes = (
{
closed = 1;
nodes = (
(378,-11,o),
(359,18,o),
(359,70,cs),
(359,311,ls),
(359,410,o),
(325,450,o),
(254,450,cs),
(224,450,o),
(194,444,o),
(164,432,c),
(132,421,o),
(104,404,o),
(75,386,c),
(75,457,l),
(92,471,o),
(118,483,o),
(152,494,cs),
(187,505,o),
(220,510,o),
(251,510,cs),
(368,510,o),
(427,448,o),
(427,321,cs),
(427,83,ls),
(427,59,o),
(433,52,o),
(453,52,cs),
(468,52,o),
(485,55,o),
(502,63,c),
(502,11,l),
(484,1,o),
(447,-11,o),
(422,-11,cs)
);
},
{
closed = 1;
nodes = (
(109,-11,o),
(54,36,o),
(54,111,cs),
(54,194,o),
(106,241,o),
(232,277,c),
(301,297,o),
(377,309,o),
(416,312,c),
(416,260,l),
(370,256,o),
(314,243,o),
(249,222,cs),
(158,192,o),
(123,161,o),
(123,113,cs),
(123,73,o),
(152,52,o),
(200,52,cs),
(276,52,o),
(361,99,o),
(416,167,c),
(416,112,l),
(391,78,o),
(358,50,o),
(315,26,cs),
(272,1,o),
(230,-11,o),
(186,-11,cs)
);
}
);
width = 525;
}
);
leftKerningGroup = a2;
rightKerningGroup = a;
unicode = 97;
}
{
glyphname = b;
layers = (
{
layerId = "62CCE428-27AF-4174-8C32-8EDF06C2E6AE";
shapes = (
{
closed = 1;
nodes = (
(222,758,l),
(222,85,l),
(64,85,l),
(64,758,l)
);
},
{
closed = 1;
nodes = (
(64,180,l),
(112,161,o),
(152,148,o),
(183,140,cs),
(214,131,o),
(249,127,o),
(286,127,cs),
(327,127,o),
(361,138,o),
(386,161,cs),
(411,184,o),
(423,213,o),
(423,249,cs),
(423,286,o),
(412,316,o),
(389,339,cs),
(366,362,o),
(335,373,o),
(296,373,cs),
(240,373,o),
(187,352,o),
(148,317,c),
(148,392,l),
(183,465,o),
(250,510,o),
(338,510,cs),
(385,510,o),
(426,499,o),
(463,478,c),
(536,434,o),
(582,353,o),
(582,249,cs),
(582,198,o),
(570,153,o),
(545,114,cs),
(496,34,o),
(403,-10,o),
(286,-10,cs),
(199,-10,o),
(123,10,o),
(64,42,c)
);
}
);
width = 614;
},
{
layerId = "7A295977-FA7A-4808-B07F-0795E8A98AF6";
shapes = (
{
closed = 1;
nodes = (
(178,758,l),
(178,69,l),
(80,69,l),
(80,758,l)
);
},
{
closed = 1;
nodes = (
(80,128,l),
(123,110,o),
(159,97,o),
(191,89,c),
(222,80,o),
(256,76,o),
(293,76,cs),
(348,76,o),
(392,91,o),
(425,123,cs),
(458,155,o),
(475,197,o),
(475,249,cs),
(475,302,o),
(461,345,o),
(430,377,c),
(401,409,o),
(362,424,o),
(312,424,cs),
(243,424,o),
(173,395,o),
(129,350,c),
(129,415,l),
(172,470,o),
(243,510,o),
(331,510,cs),
(378,510,o),
(421,499,o),
(458,478,c),
(531,434,o),
(575,353,o),
(575,249,cs),
(575,198,o),
(563,153,o),
(540,114,cs),
(493,34,o),
(404,-10,o),
(293,-10,cs),
(209,-10,o),
(144,10,o),
(80,42,c)
);
}
);
width = 621;
},
{
layerId = "FBBD23DC-4A32-4E17-882F-E93472546798";
shapes = (
{
closed = 1;
nodes = (
(156,758,l),
(156,61,l),
(88,61,l),
(88,758,l)
);
},
{
closed = 1;
nodes = (
(88,102,l),
(128,85,o),
(163,72,o),
(195,63,cs),
(226,54,o),
(260,50,o),
(297,50,cs),
(359,50,o),
(408,68,o),
(445,104,cs),
(482,141,o),
(501,189,o),
(501,249,cs),
(501,310,o),
(485,359,o),
(451,396,cs),
(418,432,o),
(375,450,o),
(320,450,cs),
(245,450,o),
(166,417,o),
(119,366,c),
(119,427,l),
(167,473,o),
(239,510,o),
(327,510,cs),
(375,510,o),
(418,499,o),
(455,478,cs),
(529,434,o),
(571,353,o),
(571,249,cs),
(571,198,o),
(560,153,o),
(537,114,cs),
(491,34,o),
(405,-10,o),
(297,-10,cs),
(214,-10,o),
(154,10,o),
(88,42,c)
);
}
);
width = 625;
}
);
rightKerningGroup = b;
unicode = 98;
}
{
glyphname = c;
layers = (
{
anchors = (
{
name = m.uni0941_2;
position = "{315, -2}";
},
{
name = t.uni0946_1_3;
position = "{315, 509}";
}
);
layerId = "578F755D-994C-42C1-BB23-8F906AA68774";
shapes = (
{
closed = 1;
nodes = (
(476,180,l),
(439,146,o),
(392,127,o),
(328,127,cs),
(287,127,o),
(253,139,o),
(229,161,c),
(203,183,o),
(191,213,o),
(191,250,cs),
(191,287,o),
(203,316,o),
(229,339,cs),
(253,361,o),
(287,373,o),
(328,373,cs),
(391,373,o),
(432,357,o),
(471,330,c),
(471,468,l),
(438,490,o),
(381,510,o),
(296,510,cs),
(196,510,o),
(112,465,o),
(67,386,c),
(43,347,o),
(32,302,o),
(32,250,cs),
(32,147,o),
(80,66,o),
(161,22,cs),
(201,0,o),
(247,-11,o),
(296,-11,cs),
(382,-11,o),
(446,13,o),
(476,42,c)
);
}
);
width = 529;
},
{
anchors = (
{
name = m.uni0941_2;
position = "{315, -2}";
},
{
name = t.uni0946_1_3;
position = "{315, 509}";
}
);
layerId = "DBD1B0BE-353E-4EBF-B6EE-D0152B0FB6BB";
shapes = (
{
closed = 1;
nodes = (
(509,144,l),
(466,101,o),
(400,75,o),
(328,75,cs),
(274,75,o),
(230,90,o),
(196,122,cs),
(163,154,o),
(146,197,o),
(146,250,cs),
(146,303,o),
(163,345,o),
(196,378,c),
(230,408,o),
(274,424,o),
(328,424,cs),
(398,424,o),
(459,400,o),
(503,358,c),
(503,452,l),
(461,487,o),
(396,510,o),
(320,510,cs),
(213,510,o),
(128,466,o),
(83,386,cs),
(60,347,o),
(48,302,o),
(48,250,cs),
(48,147,o),
(96,65,o),
(178,22,cs),
(219,0,o),
(268,-11,o),
(320,-11,cs),
(398,-11,o),
(471,14,o),
(509,50,c)
);
}
);
width = 553;
},
{
anchors = (
{
name = m.uni0941_2;
position = "{315, -2}";
},
{
name = t.uni0946_1_3;
position = "{315, 509}";
}
);
layerId = "EEBEDCE0-4D70-4EE0-A037-F223D2B7A84D";
shapes = (
{
closed = 1;
nodes = (
(525,126,l),
(480,79,o),
(404,49,o),
(328,49,cs),
(268,49,o),
(218,66,o),
(180,103,cs),
(143,140,o),
(124,189,o),
(124,250,cs),
(124,311,o),
(143,360,o),
(180,397,c),
(218,432,o),
(268,450,o),
(328,450,cs),
(402,450,o),
(473,421,o),
(519,372,c),
(519,444,l),
(472,485,o),
(404,510,o),
(332,510,cs),
(222,510,o),
(136,466,o),
(91,386,cs),
(68,347,o),
(56,302,o),
(56,250,cs),
(56,147,o),
(104,65,o),
(187,22,cs),
(228,0,o),
(278,-11,o),
(332,-11,cs),
(406,-11,o),
(483,15,o),
(525,54,c)
);
}
);
width = 565;
}
);
leftKerningGroup = c2;
rightKerningGroup = c;
unicode = 99;
}
{
glyphname = d;
layers = (
{
anchors = (
{
name = m.uni0941_2;
position = "{315, 0}";
},
{
name = t.uni0946_1_3;
position = "{178, 532}";
},
{
name = t.uni0335_2;
position = "{474, 628}";
},
{
name = t.uni031B_3;
position = "{699, 800}";
}
);
layerId = "72BDA083-B3C3-4444-A72D-7A06DB42C04D";
shapes = (
{
closed = 1;
nodes = (
(223,-11,o),
(184,0,o),
(149,22,cs),
(77,66,o),
(32,148,o),
(32,250,cs),
(32,301,o),
(42,346,o),
(65,385,cs),
(108,465,o),
(188,510,o),
(280,510,cs),
(365,510,o),
(421,491,o),
(455,460,c),
(455,328,l),
(422,358,o),
(382,373,o),
(323,373,cs),
(284,373,o),
(252,361,o),
(228,339,cs),
(203,316,o),
(191,287,o),
(191,250,cs),
(191,213,o),
(202,183,o),
(225,161,cs),
(249,139,o),
(279,127,o),
(318,127,cs),
(368,127,o),
(408,156,o),
(434,212,c),
(434,138,l),
(427,114,o),
(417,92,o),
(404,70,cs),
(379,26,o),
(332,-11,o),
(265,-11,cs)
);
},
{
closed = 1;
nodes = (
(392,758,l),
(550,758,l),
(550,0,l),
(392,0,l)
);
}
);
width = 614;
},
{
anchors = (
{
name = m.uni0941_2;
position = "{315, 0}";
},
{
name = t.uni0946_1_3;
position = "{178, 532}";
},
{
name = t.uni0335_2;
position = "{474, 628}";
},
{
name = t.uni031B_3;
position = "{699, 800}";
}
);
layerId = "E5F094ED-45EA-480E-BC3C-862AD7D27802";
shapes = (
{
closed = 1;
nodes = (
(242,-11,o),
(201,0,o),
(164,22,cs),
(91,65,o),
(48,147,o),
(48,250,cs),
(48,302,o),
(59,347,o),
(81,386,c),
(124,466,o),
(207,510,o),
(309,510,cs),
(400,510,o),
(458,486,o),
(491,456,c),
(491,377,l),
(455,405,o),
(398,424,o),
(327,424,cs),
(273,424,o),
(229,408,o),
(196,378,c),
(163,345,o),
(146,303,o),
(146,250,cs),
(146,197,o),
(161,155,o),
(192,123,cs),
(222,92,o),
(261,75,o),
(310,75,cs),
(386,75,o),
(446,111,o),
(490,184,c),
(490,126,l),
(485,105,o),
(474,83,o),
(455,63,c),
(419,21,o),
(357,-11,o),
(288,-11,cs)
);
},
{
closed = 1;
nodes = (
(443,758,l),
(543,758,l),
(543,0,l),
(443,0,l)
);
}
);
width = 621;
},
{
anchors = (
{
name = m.uni0941_2;
position = "{315, 0}";
},
{
name = t.uni0946_1_3;
position = "{178, 532}";
},
{
name = t.uni0335_2;
position = "{474, 628}";
},
{
name = t.uni031B_3;
position = "{699, 800}";
}
);
layerId = "29E3C8E8-2B44-49C3-BAE8-24201C487834";
shapes = (
{
closed = 1;
nodes = (
(252,-11,o),
(209,0,o),
(172,22,cs),
(98,65,o),
(56,147,o),
(56,250,cs),
(56,302,o),
(67,347,o),
(89,386,cs),
(132,466,o),
(216,510,o),
(323,510,cs),
(417,510,o),
(477,483,o),
(509,454,c),
(509,401,l),
(472,429,o),
(406,450,o),
(329,450,cs),
(268,450,o),
(218,432,o),
(180,397,c),
(143,360,o),
(124,311,o),
(124,250,cs),
(124,189,o),
(141,141,o),
(175,104,cs),
(208,68,o),
(252,49,o),
(306,49,cs),
(395,49,o),
(465,89,o),
(518,170,c),
(518,120,l),
(514,100,o),
(502,78,o),
(481,59,c),
(439,18,o),
(369,-11,o),
(300,-11,cs)
);
},
{
closed = 1;
nodes = (
(469,758,l),
(539,758,l),
(539,0,l),
(469,0,l)
);
}
);
width = 625;
}
);
leftKerningGroup = c2;
unicode = 100;
}
{
glyphname = e;
layers = (
{
anchors = (
{
name = m.uni0941_2;
position = "{309, -8}";
},
{
name = t.uni0946_1_3;
position = "{302, 510}";
},
{
name = m.uni0328_2;
position = "{429, 3}";
}
);
layerId = "268DAC57-E2A2-4703-9B87-2E4F83AD2FBF";
shapes = (
{
closed = 1;
nodes = (
(439,297,l),
(144,297,l),
(144,218,l),
(550,218,l),
(556,277,o),
(547,344,o),
(514,398,cs),
(495,429,o),
(468,455,o),
(432,477,cs),
(395,500,o),
(351,510,o),
(302,510,cs),
(197,510,o),
(112,466,o),
(67,386,c),
(43,347,o),
(32,302,o),
(32,250,cs),
(32,147,o),
(82,65,o),
(168,22,cs),
(212,0,o),
(261,-11,o),
(318,-11,cs),
(402,-11,o),
(475,12,o),
(519,42,c),
(519,169,l),
(485,156,o),
(455,145,o),
(430,138,cs),
(403,130,o),
(374,127,o),
(339,127,cs),
(292,127,o),
(256,138,o),
(231,159,c),
(204,179,o),
(192,210,o),
(191,249,c),
(192,282,l),
(199,340,o),
(242,383,o),
(302,383,cs),
(345,383,o),
(380,362,o),
(397,326,c),
(404,308,o),
(408,288,o),
(405,266,c)
);
}
);
width = 583;
},
{
anchors = (
{
name = m.uni0941_2;
position = "{309, -8}";
},
{
name = t.uni0946_1_3;
position = "{302, 510}";
},
{
name = m.uni0328_2;
position = "{429, 3}";
}
);
layerId = "295DBF72-63CE-4360-AA06-723F1178BFCA";
shapes = (
{
closed = 1;
nodes = (
(503,293,l),
(112,293,l),
(112,226,l),
(549,226,l),
(552,282,o),
(541,343,o),
(517,387,cs),
(500,420,o),
(473,448,o),
(438,473,cs),
(402,498,o),
(358,510,o),
(306,510,cs),
(206,510,o),
(124,466,o),
(82,386,c),
(59,347,o),
(48,302,o),
(48,250,cs),
(48,147,o),
(97,65,o),
(178,22,cs),
(218,0,o),
(265,-11,o),
(318,-11,cs),
(403,-11,o),
(480,17,o),
(519,50,c),
(519,137,l),
(492,119,o),
(463,104,o),
(432,92,cs),
(401,81,o),
(367,75,o),
(331,75,cs),
(275,75,o),
(231,91,o),
(198,122,c),
(164,152,o),
(147,195,o),
(146,249,c),
(147,274,l),
(155,367,o),
(218,427,o),
(306,427,cs),
(366,427,o),
(415,397,o),
(440,343,cs),
(451,318,o),
(457,287,o),
(455,254,c)
);
}
);
width = 589;
},
{
anchors = (
{
name = m.uni0941_2;
position = "{309, -8}";
},
{
name = t.uni0946_1_3;
position = "{302, 510}";
},
{
name = m.uni0328_2;
position = "{429, 3}";
}
);
layerId = "3548BA04-AEF4-4D65-BB36-2983657EE332";
shapes = (
{
closed = 1;
nodes = (
(535,291,l),
(96,291,l),
(96,230,l),
(548,230,l),
(550,284,o),
(538,342,o),
(519,382,c),
(502,415,o),
(476,445,o),
(441,471,cs),
(406,497,o),
(362,510,o),
(308,510,cs),
(211,510,o),
(130,466,o),
(89,386,c),
(67,347,o),
(56,302,o),
(56,250,cs),
(56,147,o),
(104,65,o),
(183,22,c),
(221,0,o),
(267,-11,o),
(318,-11,cs),
(403,-11,o),
(482,19,o),
(519,54,c),
(519,121,l),
(495,100,o),
(467,83,o),
(433,69,cs),
(400,56,o),
(364,49,o),
(327,49,cs),
(267,49,o),
(219,67,o),
(181,103,cs),
(144,139,o),
(125,188,o),
(124,249,c),
(125,270,ls),
(133,381,o),
(206,449,o),
(308,449,cs),
(376,449,o),
(433,414,o),
(461,352,cs),
(475,323,o),
(481,287,o),
(480,248,c)
);
}
);
width = 592;
}
);
leftKerningGroup = c2;
rightKerningGroup = e;
unicode = 101;
}
{
glyphname = f;
layers = (
{
layerId = "62CCE428-27AF-4174-8C32-8EDF06C2E6AE";
shapes = (
{
closed = 1;
nodes = (
(106,553,ls),
(106,712,o),
(193,800,o),
(349,800,cs),
(395,800,o),
(435,789,o),
(455,779,c),
(455,641,l),
(431,654,o),
(403,663,o),
(370,663,cs),
(300,663,o),
(265,626,o),
(265,553,cs),
(265,0,l),
(106,0,l)
);
},
{
closed = 1;
nodes = (
(434,500,l),
(434,362,l),
(248,362,l),
(248,500,l)
);
},
{
closed = 1;
nodes = (
(21,362,l),
(21,500,l),
(123,500,l),
(123,362,l)
);
}
);
width = 466;
},
{
layerId = "7A295977-FA7A-4808-B07F-0795E8A98AF6";
shapes = (
{
closed = 1;
nodes = (
(113,585,ls),
(113,723,o),
(188,800,o),
(326,800,cs),
(371,800,o),
(411,789,o),
(431,779,c),
(431,693,l),
(409,705,o),
(372,714,o),
(338,714,cs),
(254,714,o),
(213,672,o),
(213,585,cs),
(213,0,l),
(113,0,l)
);
},
{
closed = 1;
nodes = (
(410,500,l),
(410,414,l),
(193,414,l),
(193,500,l)
);
},
{
closed = 1;
nodes = (
(29,414,l),
(29,500,l),
(130,500,l),
(130,414,l)
);
}
);
width = 442;
},
{
layerId = "FBBD23DC-4A32-4E17-882F-E93472546798";
shapes = (
{
closed = 1;
nodes = (
(117,601,ls),
(117,729,o),
(186,800,o),
(314,800,cs),
(359,800,o),
(399,789,o),
(419,779,c),
(419,719,l),
(398,731,o),
(356,740,o),
(322,740,cs),
(231,740,o),
(187,695,o),
(187,601,cs),
(187,0,l),
(117,0,l)
);
},
{
closed = 1;
nodes = (
(398,500,l),
(398,440,l),
(165,440,l),
(165,500,l)
);
},
{
closed = 1;
nodes = (
(33,440,l),
(33,500,l),
(133,500,l),
(133,440,l)
);
}
);
width = 430;
}
);
leftKerningGroup = f2;
rightKerningGroup = f;
unicode = 102;
}
{
glyphname = g;
layers = (
{
anchors = (
{
name = m.uni0941_2;
position = "{274, -257}";
},
{
name = t.uni0946_1_3;
position = "{284, 500}";
}
);
layerId = "268DAC57-E2A2-4703-9B87-2E4F83AD2FBF";
shapes = (
{
closed = 1;
nodes = (
(360,500,l),
(268,500,o),
(215,495,o),
(173,482,cs),
(96,457,o),
(50,398,o),
(50,329,cs),
(50,252,o),
(90,200,o),
(152,171,c),
(115,152,o),
(97,128,o),
(97,97,cs),
(97,64,o),
(126,36,o),
(169,22,c),
(128,15,o),
(93,1,o),
(65,-22,c),
(36,-44,o),
(21,-73,o),
(21,-108,cs),
(21,-164,o),
(61,-213,o),
(139,-239,cs),
(177,-252,o),
(222,-258,o),
(275,-258,cs),
(385,-258,o),
(468,-222,o),
(509,-167,cs),
(529,-139,o),
(540,-109,o),
(540,-76,cs),
(540,-18,o),
(510,24,o),
(459,53,cs),
(421,74,o),
(385,83,o),
(318,98,cs),
(285,106,o),
(267,113,o),
(267,129,cs),
(267,146,o),
(278,153,o),
(308,159,cs),
(315,160,o),
(320,161,o),
(323,161,c),
(366,169,o),
(397,180,o),
(423,196,cs),
(454,216,o),
(474,247,o),
(474,285,cs),
(474,332,o),
(446,380,o),
(370,405,c)
);
},
{
closed = 1;
nodes = (
(381,-126,o),
(343,-152,o),
(280,-152,cs),
(218,-152,o),
(180,-126,o),
(180,-87,cs),
(180,-50,o),
(217,-21,o),
(275,-21,cs),
(343,-21,o),
(381,-48,o),
(381,-87,cs)
);
},
{
closed = 1;
nodes = (
(223,254,o),
(198,280,o),
(198,313,cs),
(198,348,o),
(225,373,o),
(265,373,cs),
(307,373,o),
(332,348,o),
(332,313,cs),
(332,280,o),
(306,254,o),
(265,254,cs)
);
},
{
closed = 1;
nodes = (
(540,500,l),
(360,500,l),
(360,395,l),
(423,373,o),
(475,362,o),
(519,362,cs),
(540,362,l)
);
}
);
width = 551;
},
{
anchors = (
{
name = m.uni0941_2;
position = "{274, -257}";
},
{
name = t.uni0946_1_3;
position = "{284, 500}";
}
);
layerId = "295DBF72-63CE-4360-AA06-723F1178BFCA";
shapes = (
{
closed = 1;
nodes = (
(344,500,l),
(258,500,o),
(210,496,o),
(170,481,cs),
(97,453,o),
(57,398,o),
(57,329,cs),
(57,250,o),
(106,201,o),
(165,179,c),
(125,160,o),
(105,135,o),
(105,102,cs),
(105,69,o),
(132,41,o),
(175,29,c),
(132,23,o),
(96,11,o),
(66,-11,cs),
(36,-34,o),
(21,-63,o),
(21,-100,cs),
(21,-159,o),
(62,-210,o),
(136,-238,c),
(174,-251,o),
(217,-258,o),
(268,-258,cs),
(367,-258,o),
(445,-226,o),
(486,-174,c),
(506,-147,o),
(516,-120,o),
(516,-88,cs),
(516,-32,o),
(487,13,o),
(434,40,cs),
(394,60,o),
(350,71,o),
(273,83,cs),
(224,91,o),
(205,102,o),
(205,122,cs),
(205,140,o),
(226,152,o),
(255,158,cs),
(260,159,o),
(265,160,o),
(268,160,c),
(325,172,o),
(352,179,o),
(382,196,cs),
(425,221,o),
(455,262,o),
(455,313,cs),
(455,372,o),
(421,423,o),
(351,444,c)
);
},
{
closed = 1;
nodes = (
(417,-145,o),
(366,-180,o),
(273,-180,cs),
(178,-180,o),
(120,-145,o),
(120,-91,cs),
(120,-37,o),
(176,2,o),
(268,2,cs),
(360,2,o),
(417,-34,o),
(417,-91,cs)
);
},
{
closed = 1;
nodes = (
(194,231,o),
(154,269,o),
(154,324,cs),
(154,381,o),
(194,417,o),
(256,417,cs),
(321,417,o),
(360,381,o),
(360,324,cs),
(360,269,o),
(321,231,o),
(256,231,cs)
);
},
{
closed = 1;
nodes = (
(524,500,l),
(344,500,l),
(344,436,l),
(389,420,o),
(432,414,o),
(486,414,cs),
(524,414,l)
);
}
);
width = 534;
},
{
anchors = (
{
name = m.uni0941_2;
position = "{274, -257}";
},
{
name = t.uni0946_1_3;
position = "{284, 500}";
}
);
layerId = "3548BA04-AEF4-4D65-BB36-2983657EE332";
shapes = (
{
closed = 1;
nodes = (
(336,500,l),
(253,500,o),
(208,496,o),
(168,481,c),
(97,451,o),
(61,398,o),
(61,329,cs),
(61,249,o),
(114,202,o),
(171,183,c),
(130,164,o),
(109,138,o),
(109,105,cs),
(109,71,o),
(135,44,o),
(178,33,c),
(134,27,o),
(98,16,o),
(67,-6,cs),
(36,-29,o),
(21,-58,o),
(21,-96,cs),
(21,-156,o),
(62,-208,o),
(134,-237,c),
(172,-251,o),
(214,-258,o),
(264,-258,cs),
(358,-258,o),
(434,-228,o),
(474,-177,cs),
(495,-151,o),
(504,-125,o),
(504,-94,cs),
(504,-39,o),
(475,8,o),
(422,34,cs),
(381,53,o),
(333,65,o),
(251,75,cs),
(193,83,o),
(174,96,o),
(174,119,cs),
(174,137,o),
(200,152,o),
(228,158,cs),
(232,159,o),
(237,159,o),
(241,160,cs),
(304,174,o),
(329,178,o),
(362,196,cs),
(411,223,o),
(446,270,o),
(446,327,cs),
(446,392,o),
(408,444,o),
(342,463,c)
);
},
{
closed = 1;
nodes = (
(435,-154,o),
(377,-194,o),
(269,-194,cs),
(158,-194,o),
(90,-154,o),
(90,-93,cs),
(90,-31,o),
(156,14,o),
(265,14,cs),
(369,14,o),
(435,-27,o),
(435,-93,cs)
);
},
{
closed = 1;
nodes = (
(179,220,o),
(132,263,o),
(132,329,cs),
(132,397,o),
(178,439,o),
(251,439,cs),
(328,439,o),
(374,397,o),
(374,329,cs),
(374,263,o),
(328,220,o),
(251,220,cs)
);
},
{
closed = 1;
nodes = (
(516,500,l),
(336,500,l),
(336,456,l),
(372,443,o),
(410,440,o),
(470,440,cs),
(516,440,l)
);
}
);
width = 526;
}
);
leftKerningGroup = g2;
rightKerningGroup = g;
unicode = 103;
}
{
glyphname = h;
layers = (
{
anchors = (
{
name = m.uni0941_2;
position = "{326, 0}";
},
{
name = t.uni0946_1_3;
position = "{146, 758}";
},
{
name = t.uni0335_2;
position = "{146, 607}";
}
);
layerId = "578F755D-994C-42C1-BB23-8F906AA68774";
shapes = (
{
closed = 1;
nodes = (
(222,758,l),
(64,758,l),
(64,0,l),
(222,0,l)
);
},
{
closed = 1;
nodes = (
(191,277,l),
(217,336,o),
(267,373,o),
(322,373,cs),
(380,373,o),
(413,333,o),
(413,269,cs),
(413,0,l),
(572,0,l),
(572,269,ls),
(572,420,o),
(499,510,o),
(375,510,cs),
(336,510,o),
(301,500,o),
(270,477,c),
(238,455,o),
(212,427,o),
(191,394,c)
);
}
);
width = 624;
},
{
anchors = (
{
name = m.uni0941_2;
position = "{326, 0}";
},
{
name = t.uni0946_1_3;
position = "{146, 758}";
},
{
name = t.uni0335_2;
position = "{146, 607}";
}
);
layerId = "DBD1B0BE-353E-4EBF-B6EE-D0152B0FB6BB";
shapes = (
{
closed = 1;
nodes = (
(178,758,l),
(80,758,l),
(80,0,l),
(178,0,l)
);
},
{
closed = 1;
nodes = (
(151,305,l),
(196,374,o),
(262,424,o),
(329,424,cs),
(404,424,o),
(441,372,o),
(441,276,cs),
(441,0,l),
(539,0,l),
(539,276,ls),
(539,428,o),
(472,510,o),
(351,510,cs),
(311,510,o),
(271,498,o),
(235,473,cs),
(199,448,o),
(171,419,o),
(151,386,c)
);
}
);
width = 608;
},
{
anchors = (
{
name = m.uni0941_2;
position = "{326, 0}";
},
{
name = t.uni0946_1_3;
position = "{146, 758}";
},
{
name = t.uni0335_2;
position = "{146, 607}";
}
);
layerId = "EEBEDCE0-4D70-4EE0-A037-F223D2B7A84D";
shapes = (
{
closed = 1;
nodes = (
(156,758,l),
(88,758,l),
(88,0,l),
(156,0,l)
);
},
{
closed = 1;
nodes = (
(131,319,l),
(185,393,o),
(260,450,o),
(333,450,cs),
(416,450,o),
(455,391,o),
(455,279,cs),
(455,0,l),
(523,0,l),
(523,279,ls),
(523,432,o),
(458,510,o),
(339,510,cs),
(298,510,o),
(256,497,o),
(218,471,cs),
(179,445,o),
(151,415,o),
(131,382,c)
);
}
);
width = 600;
}
);
rightKerningGroup = a;
unicode = 104;
}
{
glyphname = i;
layers = (
{
anchors = (
{
name = m.uni0941_2;
position = "{147, 0}";
}
);
layerId = "405326B1-6BF5-43CA-AF9F-47F385A9BA9E";
shapes = (
{
closed = 1;
nodes = (
(237,729,o),
(199,763,o),
(147,763,cs),
(93,763,o),
(57,728,o),
(57,678,cs),
(57,628,o),
(95,594,o),
(147,594,cs),
(201,594,o),
(237,629,o),
(237,678,cs)
);
},
{
closed = 1;
nodes = (
(227,0,l),
(227,500,l),
(68,500,l),
(68,0,l)
);
}
);
width = 294;
},
{
anchors = (
{
name = m.uni0941_2;
position = "{147, 0}";
}
);
layerId = "757F0D97-04AA-4B34-B6FD-694B5135A2D3";
shapes = (
{
closed = 1;
nodes = (
(204,722,o),
(176,747,o),
(137,747,cs),
(98,747,o),
(72,721,o),
(72,683,cs),
(72,644,o),
(100,618,o),
(137,618,cs),
(177,618,o),
(204,645,o),
(204,683,cs)
);
},
{
closed = 1;
nodes = (
(188,0,l),
(188,500,l),
(89,500,l),
(89,0,l)
);
}
);
width = 275;
},
{
anchors = (
{
name = m.uni0941_2;
position = "{147, 0}";
}
);
layerId = "41C2A34C-83CD-4E58-A113-8C77F8A82D56";
shapes = (
{
closed = 1;
nodes = (
(187,718,o),
(164,739,o),
(132,739,cs),
(100,739,o),
(79,717,o),
(79,685,cs),
(79,652,o),
(102,630,o),
(132,630,cs),
(165,630,o),
(187,653,o),
(187,685,cs)
);
},
{
closed = 1;
nodes = (
(168,0,l),
(168,500,l),
(99,500,l),
(99,0,l)
);
}
);
width = 266;
}
);
leftKerningGroup = i2;
rightKerningGroup = i;
unicode = 105;
}
{
glyphname = j;
layers = (
{
layerId = "72BDA083-B3C3-4444-A72D-7A06DB42C04D";
shapes = (
{
closed = 1;
nodes = (
(237,500,l),
(237,11,ls),
(237,-66,o),
(223,-125,o),
(197,-166,cs),
(169,-207,o),
(133,-238,o),
(89,-258,c),
(2,-142,l),
(56,-112,o),
(78,-75,o),
(78,11,cs),
(78,500,l)
);
},
{
closed = 1;
nodes = (
(245,729,o),
(206,763,o),
(155,763,cs),
(101,763,o),
(65,728,o),
(65,678,cs),
(65,628,o),
(103,594,o),
(155,594,cs),
(209,594,o),
(245,629,o),
(245,678,cs)
);
}
);
width = 302;
},
{
layerId = "E5F094ED-45EA-480E-BC3C-862AD7D27802";
shapes = (
{
closed = 1;
nodes = (
(197,500,l),
(197,-13,ls),
(197,-84,o),
(185,-138,o),
(162,-176,c),
(137,-213,o),
(100,-240,o),
(49,-258,c),
(9,-183,l),
(73,-151,o),
(99,-109,o),
(99,-13,cs),
(99,500,l)
);
},
{
closed = 1;
nodes = (
(212,722,o),
(184,747,o),
(146,747,cs),
(106,747,o),
(80,721,o),
(80,683,cs),
(80,644,o),
(108,618,o),
(146,618,cs),
(186,618,o),
(212,645,o),
(212,683,cs)
);
}
);
width = 284;
},
{
layerId = "29E3C8E8-2B44-49C3-BAE8-24201C487834";
shapes = (
{
closed = 1;
nodes = (
(177,500,l),
(177,-25,ls),
(177,-93,o),
(166,-144,o),
(144,-181,c),
(121,-216,o),
(83,-241,o),
(29,-258,c),
(12,-204,l),
(82,-171,o),
(109,-126,o),
(109,-25,cs),
(109,500,l)
);
},
{
closed = 1;
nodes = (
(195,718,o),
(173,739,o),
(141,739,cs),
(109,739,o),
(88,717,o),
(88,685,cs),
(88,652,o),
(110,630,o),
(141,630,cs),
(174,630,o),
(195,653,o),
(195,685,cs)
);
}
);
width = 275;
}
);
unicode = 106;
}
{
glyphname = k;
layers = (
{
anchors = (
{
name = m.uni0941_2;
position = "{310, 0}";
},
{
name = t.uni0946_1_3;
position = "{300, 506}";
}
);
layerId = "84F707B8-E6F6-4560-9E91-EBCBB3F7C032";
shapes = (
{
closed = 1;
nodes = (
(392,271,l),
(582,500,l),
(381,500,l),
(212,272,l),
(423,0,l),
(625,0,l)
);
},
{
closed = 1;
nodes = (
(222,758,l),
(64,758,l),
(64,0,l),
(222,0,l)
);
}
);
width = 624;
},
{
anchors = (
{
name = m.uni0941_2;
position = "{310, 0}";
},
{
name = t.uni0946_1_3;
position = "{300, 506}";
}
);
layerId = "DF169942-312F-4CB9-BFF4-C95DA1EFA8DD";
shapes = (
{
closed = 1;
nodes = (
(291,271,l),
(514,500,l),
(381,500,l),
(172,272,l),
(407,0,l),
(540,0,l)
);
},
{
closed = 1;
nodes = (
(178,758,l),
(80,758,l),
(80,0,l),
(178,0,l)
);
}
);
width = 540;
},
{
anchors = (
{
name = m.uni0941_2;
position = "{310, 0}";
},
{
name = t.uni0946_1_3;
position = "{300, 506}";
}
);
layerId = "85DC3871-BA98-4DCB-A963-6B42D2E15F96";
shapes = (
{
closed = 1;
nodes = (
(241,271,l),
(480,500,l),
(381,500,l),
(152,272,l),
(399,0,l),
(498,0,l)
);
},
{
closed = 1;
nodes = (
(156,758,l),
(88,758,l),
(88,0,l),
(156,0,l)
);
}
);
width = 498;
}
);
rightKerningGroup = k;
unicode = 107;
}
{
glyphname = l;
layers = (
{
anchors = (
{
name = m.uni0941_2;
position = "{145, 0}";
},
{
name = t.uni0946_1_3;
position = "{147, 760}";
},
{
name = t.uni0335_2;
position = "{147, 385}";
},
{
name = t.uni031B_3;
position = "{374, 800}";
}
);
layerId = "268DAC57-E2A2-4703-9B87-2E4F83AD2FBF";
shapes = (
{
closed = 1;
nodes = (
(227,758,l),
(68,758,l),
(68,0,l),
(227,0,l)
);
}
);
width = 294;
},
{
anchors = (
{
name = m.uni0941_2;
position = "{145, 0}";
},
{
name = t.uni0946_1_3;
position = "{147, 760}";
},
{
name = t.uni0335_2;
position = "{147, 385}";
},
{
name = t.uni031B_3;
position = "{374, 800}";
}
);
layerId = "295DBF72-63CE-4360-AA06-723F1178BFCA";
shapes = (
{
closed = 1;
nodes = (
(183,758,l),
(85,758,l),
(85,0,l),
(183,0,l)
);
}
);
width = 269;
},
{
anchors = (
{
name = m.uni0941_2;
position = "{145, 0}";
},
{
name = t.uni0946_1_3;
position = "{147, 760}";
},
{
name = t.uni0335_2;
position = "{147, 385}";
},
{
name = t.uni031B_3;
position = "{374, 800}";
}
);
layerId = "3548BA04-AEF4-4D65-BB36-2983657EE332";
shapes = (
{
closed = 1;
nodes = (
(161,758,l),
(93,758,l),
(93,0,l),
(161,0,l)
);
}
);
width = 256;
}
);
unicode = 108;
}
{
glyphname = m;
layers = (
{
layerId = "405326B1-6BF5-43CA-AF9F-47F385A9BA9E";
shapes = (
{
closed = 1;
nodes = (
(762,0,l),
(921,0,l),
(921,269,ls),
(921,420,o),
(848,510,o),
(724,510,cs),
(645,510,o),
(577,475,o),
(538,402,cs),
(518,365,o),
(508,321,o),
(508,269,c),
(572,269,l),
(572,300,o),
(581,326,o),
(600,345,cs),
(618,364,o),
(642,373,o),
(671,373,cs),
(728,373,o),
(762,333,o),
(762,269,cs)
);
},
{
closed = 1;
nodes = (
(64,500,l),
(64,0,l),
(222,0,l),
(222,500,l)
);
},
{
closed = 1;
nodes = (
(191,278,l),
(218,335,o),
(267,373,o),
(322,373,cs),
(381,373,o),
(413,333,o),
(413,269,cs),
(413,0,l),
(572,0,l),
(572,269,ls),
(572,344,o),
(555,403,o),
(520,446,cs),
(485,489,o),
(437,510,o),
(375,510,cs),
(335,510,o),
(299,498,o),
(268,475,cs),
(237,451,o),
(211,420,o),
(191,383,c)
);
}
);
width = 974;
},
{
layerId = "757F0D97-04AA-4B34-B6FD-694B5135A2D3";
shapes = (
{
closed = 1;
nodes = (
(783,0,l),
(881,0,l),
(881,284,ls),
(881,431,o),
(810,510,o),
(692,510,cs),
(616,510,o),
(549,476,o),
(510,401,cs),
(490,364,o),
(480,316,o),
(480,261,c),
(531,261,l),
(531,309,o),
(544,349,o),
(570,379,cs),
(595,409,o),
(629,424,o),
(671,424,cs),
(743,424,o),
(783,378,o),
(783,284,cs)
);
},
{
closed = 1;
nodes = (
(80,500,l),
(80,0,l),
(178,0,l),
(178,500,l)
);
},
{
closed = 1;
nodes = (
(146,313,l),
(195,380,o),
(258,424,o),
(322,424,cs),
(393,424,o),
(432,379,o),
(432,300,cs),
(432,0,l),
(531,0,l),
(531,300,ls),
(531,365,o),
(515,417,o),
(482,454,cs),
(449,491,o),
(405,510,o),
(351,510,cs),
(308,510,o),
(270,499,o),
(235,476,cs),
(199,452,o),
(170,426,o),
(146,395,c)
);
}
);
width = 950;
},
{
layerId = "41C2A34C-83CD-4E58-A113-8C77F8A82D56";
shapes = (
{
closed = 1;
nodes = (
(793,0,l),
(861,0,l),
(861,292,ls),
(861,436,o),
(791,510,o),
(676,510,cs),
(601,510,o),
(535,477,o),
(496,401,cs),
(476,363,o),
(466,314,o),
(466,257,c),
(511,257,l),
(511,314,o),
(525,360,o),
(555,396,cs),
(584,432,o),
(623,450,o),
(671,450,cs),
(750,450,o),
(793,401,o),
(793,292,cs)
);
},
{
closed = 1;
nodes = (
(88,500,l),
(88,0,l),
(156,0,l),
(156,500,l)
);
},
{
closed = 1;
nodes = (
(124,331,l),
(184,402,o),
(253,450,o),
(322,450,cs),
(399,450,o),
(442,402,o),
(442,316,cs),
(442,0,l),
(511,0,l),
(511,316,ls),
(511,376,o),
(495,424,o),
(463,458,cs),
(431,492,o),
(389,510,o),
(339,510,cs),
(295,510,o),
(256,499,o),
(218,476,cs),
(180,453,o),
(149,429,o),
(124,401,c)
);
}
);
width = 938;
}
);
leftKerningGroup = m;
rightKerningGroup = a;
unicode = 109;
}
{
glyphname = n;
layers = (
{
anchors = (
{
name = m.uni0941_2;
position = "{326, 0}";
},
{
name = t.uni0946_1_3;
position = "{315, 509}";
}
);
layerId = "578F755D-994C-42C1-BB23-8F906AA68774";
shapes = (
{
closed = 1;
nodes = (
(222,500,l),
(64,500,l),
(64,0,l),
(222,0,l),
(222,415,l)
);
},
{
closed = 1;
nodes = (
(191,277,l),
(217,336,o),
(267,373,o),
(322,373,cs),
(380,373,o),
(413,333,o),
(413,269,cs),
(413,0,l),
(572,0,l),
(572,269,ls),
(572,420,o),
(499,510,o),
(375,510,cs),
(336,510,o),
(300,499,o),
(269,475,cs),
(237,451,o),
(211,420,o),
(191,383,c)
);
}
);
width = 624;
},
{
anchors = (
{
name = m.uni0941_2;
position = "{326, 0}";
},
{
name = t.uni0946_1_3;
position = "{315, 509}";
}
);
layerId = "DBD1B0BE-353E-4EBF-B6EE-D0152B0FB6BB";
shapes = (
{
closed = 1;
nodes = (
(178,500,l),
(80,500,l),
(80,0,l),
(178,0,l),
(178,415,l)
);
},
{
closed = 1;
nodes = (
(146,313,l),
(194,380,o),
(258,424,o),
(322,424,cs),
(393,424,o),
(432,379,o),
(432,300,cs),
(432,0,l),
(532,0,l),
(532,300,ls),
(532,431,o),
(460,510,o),
(351,510,cs),
(309,510,o),
(270,499,o),
(234,476,cs),
(198,453,o),
(170,426,o),
(146,395,c)
);
}
);
width = 601;
},
{
anchors = (
{
name = m.uni0941_2;
position = "{326, 0}";
},
{
name = t.uni0946_1_3;
position = "{315, 509}";
}
);
layerId = "EEBEDCE0-4D70-4EE0-A037-F223D2B7A84D";
shapes = (
{
closed = 1;
nodes = (
(156,500,l),
(88,500,l),
(88,0,l),
(156,0,l),
(156,415,l)
);
},
{
closed = 1;
nodes = (
(124,331,l),
(183,402,o),
(253,450,o),
(322,450,cs),
(399,450,o),
(442,402,o),
(442,316,cs),
(442,0,l),
(512,0,l),
(512,316,ls),
(512,436,o),
(441,510,o),
(339,510,cs),
(295,510,o),
(255,499,o),
(217,476,cs),
(179,454,o),
(149,429,o),
(124,401,c)
);
}
);
width = 589;
}
);
leftKerningGroup = m;
rightKerningGroup = a;
unicode = 110;
}
{
glyphname = o;
layers = (
{
anchors = (
{
name = m.uni0941_2;
position = "{317, 0}";
},
{
name = t.uni0946_1_3;
position = "{317, 510}";
},
{
name = t.uni0335_2;
position = "{317, 249}";
},
{
name = m.uni0328_2;
position = "{411, 1}";
},
{
name = t.uni031B_3;
position = "{514, 421}";
}
);
layerId = "72BDA083-B3C3-4444-A72D-7A06DB42C04D";
shapes = (
{
closed = 1;
nodes = (
(374,510,o),
(424,500,o),
(468,478,cs),
(555,435,o),
(603,352,o),
(603,250,cs),
(603,198,o),
(592,152,o),
(568,113,cs),
(521,34,o),
(431,-11,o),
(318,-11,cs),
(261,-11,o),
(212,0,o),
(168,22,cs),
(83,65,o),
(32,147,o),
(32,250,cs),
(32,302,o),
(43,347,o),
(68,386,cs),
(115,466,o),
(204,510,o),
(318,510,cs)
);
},
{
closed = 1;
nodes = (
(356,127,o),
(386,139,o),
(410,161,cs),
(433,183,o),
(445,213,o),
(445,250,cs),
(445,287,o),
(433,316,o),
(410,339,cs),
(386,361,o),
(356,373,o),
(318,373,cs),
(279,373,o),
(249,361,o),
(225,339,cs),
(202,316,o),
(191,287,o),
(191,250,cs),
(191,213,o),
(202,183,o),
(225,161,cs),
(249,139,o),
(279,127,o),
(318,127,cs)
);
}
);
width = 635;
},
{
anchors = (
{
name = m.uni0941_2;
position = "{317, 0}";
},
{
name = t.uni0946_1_3;
position = "{317, 510}";
},
{
name = t.uni0335_2;
position = "{317, 249}";
},
{
name = m.uni0328_2;
position = "{411, 1}";
},
{
name = t.uni031B_3;
position = "{514, 421}";
}
);
layerId = "E5F094ED-45EA-480E-BC3C-862AD7D27802";
shapes = (
{
closed = 1;
nodes = (
(380,510,o),
(429,500,o),
(471,478,cs),
(556,435,o),
(603,352,o),
(603,250,cs),
(603,198,o),
(592,152,o),
(569,113,cs),
(522,34,o),
(436,-11,o),
(325,-11,cs),
(271,-11,o),
(222,0,o),
(180,22,cs),
(97,65,o),
(48,147,o),
(48,250,cs),
(48,302,o),
(60,347,o),
(83,386,c),
(129,466,o),
(215,510,o),
(325,510,cs)
);
},
{
closed = 1;
nodes = (
(379,75,o),
(422,92,o),
(455,123,cs),
(488,155,o),
(505,197,o),
(505,250,cs),
(505,303,o),
(488,345,o),
(455,378,c),
(422,408,o),
(379,424,o),
(325,424,cs),
(272,424,o),
(228,408,o),
(196,378,c),
(163,345,o),
(146,303,o),
(146,250,cs),
(146,197,o),
(163,155,o),
(196,123,cs),
(228,92,o),
(272,75,o),
(325,75,cs)
);
}
);
width = 652;
},
{
anchors = (
{
name = m.uni0941_2;
position = "{317, 0}";
},
{
name = t.uni0946_1_3;
position = "{317, 510}";
},
{
name = t.uni0335_2;
position = "{317, 249}";
},
{
name = m.uni0328_2;
position = "{411, 1}";
},
{
name = t.uni031B_3;
position = "{514, 421}";
}
);
layerId = "29E3C8E8-2B44-49C3-BAE8-24201C487834";
shapes = (
{
closed = 1;
nodes = (
(383,510,o),
(432,500,o),
(473,478,cs),
(556,435,o),
(603,352,o),
(603,250,cs),
(603,198,o),
(592,152,o),
(569,113,cs),
(523,34,o),
(438,-11,o),
(329,-11,cs),
(276,-11,o),
(227,0,o),
(186,22,cs),
(104,65,o),
(56,147,o),
(56,250,cs),
(56,302,o),
(68,347,o),
(91,386,cs),
(136,466,o),
(221,510,o),
(329,510,cs)
);
},
{
closed = 1;
nodes = (
(390,49,o),
(440,68,o),
(478,104,cs),
(516,141,o),
(535,189,o),
(535,250,cs),
(535,311,o),
(516,360,o),
(478,397,c),
(440,432,o),
(390,450,o),
(329,450,cs),
(269,450,o),
(218,432,o),
(181,397,cs),
(143,360,o),
(124,311,o),
(124,250,cs),
(124,189,o),
(143,141,o),
(181,104,cs),
(218,68,o),
(269,49,o),
(329,49,cs)
);
}
);
width = 660;
}
);
leftKerningGroup = c2;
rightKerningGroup = b;
unicode = 111;
}
{
glyphname = p;
layers = (
{
layerId = "405326B1-6BF5-43CA-AF9F-47F385A9BA9E";
shapes = (
{
closed = 1;
nodes = (
(416,-10,o),
(502,34,o),
(548,114,cs),
(571,153,o),
(582,198,o),
(582,249,cs),
(582,350,o),
(532,433,o),
(461,477,cs),
(425,499,o),
(388,510,o),
(349,510,cs),
(299,510,o),
(261,498,o),
(234,474,cs),
(207,450,o),
(189,423,o),
(180,392,c),
(180,296,l),
(203,341,o),
(236,373,o),
(296,373,cs),
(335,373,o),
(366,362,o),
(389,339,cs),
(412,316,o),
(423,286,o),
(423,249,cs),
(423,213,o),
(411,184,o),
(386,161,cs),
(361,138,o),
(327,127,o),
(286,127,cs),
(211,127,o),
(142,161,o),
(85,222,c),
(85,74,l),
(128,26,o),
(203,-10,o),
(307,-10,cs)
);
},
{
closed = 1;
nodes = (
(64,500,l),
(64,-259,l),
(222,-259,l),
(222,500,l)
);
}
);
width = 614;
},
{
layerId = "757F0D97-04AA-4B34-B6FD-694B5135A2D3";
shapes = (
{
closed = 1;
nodes = (
(408,-10,o),
(495,34,o),
(541,114,cs),
(564,153,o),
(575,198,o),
(575,249,cs),
(575,352,o),
(528,434,o),
(456,478,c),
(419,499,o),
(378,510,o),
(333,510,cs),
(287,510,o),
(247,501,o),
(215,484,cs),
(183,466,o),
(156,444,o),
(136,415,c),
(136,345,l),
(180,395,o),
(237,424,o),
(312,424,cs),
(362,424,o),
(401,409,o),
(430,377,c),
(461,345,o),
(475,302,o),
(475,249,cs),
(475,197,o),
(458,155,o),
(425,123,cs),
(392,91,o),
(348,76,o),
(293,76,cs),
(222,76,o),
(152,106,o),
(92,158,c),
(92,74,l),
(139,25,o),
(213,-10,o),
(299,-10,cs)
);
},
{
closed = 1;
nodes = (
(80,500,l),
(80,-259,l),
(178,-259,l),
(178,500,l)
);
}
);
width = 621;
},
{
layerId = "41C2A34C-83CD-4E58-A113-8C77F8A82D56";
shapes = (
{
closed = 1;
nodes = (
(404,-10,o),
(491,34,o),
(537,114,cs),
(560,153,o),
(571,198,o),
(571,249,cs),
(571,353,o),
(526,434,o),
(453,478,c),
(416,499,o),
(373,510,o),
(325,510,cs),
(281,510,o),
(240,503,o),
(206,489,cs),
(171,474,o),
(140,454,o),
(114,427,c),
(114,369,l),
(169,422,o),
(238,450,o),
(320,450,cs),
(375,450,o),
(418,432,o),
(451,396,cs),
(485,359,o),
(501,310,o),
(501,249,cs),
(501,189,o),
(482,141,o),
(445,104,cs),
(408,68,o),
(359,50,o),
(297,50,cs),
(227,50,o),
(157,79,o),
(96,126,c),
(96,74,l),
(145,25,o),
(218,-10,o),
(295,-10,cs)
);
},
{
closed = 1;
nodes = (
(88,500,l),
(88,-259,l),
(156,-259,l),
(156,500,l)
);
}
);
width = 625;
}
);
leftKerningGroup = p;
rightKerningGroup = b;
unicode = 112;
}
{
glyphname = q;
layers = (
{
layerId = "62CCE428-27AF-4174-8C32-8EDF06C2E6AE";
shapes = (
{
closed = 1;
nodes = (
(227,-10,o),
(185,1,o),
(148,22,cs),
(74,65,o),
(31,148,o),
(31,249,cs),
(31,301,o),
(44,347,o),
(69,386,cs),
(119,465,o),
(211,510,o),
(328,510,cs),
(352,510,o),
(392,508,o),
(448,505,c),
(483,502,o),
(517,500,o),
(551,500,c),
(551,362,l),
(532,362,o),
(501,364,o),
(456,367,cs),
(415,370,o),
(369,373,o),
(328,373,cs),
(287,373,o),
(254,362,o),
(229,339,cs),
(204,316,o),
(191,286,o),
(191,249,cs),
(191,213,o),
(203,184,o),
(226,161,cs),
(249,138,o),
(280,127,o),
(317,127,cs),
(385,127,o),
(438,156,o),
(466,201,c),
(466,127,l),
(451,42,o),
(384,-10,o),
(275,-10,cs)
);
},
{
closed = 1;
nodes = (
(392,415,l),
(551,415,l),
(551,-259,l),
(392,-259,l)
);
}
);
width = 614;
},
{
layerId = "7A295977-FA7A-4808-B07F-0795E8A98AF6";
shapes = (
{
closed = 1;
nodes = (
(249,-10,o),
(206,1,o),
(167,22,cs),
(91,65,o),
(48,148,o),
(48,249,cs),
(48,301,o),
(60,347,o),
(84,386,cs),
(130,465,o),
(217,510,o),
(328,510,cs),
(353,510,o),
(393,508,o),
(447,505,c),
(482,502,o),
(513,500,o),
(542,500,c),
(542,413,l),
(515,413,o),
(484,415,o),
(446,419,cs),
(410,422,o),
(368,424,o),
(328,424,cs),
(273,424,o),
(230,409,o),
(196,377,cs),
(163,345,o),
(146,302,o),
(146,249,cs),
(146,197,o),
(162,155,o),
(191,123,cs),
(221,91,o),
(261,76,o),
(310,76,cs),
(383,76,o),
(452,109,o),
(494,156,c),
(494,83,l),
(461,25,o),
(389,-10,o),
(299,-10,cs)
);
},
{
closed = 1;
nodes = (
(444,455,l),
(542,455,l),
(542,-259,l),
(444,-259,l)
);
}
);
width = 621;
},
{
layerId = "FBBD23DC-4A32-4E17-882F-E93472546798";
shapes = (
{
closed = 1;
nodes = (
(260,-10,o),
(216,1,o),
(177,22,cs),
(100,65,o),
(56,148,o),
(56,249,cs),
(56,301,o),
(68,347,o),
(91,386,cs),
(136,465,o),
(220,510,o),
(328,510,cs),
(354,510,o),
(394,508,o),
(447,505,c),
(481,502,o),
(511,500,o),
(537,500,c),
(537,439,l),
(507,439,o),
(475,441,o),
(441,445,cs),
(407,448,o),
(367,450,o),
(328,450,cs),
(266,450,o),
(218,432,o),
(180,396,c),
(143,359,o),
(124,310,o),
(124,249,cs),
(124,189,o),
(141,141,o),
(174,104,cs),
(207,68,o),
(251,50,o),
(306,50,cs),
(382,50,o),
(459,85,o),
(508,134,c),
(508,61,l),
(466,17,o),
(391,-10,o),
(311,-10,cs)
);
},
{
closed = 1;
nodes = (
(470,475,l),
(537,475,l),
(537,-259,l),
(470,-259,l)
);
}
);
width = 625;
}
);
leftKerningGroup = c2;
unicode = 113;
}
{
glyphname = r;
layers = (
{
anchors = (
{
name = m.uni0941_2;
position = "{141, 0}";
},
{
name = t.uni0946_1_3;
position = "{223, 500}";
}
);
layerId = "84F707B8-E6F6-4560-9E91-EBCBB3F7C032";
shapes = (
{
closed = 1;
nodes = (
(64,0,l),
(222,0,l),
(222,500,l),
(64,500,l)
);
},
{
closed = 1;
nodes = (
(210,246,l),
(249,319,o),
(293,357,o),
(331,357,cs),
(362,357,o),
(394,341,o),
(432,304,c),
(515,414,l),
(469,477,o),
(430,510,o),
(372,510,cs),
(308,510,o),
(270,466,o),
(211,365,c)
);
}
);
width = 520;
},
{
anchors = (
{
name = m.uni0941_2;
position = "{141, 0}";
},
{
name = t.uni0946_1_3;
position = "{223, 500}";
}
);
layerId = "DF169942-312F-4CB9-BFF4-C95DA1EFA8DD";
shapes = (
{
closed = 1;
nodes = (
(80,0,l),
(178,0,l),
(178,500,l),
(80,500,l)
);
},
{
closed = 1;
nodes = (
(165,279,l),
(214,370,o),
(265,413,o),
(313,413,cs),
(347,413,o),
(373,398,o),
(407,365,c),
(464,439,l),
(420,488,o),
(387,510,o),
(332,510,cs),
(265,510,o),
(220,467,o),
(166,372,c)
);
}
);
width = 474;
},
{
anchors = (
{
name = m.uni0941_2;
position = "{141, 0}";
},
{
name = t.uni0946_1_3;
position = "{223, 500}";
}
);
layerId = "85DC3871-BA98-4DCB-A963-6B42D2E15F96";
shapes = (
{
closed = 1;
nodes = (
(88,0,l),
(156,0,l),
(156,500,l),
(88,500,l)
);
},
{
closed = 1;
nodes = (
(143,296,l),
(197,396,o),
(251,441,o),
(304,441,cs),
(339,441,o),
(362,426,o),
(395,396,c),
(439,452,l),
(395,493,o),
(365,510,o),
(312,510,cs),
(244,510,o),
(195,468,o),
(144,376,c)
);
}
);
width = 451;
}
);
leftKerningGroup = m;
rightKerningGroup = r;
unicode = 114;
}
{
glyphname = s;
layers = (
{
anchors = (
{
name = m.uni0941_2;
position = "{239, 0}";
},
{
name = t.uni0946_1_3;
position = "{253, 503}";
}
);
layerId = "72BDA083-B3C3-4444-A72D-7A06DB42C04D";
shapes = (
{
closed = 1;
nodes = (
(219,383,o),
(201,373,o),
(201,357,cs),
(201,341,o),
(212,332,o),
(240,320,cs),
(313,286,ls),
(390,251,o),
(434,209,o),
(434,141,cs),
(434,47,o),
(355,-11,o),
(239,-11,cs),
(163,-11,o),
(92,12,o),
(42,42,c),
(42,180,l),
(67,162,o),
(97,146,o),
(134,134,cs),
(171,123,o),
(204,116,o),
(234,116,cs),
(259,116,o),
(275,128,o),
(275,144,cs),
(275,157,o),
(264,170,o),
(239,180,cs),
(169,209,ls),
(88,242,o),
(42,289,o),
(42,362,cs),
(42,388,o),
(50,414,o),
(65,436,cs),
(94,482,o),
(155,510,o),
(235,510,cs),
(307,510,o),
(380,490,o),
(413,466,c),
(413,328,l),
(357,362,o),
(295,383,o),
(246,383,cs)
);
}
);
width = 477;
},
{
anchors = (
{
name = m.uni0941_2;
position = "{239, 0}";
},
{
name = t.uni0946_1_3;
position = "{253, 503}";
}
);
layerId = "E5F094ED-45EA-480E-BC3C-862AD7D27802";
shapes = (
{
closed = 1;
nodes = (
(178,427,o),
(149,406,o),
(149,375,cs),
(149,346,o),
(171,328,o),
(208,310,cs),
(286,272,ls),
(363,236,o),
(410,195,o),
(410,126,cs),
(410,42,o),
(338,-11,o),
(233,-11,cs),
(161,-11,o),
(92,13,o),
(50,42,c),
(50,140,l),
(75,119,o),
(104,102,o),
(137,90,cs),
(169,79,o),
(200,72,o),
(232,72,cs),
(284,72,o),
(311,92,o),
(311,127,cs),
(311,156,o),
(282,176,o),
(244,194,cs),
(167,230,ls),
(93,265,o),
(50,305,o),
(50,377,cs),
(50,401,o),
(57,425,o),
(72,445,cs),
(101,485,o),
(156,510,o),
(227,510,cs),
(293,510,o),
(351,490,o),
(389,466,c),
(389,368,l),
(346,402,o),
(287,427,o),
(229,427,cs)
);
}
);
width = 461;
},
{
anchors = (
{
name = m.uni0941_2;
position = "{239, 0}";
},
{
name = t.uni0946_1_3;
position = "{253, 503}";
}
);
layerId = "29E3C8E8-2B44-49C3-BAE8-24201C487834";
shapes = (
{
closed = 1;
nodes = (
(157,449,o),
(123,422,o),
(123,384,cs),
(123,348,o),
(150,326,o),
(192,305,cs),
(272,265,ls),
(349,228,o),
(398,188,o),
(398,119,cs),
(398,40,o),
(330,-11,o),
(230,-11,cs),
(160,-11,o),
(92,13,o),
(54,42,c),
(54,120,l),
(79,97,o),
(108,80,o),
(139,68,cs),
(168,57,o),
(198,50,o),
(231,50,cs),
(297,50,o),
(329,74,o),
(329,119,cs),
(329,155,o),
(291,179,o),
(247,201,cs),
(166,241,ls),
(95,276,o),
(54,313,o),
(54,384,cs),
(54,407,o),
(61,430,o),
(76,450,cs),
(105,487,o),
(157,510,o),
(223,510,cs),
(286,510,o),
(337,490,o),
(377,466,c),
(377,388,l),
(340,422,o),
(283,449,o),
(221,449,cs)
);
}
);
width = 453;
}
);
leftKerningGroup = s2;
rightKerningGroup = s;
unicode = 115;
}
{
glyphname = t;
layers = (
{
anchors = (
{
name = m.uni0941_2;
position = "{283, 0}";
},
{
name = t.uni0946_1_3;
position = "{217, 655}";
},
{
name = t.uni0335_2;
position = "{239, 259}";
},
{
name = t.uni031B_3;
position = "{416, 800}";
}
);
layerId = "62CCE428-27AF-4174-8C32-8EDF06C2E6AE";
shapes = (
{
closed = 1;
nodes = (
(265,362,l),
(265,192,ls),
(265,148,o),
(287,128,o),
(333,128,cs),
(377,128,o),
(429,141,o),
(466,157,c),
(466,21,l),
(423,4,o),
(356,-11,o),
(296,-11,cs),
(177,-11,o),
(106,53,o),
(106,160,cs),
(106,362,l),
(11,362,l),
(11,394,l),
(265,632,l),
(265,500,l),
(445,500,l),
(445,362,l)
);
}
);
width = 477;
},
{
anchors = (
{
name = m.uni0941_2;
position = "{283, 0}";
},
{
name = t.uni0946_1_3;
position = "{217, 655}";
},
{
name = t.uni0335_2;
position = "{239, 259}";
},
{
name = t.uni031B_3;
position = "{416, 800}";
}
);
layerId = "7A295977-FA7A-4808-B07F-0795E8A98AF6";
shapes = (
{
closed = 1;
nodes = (
(204,414,l),
(204,152,ls),
(204,99,o),
(228,75,o),
(277,75,cs),
(317,75,o),
(364,90,o),
(402,114,c),
(402,25,l),
(365,4,o),
(311,-11,o),
(261,-11,cs),
(163,-11,o),
(106,40,o),
(106,136,cs),
(106,414,l),
(18,414,l),
(18,426,l),
(204,600,l),
(204,500,l),
(381,500,l),
(381,414,l)
);
}
);
width = 420;
},
{
anchors = (
{
name = m.uni0941_2;
position = "{283, 0}";
},
{
name = t.uni0946_1_3;
position = "{217, 655}";
},
{
name = t.uni0335_2;
position = "{239, 259}";
},
{
name = t.uni031B_3;
position = "{416, 800}";
}
);
layerId = "FBBD23DC-4A32-4E17-882F-E93472546798";
shapes = (
{
closed = 1;
nodes = (
(174,440,l),
(174,132,ls),
(174,74,o),
(199,48,o),
(249,48,cs),
(287,48,o),
(332,65,o),
(370,93,c),
(370,27,l),
(336,4,o),
(288,-11,o),
(243,-11,cs),
(156,-11,o),
(106,34,o),
(106,124,cs),
(106,440,l),
(22,440,l),
(22,442,l),
(174,584,l),
(174,500,l),
(349,500,l),
(349,440,l)
);
}
);
width = 392;
}
);
leftKerningGroup = t2;
rightKerningGroup = t;
unicode = 116;
}
{
glyphname = u;
layers = (
{
anchors = (
{
name = m.uni0941_2;
position = "{308, 0}";
},
{
name = t.uni0946_1_3;
position = "{310, 500}";
},
{
name = m.uni0328_2;
position = "{526, 0}";
},
{
name = t.uni031B_3;
position = "{483, 501}";
}
);
layerId = "72BDA083-B3C3-4444-A72D-7A06DB42C04D";
shapes = (
{
closed = 1;
nodes = (
(117,-11,o),
(53,64,o),
(53,220,cs),
(53,500,l),
(212,500,l),
(212,220,ls),
(212,162,o),
(238,127,o),
(292,127,cs),
(347,127,o),
(398,163,o),
(423,222,c),
(423,116,l),
(411,82,o),
(386,51,o),
(350,26,cs),
(313,2,o),
(276,-11,o),
(239,-11,cs)
);
},
{
closed = 1;
nodes = (
(402,85,l),
(402,500,l),
(561,500,l),
(561,0,l),
(402,0,l)
);
}
);
width = 624;
},
{
anchors = (
{
name = m.uni0941_2;
position = "{308, 0}";
},
{
name = t.uni0946_1_3;
position = "{310, 500}";
},
{
name = m.uni0328_2;
position = "{526, 0}";
},
{
name = t.uni031B_3;
position = "{483, 501}";
}
);
layerId = "E5F094ED-45EA-480E-BC3C-862AD7D27802";
shapes = (
{
closed = 1;
nodes = (
(135,-11,o),
(69,68,o),
(69,221,cs),
(69,500,l),
(167,500,l),
(167,221,ls),
(167,127,o),
(203,75,o),
(276,75,cs),
(348,75,o),
(410,119,o),
(456,194,c),
(456,116,l),
(436,81,o),
(409,51,o),
(372,26,cs),
(335,2,o),
(297,-11,o),
(255,-11,cs)
);
},
{
closed = 1;
nodes = (
(430,85,l),
(430,500,l),
(529,500,l),
(529,0,l),
(430,0,l)
);
}
);
width = 608;
},
{
anchors = (
{
name = m.uni0941_2;
position = "{308, 0}";
},
{
name = t.uni0946_1_3;
position = "{310, 500}";
},
{
name = m.uni0328_2;
position = "{526, 0}";
},
{
name = t.uni031B_3;
position = "{483, 501}";
}
);
layerId = "29E3C8E8-2B44-49C3-BAE8-24201C487834";
shapes = (
{
closed = 1;
nodes = (
(144,-11,o),
(77,70,o),
(77,221,cs),
(77,500,l),
(145,500,l),
(145,221,ls),
(145,109,o),
(186,49,o),
(268,49,cs),
(348,49,o),
(416,97,o),
(472,180,c),
(472,116,l),
(449,80,o),
(420,51,o),
(383,26,cs),
(346,2,o),
(307,-11,o),
(263,-11,cs)
);
},
{
closed = 1;
nodes = (
(444,85,l),
(444,500,l),
(513,500,l),
(513,0,l),
(444,0,l)
);
}
);
width = 600;
}
);
leftKerningGroup = u;
unicode = 117;
}
{
glyphname = v;
layers = (
{
layerId = "72BDA083-B3C3-4444-A72D-7A06DB42C04D";
shapes = (
{
closed = 1;
nodes = (
(582,500,l),
(338,-10,l),
(254,-10,l),
(10,500,l),
(191,500,l),
(296,219,l),
(402,500,l)
);
}
);
width = 593;
},
{
layerId = "E5F094ED-45EA-480E-BC3C-862AD7D27802";
shapes = (
{
closed = 1;
nodes = (
(559,500,l),
(315,-10,l),
(262,-10,l),
(18,500,l),
(127,500,l),
(289,131,l),
(451,500,l)
);
}
);
width = 577;
},
{
layerId = "29E3C8E8-2B44-49C3-BAE8-24201C487834";
shapes = (
{
closed = 1;
nodes = (
(547,500,l),
(303,-10,l),
(266,-10,l),
(22,500,l),
(95,500,l),
(285,87,l),
(475,500,l)
);
}
);
width = 569;
}
);
leftKerningGroup = v2;
rightKerningGroup = v;
unicode = 118;
}
{
glyphname = w;
layers = (
{
anchors = (
{
name = m.uni0941_2;
position = "{468, 0}";
},
{
name = t.uni0946_1_3;
position = "{461, 500}";
}
);
layerId = "0E687F72-2F35-426F-871D-2F21990D9D28";
name = "#instance";
shapes = (
{
closed = 1;
nodes = (
(887,500,l),
(779,500,l),
(632,150,l),
(502,500,l),
(403,500,l),
(273,150,l),
(127,500,l),
(18,500,l),
(246,-11,l),
(299,-11,l),
(453,390,l),
(606,-11,l),
(659,-11,l)
);
}
);
width = 905;
},
{
anchors = (
{
name = m.uni0941_2;
position = "{468, 0}";
},
{
name = t.uni0946_1_3;
position = "{461, 500}";
}
);
layerId = "198774C1-CC10-42B9-85F8-E7CE679A5159";
shapes = (
{
closed = 1;
nodes = (
(910,500,l),
(730,500,l),
(625,230,l),
(535,500,l),
(386,500,l),
(296,230,l),
(191,500,l),
(11,500,l),
(254,-11,l),
(339,-11,l),
(460,318,l),
(582,-11,l),
(667,-11,l)
);
}
);
width = 921;
},
{
anchors = (
{
name = m.uni0941_2;
position = "{468, 0}";
},
{
name = t.uni0946_1_3;
position = "{461, 500}";
}
);
layerId = "D316A020-56DB-4308-AD51-D49B9BC7B732";
shapes = (
{
closed = 1;
nodes = (
(887,500,l),
(779,500,l),
(632,150,l),
(502,500,l),
(403,500,l),
(273,150,l),
(127,500,l),
(18,500,l),
(246,-11,l),
(299,-11,l),
(453,390,l),
(606,-11,l),
(659,-11,l)
);
}
);
width = 905;
},
{
anchors = (
{
name = m.uni0941_2;
position = "{468, 0}";
},
{
name = t.uni0946_1_3;
position = "{461, 500}";
}
);
layerId = "DA1743F1-FF62-465F-8D09-7851030965A4";
shapes = (
{
closed = 1;
nodes = (
(875,500,l),
(803,500,l),
(636,110,l),
(486,500,l),
(411,500,l),
(261,110,l),
(95,500,l),
(22,500,l),
(242,-11,l),
(279,-11,l),
(449,426,l),
(618,-11,l),
(655,-11,l)
);
}
);
width = 897;
}
);
leftKerningGroup = v2;
rightKerningGroup = v;
unicode = 119;
}
{
glyphname = x;
layers = (
{
layerId = "0E687F72-2F35-426F-871D-2F21990D9D28";
name = "#instance";
shapes = (
{
closed = 1;
nodes = (
(363,249,l),
(569,500,l),
(451,500,l),
(294,303,l),
(137,500,l),
(18,500,l),
(223,249,l),
(18,0,l),
(137,0,l),
(294,196,l),
(451,0,l),
(569,0,l)
);
}
);
width = 588;
},
{
layerId = "198774C1-CC10-42B9-85F8-E7CE679A5159";
shapes = (
{
closed = 1;
nodes = (
(423,249,l),
(624,500,l),
(434,500,l),
(317,335,l),
(201,500,l),
(10,500,l),
(212,249,l),
(10,0,l),
(201,0,l),
(317,164,l),
(434,0,l),
(624,0,l)
);
}
);
width = 635;
},
{
layerId = "D316A020-56DB-4308-AD51-D49B9BC7B732";
shapes = (
{
closed = 1;
nodes = (
(363,249,l),
(569,500,l),
(451,500,l),
(294,303,l),
(137,500,l),
(18,500,l),
(223,249,l),
(18,0,l),
(137,0,l),
(294,196,l),
(451,0,l),
(569,0,l)
);
}
);
width = 588;
},
{
layerId = "DA1743F1-FF62-465F-8D09-7851030965A4";
shapes = (
{
closed = 1;
nodes = (
(333,249,l),
(541,500,l),
(459,500,l),
(282,287,l),
(105,500,l),
(22,500,l),
(229,249,l),
(22,0,l),
(105,0,l),
(282,212,l),
(459,0,l),
(541,0,l)
);
}
);
width = 564;
}
);
unicode = 120;
}
{
glyphname = y;
layers = (
{
anchors = (
{
name = m.uni0941_2;
position = "{476, 0}";
},
{
name = t.uni0946_1_3;
position = "{292, 500}";
}
);
layerId = "405326B1-6BF5-43CA-AF9F-47F385A9BA9E";
shapes = (
{
closed = 1;
nodes = (
(582,500,l),
(402,500,l),
(286,219,l),
(53,-258,l),
(222,-258,l)
);
},
{
closed = 1;
nodes = (
(307,0,l),
(307,219,l),
(191,500,l),
(11,500,l),
(254,0,l)
);
}
);
width = 593;
},
{
anchors = (
{
name = m.uni0941_2;
position = "{476, 0}";
},
{
name = t.uni0946_1_3;
position = "{292, 500}";
}
);
layerId = "757F0D97-04AA-4B34-B6FD-694B5135A2D3";
shapes = (
{
closed = 1;
nodes = (
(535,500,l),
(426,500,l),
(253,131,l),
(53,-258,l),
(162,-258,l)
);
},
{
closed = 1;
nodes = (
(283,32,l),
(291,147,l),
(127,500,l),
(18,500,l),
(246,32,l)
);
}
);
width = 552;
},
{
anchors = (
{
name = m.uni0941_2;
position = "{476, 0}";
},
{
name = t.uni0946_1_3;
position = "{292, 500}";
}
);
layerId = "41C2A34C-83CD-4E58-A113-8C77F8A82D56";
shapes = (
{
closed = 1;
nodes = (
(511,500,l),
(438,500,l),
(237,87,l),
(53,-258,l),
(132,-258,l)
);
},
{
closed = 1;
nodes = (
(271,48,l),
(283,111,l),
(95,500,l),
(22,500,l),
(242,48,l)
);
}
);
width = 532;
}
);
leftKerningGroup = y;
rightKerningGroup = y2;
unicode = 121;
}
{
glyphname = z;
layers = (
{
anchors = (
{
name = m.uni0941_2;
position = "{284, 0}";
},
{
name = t.uni0946_1_3;
position = "{272, 500}";
}
);
layerId = "268DAC57-E2A2-4703-9B87-2E4F83AD2FBF";
shapes = (
{
closed = 1;
nodes = (
(288,401,l),
(11,0,l),
(529,0,l),
(529,138,l),
(232,138,l),
(252,98,l),
(529,500,l),
(21,500,l),
(21,362,l),
(308,362,l)
);
}
);
width = 539;
},
{
anchors = (
{
name = m.uni0941_2;
position = "{284, 0}";
},
{
name = t.uni0946_1_3;
position = "{272, 500}";
}
);
layerId = "295DBF72-63CE-4360-AA06-723F1178BFCA";
shapes = (
{
closed = 1;
nodes = (
(345,452,l),
(18,0,l),
(489,0,l),
(489,86,l),
(143,86,l),
(162,47,l),
(489,500,l),
(29,500,l),
(29,414,l),
(365,414,l)
);
}
);
width = 508;
},
{
anchors = (
{
name = m.uni0941_2;
position = "{284, 0}";
},
{
name = t.uni0946_1_3;
position = "{272, 500}";
}
);
layerId = "3548BA04-AEF4-4D65-BB36-2983657EE332";
shapes = (
{
closed = 1;
nodes = (
(374,478,l),
(22,0,l),
(469,0,l),
(469,60,l),
(98,60,l),
(117,22,l),
(469,500,l),
(33,500,l),
(33,440,l),
(393,440,l)
);
}
);
width = 492;
}
);
leftKerningGroup = z2;
rightKerningGroup = z;
unicode = 122;
}
{
glyphname = bar;
layers = (
{
layerId = "72BDA083-B3C3-4444-A72D-7A06DB42C04D";
shapes = (
{
closed = 1;
nodes = (
(251,-126,l),
(84,-126,l),
(84,700,l),
(251,700,l)
);
}
);
width = 335;
},
{
layerId = "E5F094ED-45EA-480E-BC3C-862AD7D27802";
shapes = (
{
closed = 1;
nodes = (
(188,-126,l),
(84,-126,l),
(84,700,l),
(188,700,l)
);
}
);
width = 272;
},
{
layerId = "29E3C8E8-2B44-49C3-BAE8-24201C487834";
shapes = (
{
closed = 1;
nodes = (
(157,-126,l),
(84,-126,l),
(84,700,l),
(157,700,l)
);
}
);
width = 240;
}
);
unicode = 124;
}
{
glyphname = braceright;
layers = (
{
layerId = "62CCE428-27AF-4174-8C32-8EDF06C2E6AE";
shapes = (
{
closed = 1;
nodes = (
(313,-31,ls),
(313,-123,o),
(262,-168,o),
(146,-168,cs),
(63,-168,l),
(63,-84,l),
(115,-84,ls),
(169,-84,o),
(189,-61,o),
(189,-10,cs),
(189,167,ls),
(189,260,o),
(223,312,o),
(307,345,c),
(223,369,o),
(189,425,o),
(189,533,cs),
(189,691,ls),
(189,741,o),
(169,764,o),
(115,764,cs),
(63,764,l),
(63,848,l),
(146,848,ls),
(262,848,o),
(313,803,o),
(313,710,cs),
(313,516,ls),
(313,431,o),
(348,390,o),
(431,390,c),
(431,294,l),
(348,294,o),
(313,258,o),
(313,179,cs)
);
}
);
width = 473;
},
{
layerId = "7A295977-FA7A-4808-B07F-0795E8A98AF6";
shapes = (
{
closed = 1;
nodes = (
(281,-31,ls),
(281,-122,o),
(231,-168,o),
(130,-168,cs),
(63,-168,l),
(63,-100,l),
(123,-100,ls),
(176,-100,o),
(196,-77,o),
(196,-26,cs),
(196,167,ls),
(196,262,o),
(227,314,o),
(307,345,c),
(227,368,o),
(196,422,o),
(196,533,cs),
(196,707,ls),
(196,757,o),
(176,780,o),
(123,780,cs),
(63,780,l),
(63,848,l),
(130,848,ls),
(231,848,o),
(281,802,o),
(281,710,cs),
(281,516,ls),
(281,426,o),
(327,382,o),
(399,382,c),
(399,302,l),
(327,302,o),
(281,263,o),
(281,179,cs)
);
}
);
width = 441;
},
{
layerId = "FBBD23DC-4A32-4E17-882F-E93472546798";
shapes = (
{
closed = 1;
nodes = (
(265,-31,ls),
(265,-121,o),
(215,-168,o),
(122,-168,cs),
(63,-168,l),
(63,-108,l),
(127,-108,ls),
(180,-108,o),
(200,-85,o),
(200,-34,cs),
(200,167,ls),
(200,263,o),
(229,315,o),
(307,345,c),
(229,367,o),
(200,420,o),
(200,533,cs),
(200,715,ls),
(200,765,o),
(180,788,o),
(127,788,cs),
(63,788,l),
(63,848,l),
(122,848,ls),
(215,848,o),
(265,802,o),
(265,710,cs),
(265,516,ls),
(265,423,o),
(317,378,o),
(383,378,c),
(383,306,l),
(317,306,o),
(265,265,o),
(265,179,cs)
);
}
);
width = 425;
}
);
unicode = 125;
}
{
glyphname = exclamdown;
layers = (
{
layerId = "72BDA083-B3C3-4444-A72D-7A06DB42C04D";
shapes = (
{
closed = 1;
nodes = (
(274,-80,o),
(246,-115,o),
(190,-115,cs),
(134,-115,o),
(106,-80,o),
(106,-9,cs),
(106,37,o),
(111,90,o),
(121,149,cs),
(130,208,o),
(142,258,o),
(155,301,cs),
(168,344,o),
(180,365,o),
(189,365,cs),
(198,365,o),
(209,344,o),
(223,301,cs),
(236,258,o),
(248,207,o),
(259,148,cs),
(269,89,o),
(274,36,o),
(274,-9,cs)
);
},
{
closed = 1;
nodes = (
(129,440,o),
(84,481,o),
(84,534,cs),
(84,589,o),
(128,629,o),
(189,629,cs),
(250,629,o),
(293,590,o),
(293,534,cs),
(293,481,o),
(250,440,o),
(189,440,cs)
);
}
);
width = 377;
},
{
layerId = "E5F094ED-45EA-480E-BC3C-862AD7D27802";
shapes = (
{
closed = 1;
nodes = (
(205,-91,o),
(188,-115,o),
(153,-115,cs),
(119,-115,o),
(101,-91,o),
(101,-41,cs),
(101,6,o),
(104,61,o),
(110,126,cs),
(116,191,o),
(123,247,o),
(132,294,cs),
(140,342,o),
(147,365,o),
(153,365,cs),
(159,365,o),
(166,341,o),
(174,294,cs),
(183,245,o),
(190,189,o),
(196,125,cs),
(202,60,o),
(205,5,o),
(205,-41,cs)
);
},
{
closed = 1;
nodes = (
(112,440,o),
(84,469,o),
(84,507,cs),
(84,546,o),
(113,573,o),
(153,573,cs),
(195,573,o),
(222,545,o),
(222,507,cs),
(222,467,o),
(194,440,o),
(153,440,cs)
);
}
);
width = 306;
},
{
layerId = "29E3C8E8-2B44-49C3-BAE8-24201C487834";
shapes = (
{
closed = 1;
nodes = (
(171,-96,o),
(159,-115,o),
(134,-115,cs),
(111,-115,o),
(99,-96,o),
(99,-57,cs),
(99,-10,o),
(101,47,o),
(105,115,cs),
(109,182,o),
(114,241,o),
(120,291,cs),
(126,341,o),
(130,365,o),
(135,365,cs),
(139,365,o),
(144,339,o),
(150,290,cs),
(156,239,o),
(161,180,o),
(165,113,cs),
(169,46,o),
(171,-11,o),
(171,-57,cs)
);
},
{
closed = 1;
nodes = (
(103,440,o),
(84,463,o),
(84,493,cs),
(84,525,o),
(105,545,o),
(135,545,cs),
(167,545,o),
(186,523,o),
(186,493,cs),
(186,460,o),
(166,440,o),
(135,440,cs)
);
}
);
width = 270;
}
);
unicode = 161;
}
{
glyphname = cent;
layers = (
{
layerId = "62CCE428-27AF-4174-8C32-8EDF06C2E6AE";
shapes = (
{
closed = 1;
nodes = (
(415,440,l),
(289,440,l),
(289,597,l),
(415,597,l)
);
},
{
closed = 1;
nodes = (
(415,-95,l),
(289,-95,l),
(289,72,l),
(415,72,l)
);
},
{
closed = 1;
nodes = (
(524,42,l),
(489,11,o),
(417,-10,o),
(346,-10,cs),
(290,-10,o),
(241,1,o),
(198,22,cs),
(112,64,o),
(63,146,o),
(63,247,cs),
(63,298,o),
(75,344,o),
(98,383,cs),
(145,461,o),
(234,505,o),
(346,505,cs),
(415,505,o),
(488,485,o),
(524,453,c),
(524,316,l),
(489,349,o),
(423,369,o),
(356,369,cs),
(315,369,o),
(282,358,o),
(257,336,cs),
(232,313,o),
(220,284,o),
(220,247,cs),
(220,211,o),
(232,182,o),
(257,160,cs),
(282,137,o),
(315,126,o),
(356,126,cs),
(413,126,o),
(480,147,o),
(524,178,c)
);
}
);
width = 587;
},
{
layerId = "7A295977-FA7A-4808-B07F-0795E8A98AF6";
shapes = (
{
closed = 1;
nodes = (
(383,464,l),
(305,464,l),
(305,597,l),
(383,597,l)
);
},
{
closed = 1;
nodes = (
(383,-95,l),
(305,-95,l),
(305,40,l),
(383,40,l)
);
},
{
closed = 1;
nodes = (
(524,49,l),
(486,14,o),
(412,-10,o),
(338,-10,cs),
(284,-10,o),
(236,1,o),
(194,22,cs),
(111,64,o),
(63,146,o),
(63,247,cs),
(63,298,o),
(74,344,o),
(97,383,cs),
(143,461,o),
(229,505,o),
(338,505,cs),
(408,505,o),
(482,482,o),
(524,445,c),
(524,356,l),
(482,398,o),
(413,424,o),
(349,424,cs),
(291,424,o),
(244,408,o),
(210,376,cs),
(174,343,o),
(157,301,o),
(157,247,cs),
(157,194,o),
(174,151,o),
(210,119,c),
(244,86,o),
(291,70,o),
(349,70,cs),
(411,70,o),
(480,98,o),
(524,139,c)
);
}
);
width = 587;
},
{
layerId = "FBBD23DC-4A32-4E17-882F-E93472546798";
shapes = (
{
closed = 1;
nodes = (
(367,476,l),
(313,476,l),
(313,597,l),
(367,597,l)
);
},
{
closed = 1;
nodes = (
(367,-95,l),
(313,-95,l),
(313,24,l),
(367,24,l)
);
},
{
closed = 1;
nodes = (
(524,53,l),
(484,16,o),
(409,-10,o),
(334,-10,cs),
(281,-10,o),
(233,1,o),
(192,22,cs),
(110,64,o),
(63,146,o),
(63,247,cs),
(63,298,o),
(74,344,o),
(97,383,cs),
(142,461,o),
(227,505,o),
(334,505,cs),
(405,505,o),
(479,480,o),
(524,441,c),
(524,376,l),
(479,422,o),
(408,452,o),
(345,452,cs),
(279,452,o),
(225,433,o),
(186,396,cs),
(145,358,o),
(125,309,o),
(125,247,cs),
(125,185,o),
(145,135,o),
(186,99,c),
(225,61,o),
(279,42,o),
(345,42,cs),
(410,42,o),
(480,73,o),
(524,119,c)
);
}
);
width = 587;
}
);
leftKerningGroup = c2;
rightKerningGroup = c;
unicode = 162;
}
{
glyphname = sterling;
layers = (
{
layerId = "268DAC57-E2A2-4703-9B87-2E4F83AD2FBF";
shapes = (
{
closed = 1;
nodes = (
(534,407,l),
(63,407,l),
(63,323,l),
(534,323,l)
);
},
{
closed = 1;
nodes = (
(544,574,o),
(602,538,o),
(639,497,c),
(639,673,l),
(600,704,o),
(556,721,o),
(461,721,cs),
(360,721,o),
(286,689,o),
(239,624,cs),
(192,559,o),
(168,471,o),
(168,360,cs),
(168,289,o),
(166,231,o),
(161,188,cs),
(156,144,o),
(148,109,o),
(138,83,cs),
(127,56,o),
(113,32,o),
(94,10,c),
(102,0,l),
(127,13,o),
(158,20,o),
(195,19,cs),
(232,18,o),
(283,14,o),
(350,5,cs),
(409,-3,o),
(476,-10,o),
(525,-10,cs),
(583,-10,o),
(629,-6,o),
(663,4,cs),
(696,13,o),
(723,29,o),
(744,52,c),
(744,199,l),
(680,151,o),
(613,136,o),
(524,136,cs),
(496,136,o),
(469,137,o),
(442,140,c),
(374,145,o),
(341,147,o),
(314,136,c),
(322,158,o),
(328,186,o),
(331,220,cs),
(334,254,o),
(335,301,o),
(335,360,cs),
(335,497,o),
(372,574,o),
(461,574,cs)
);
}
);
width = 807;
},
{
layerId = "295DBF72-63CE-4360-AA06-723F1178BFCA";
shapes = (
{
closed = 1;
nodes = (
(471,407,l),
(63,407,l),
(63,339,l),
(471,339,l)
);
},
{
closed = 1;
nodes = (
(507,630,o),
(571,593,o),
(607,552,c),
(607,673,l),
(570,702,o),
(518,721,o),
(429,721,cs),
(343,721,o),
(279,690,o),
(234,629,c),
(191,567,o),
(168,486,o),
(168,384,cs),
(168,304,o),
(166,241,o),
(162,196,cs),
(157,151,o),
(150,115,o),
(140,88,cs),
(130,60,o),
(114,34,o),
(94,10,c),
(102,0,l),
(128,13,o),
(160,19,o),
(196,18,cs),
(233,17,o),
(282,13,o),
(345,4,cs),
(401,-3,o),
(461,-10,o),
(509,-10,cs),
(564,-10,o),
(606,-5,o),
(636,7,c),
(667,18,o),
(691,36,o),
(712,60,c),
(712,167,l),
(666,112,o),
(602,81,o),
(509,81,cs),
(478,81,o),
(436,86,o),
(399,90,c),
(313,102,o),
(266,106,o),
(235,89,c),
(249,119,o),
(259,157,o),
(264,202,cs),
(269,247,o),
(272,308,o),
(272,384,cs),
(272,547,o),
(333,630,o),
(429,630,cs)
);
}
);
width = 775;
},
{
layerId = "3548BA04-AEF4-4D65-BB36-2983657EE332";
shapes = (
{
closed = 1;
nodes = (
(440,407,l),
(63,407,l),
(63,347,l),
(440,347,l)
);
},
{
closed = 1;
nodes = (
(488,658,o),
(555,621,o),
(591,580,c),
(591,673,l),
(555,701,o),
(499,721,o),
(413,721,cs),
(335,721,o),
(275,691,o),
(232,632,c),
(190,571,o),
(168,494,o),
(168,396,cs),
(168,311,o),
(166,246,o),
(162,200,cs),
(158,155,o),
(151,118,o),
(141,90,cs),
(132,62,o),
(115,35,o),
(94,10,c),
(102,0,l),
(129,13,o),
(161,19,o),
(197,18,cs),
(233,17,o),
(282,13,o),
(342,4,c),
(397,-3,o),
(454,-10,o),
(501,-10,cs),
(554,-10,o),
(595,-4,o),
(623,9,c),
(652,20,o),
(675,39,o),
(696,64,c),
(696,151,l),
(659,93,o),
(597,53,o),
(501,53,cs),
(469,53,o),
(419,60,o),
(377,65,c),
(282,81,o),
(229,85,o),
(196,65,c),
(212,99,o),
(224,142,o),
(230,193,cs),
(237,244,o),
(240,312,o),
(240,396,cs),
(240,572,o),
(313,658,o),
(413,658,cs)
);
}
);
width = 759;
}
);
unicode = 163;
}
{
glyphname = currency;
layers = (
{
layerId = "405326B1-6BF5-43CA-AF9F-47F385A9BA9E";
shapes = (
{
closed = 1;
nodes = (
(204,171,l),
(149,227,l),
(63,144,l),
(122,84,l)
);
},
{
closed = 1;
nodes = (
(619,581,l),
(561,640,l),
(478,553,l),
(533,499,l)
);
},
{
closed = 1;
nodes = (
(204,553,l),
(122,640,l),
(63,581,l),
(149,499,l)
);
},
{
closed = 1;
nodes = (
(619,144,l),
(533,227,l),
(478,171,l),
(561,84,l)
);
},
{
closed = 1;
nodes = (
(262,610,o),
(198,588,o),
(151,544,cs),
(104,500,o),
(80,440,o),
(80,363,cs),
(80,286,o),
(104,225,o),
(151,181,cs),
(198,137,o),
(262,115,o),
(342,115,cs),
(421,115,o),
(485,137,o),
(533,181,cs),
(580,225,o),
(604,286,o),
(604,363,cs),
(604,440,o),
(580,500,o),
(533,544,cs),
(485,588,o),
(421,610,o),
(342,610,cs)
);
},
{
closed = 1;
nodes = (
(310,257,o),
(285,267,o),
(266,286,cs),
(247,305,o),
(237,330,o),
(237,363,cs),
(237,394,o),
(247,420,o),
(266,439,cs),
(285,458,o),
(310,467,o),
(342,467,cs),
(373,467,o),
(399,458,o),
(418,439,cs),
(437,420,o),
(446,394,o),
(446,363,cs),
(446,330,o),
(437,305,o),
(418,286,cs),
(399,267,o),
(373,257,o),
(342,257,cs)
);
}
);
width = 682;
},
{
layerId = "757F0D97-04AA-4B34-B6FD-694B5135A2D3";
shapes = (
{
closed = 1;
nodes = (
(188,178,l),
(149,220,l),
(63,136,l),
(106,91,l)
);
},
{
closed = 1;
nodes = (
(603,588,l),
(561,633,l),
(478,546,l),
(517,506,l)
);
},
{
closed = 1;
nodes = (
(188,546,l),
(106,633,l),
(63,588,l),
(149,506,l)
);
},
{
closed = 1;
nodes = (
(603,136,l),
(517,220,l),
(478,178,l),
(561,91,l)
);
},
{
closed = 1;
nodes = (
(255,610,o),
(191,588,o),
(144,544,cs),
(96,500,o),
(72,440,o),
(72,363,cs),
(72,286,o),
(96,225,o),
(144,181,cs),
(191,137,o),
(255,115,o),
(334,115,cs),
(414,115,o),
(478,137,o),
(525,181,cs),
(572,225,o),
(596,286,o),
(596,363,cs),
(596,440,o),
(572,500,o),
(525,544,cs),
(478,588,o),
(414,610,o),
(334,610,cs)
);
},
{
closed = 1;
nodes = (
(283,196,o),
(242,212,o),
(212,242,cs),
(181,272,o),
(166,313,o),
(166,363,cs),
(166,412,o),
(181,452,o),
(212,482,c),
(242,513,o),
(283,528,o),
(334,528,cs),
(384,528,o),
(424,513,o),
(456,482,cs),
(487,452,o),
(502,412,o),
(502,363,cs),
(502,313,o),
(487,272,o),
(456,242,cs),
(424,212,o),
(384,196,o),
(334,196,cs)
);
}
);
width = 666;
},
{
layerId = "41C2A34C-83CD-4E58-A113-8C77F8A82D56";
shapes = (
{
closed = 1;
nodes = (
(180,182,l),
(149,216,l),
(63,132,l),
(98,95,l)
);
},
{
closed = 1;
nodes = (
(595,592,l),
(561,629,l),
(478,542,l),
(509,510,l)
);
},
{
closed = 1;
nodes = (
(180,542,l),
(98,629,l),
(63,592,l),
(149,510,l)
);
},
{
closed = 1;
nodes = (
(595,132,l),
(509,216,l),
(478,182,l),
(561,95,l)
);
},
{
closed = 1;
nodes = (
(251,610,o),
(187,588,o),
(140,544,cs),
(92,500,o),
(68,440,o),
(68,363,cs),
(68,286,o),
(92,225,o),
(140,181,cs),
(187,137,o),
(251,115,o),
(330,115,cs),
(410,115,o),
(474,137,o),
(521,181,cs),
(568,225,o),
(592,286,o),
(592,363,cs),
(592,440,o),
(568,500,o),
(521,544,cs),
(474,588,o),
(410,610,o),
(330,610,cs)
);
},
{
closed = 1;
nodes = (
(269,166,o),
(221,184,o),
(185,220,cs),
(148,256,o),
(130,304,o),
(130,363,cs),
(130,421,o),
(148,468,o),
(185,504,cs),
(221,540,o),
(269,558,o),
(330,558,cs),
(390,558,o),
(437,540,o),
(475,504,cs),
(512,468,o),
(530,421,o),
(530,363,cs),
(530,304,o),
(512,256,o),
(475,220,cs),
(437,184,o),
(390,166,o),
(330,166,cs)
);
}
);
width = 658;
}
);
unicode = 164;
}
{
glyphname = yen;
layers = (
{
layerId = "198774C1-CC10-42B9-85F8-E7CE679A5159";
shapes = (
{
closed = 1;
nodes = (
(681,413,l),
(178,413,l),
(178,329,l),
(681,329,l)
);
},
{
closed = 1;
nodes = (
(681,245,l),
(178,245,l),
(178,161,l),
(681,161,l)
);
},
{
closed = 1;
nodes = (
(796,700,l),
(587,700,l),
(430,473,l),
(272,700,l),
(63,700,l),
(346,350,l),
(346,0,l),
(513,0,l),
(513,350,l)
);
}
);
width = 859;
},
{
layerId = "D316A020-56DB-4308-AD51-D49B9BC7B732";
shapes = (
{
closed = 1;
nodes = (
(649,397,l),
(146,397,l),
(146,329,l),
(649,329,l)
);
},
{
closed = 1;
nodes = (
(649,253,l),
(146,253,l),
(146,185,l),
(649,185,l)
);
},
{
closed = 1;
nodes = (
(733,700,l),
(603,700,l),
(398,426,l),
(193,700,l),
(63,700,l),
(346,343,l),
(346,0,l),
(450,0,l),
(450,343,l)
);
}
);
width = 796;
},
{
layerId = "DA1743F1-FF62-465F-8D09-7851030965A4";
shapes = (
{
closed = 1;
nodes = (
(633,389,l),
(130,389,l),
(130,329,l),
(633,329,l)
);
},
{
closed = 1;
nodes = (
(633,257,l),
(130,257,l),
(130,197,l),
(633,197,l)
);
},
{
closed = 1;
nodes = (
(702,700,l),
(611,700,l),
(382,402,l),
(154,700,l),
(63,700,l),
(346,339,l),
(346,0,l),
(419,0,l),
(419,339,l)
);
}
);
width = 764;
}
);
unicode = 165;
}
{
glyphname = brokenbar;
layers = (
{
layerId = "72BDA083-B3C3-4444-A72D-7A06DB42C04D";
shapes = (
{
closed = 1;
nodes = (
(251,374,l),
(84,374,l),
(84,700,l),
(251,700,l)
);
},
{
closed = 1;
nodes = (
(251,-84,l),
(84,-84,l),
(84,240,l),
(251,240,l)
);
}
);
width = 335;
},
{
layerId = "E5F094ED-45EA-480E-BC3C-862AD7D27802";
shapes = (
{
closed = 1;
nodes = (
(188,374,l),
(84,374,l),
(84,700,l),
(188,700,l)
);
},
{
closed = 1;
nodes = (
(188,-84,l),
(84,-84,l),
(84,240,l),
(188,240,l)
);
}
);
width = 272;
},
{
layerId = "29E3C8E8-2B44-49C3-BAE8-24201C487834";
shapes = (
{
closed = 1;
nodes = (
(157,374,l),
(84,374,l),
(84,700,l),
(157,700,l)
);
},
{
closed = 1;
nodes = (
(157,-84,l),
(84,-84,l),
(84,240,l),
(157,240,l)
);
}
);
width = 240;
}
);
unicode = 166;
}
{
glyphname = section;
layers = (
{
layerId = "72BDA083-B3C3-4444-A72D-7A06DB42C04D";
shapes = (
{
closed = 1;
nodes = (
(222,-190,o),
(133,-161,o),
(85,-121,c),
(85,24,l),
(117,4,o),
(154,-12,o),
(196,-25,cs),
(238,-37,o),
(275,-43,o),
(308,-43,cs),
(356,-43,o),
(388,-25,o),
(388,3,cs),
(388,16,o),
(385,28,o),
(380,37,cs),
(368,55,o),
(338,75,o),
(266,106,cs),
(139,161,o),
(84,209,o),
(84,284,cs),
(84,315,o),
(96,342,o),
(120,365,cs),
(143,388,o),
(171,402,o),
(204,407,c),
(272,375,l),
(244,359,o),
(229,335,o),
(229,306,cs),
(229,273,o),
(261,243,o),
(329,212,cs),
(386,187,o),
(430,164,o),
(463,143,cs),
(527,101,o),
(555,58,o),
(555,2,cs),
(555,-35,o),
(545,-68,o),
(526,-97,cs),
(487,-155,o),
(412,-190,o),
(319,-190,cs)
);
},
{
closed = 1;
nodes = (
(402,154,l),
(429,179,o),
(440,199,o),
(440,228,cs),
(440,265,o),
(413,294,o),
(336,323,cs),
(279,344,o),
(234,365,o),
(202,386,cs),
(138,429,o),
(115,472,o),
(115,527,cs),
(115,564,o),
(125,596,o),
(144,623,cs),
(183,678,o),
(255,710,o),
(346,710,cs),
(453,710,o),
(534,677,o),
(566,646,c),
(566,497,l),
(539,516,o),
(505,532,o),
(466,545,cs),
(427,558,o),
(390,564,o),
(356,564,cs),
(312,564,o),
(282,546,o),
(282,518,cs),
(282,506,o),
(285,496,o),
(291,489,c),
(302,473,o),
(331,458,o),
(398,435,cs),
(522,394,o),
(587,336,o),
(587,256,cs),
(587,193,o),
(543,134,o),
(474,105,c)
);
}
);
width = 671;
},
{
layerId = "E5F094ED-45EA-480E-BC3C-862AD7D27802";
shapes = (
{
closed = 1;
nodes = (
(220,-190,o),
(140,-157,o),
(92,-121,c),
(92,-22,l),
(122,-45,o),
(157,-63,o),
(195,-77,cs),
(233,-92,o),
(270,-98,o),
(308,-98,cs),
(371,-98,o),
(411,-68,o),
(411,-21,cs),
(411,-5,o),
(407,10,o),
(397,23,c),
(379,50,o),
(335,76,o),
(253,112,cs),
(132,164,o),
(84,215,o),
(84,293,cs),
(84,326,o),
(97,355,o),
(121,380,c),
(146,404,o),
(176,421,o),
(211,432,c),
(270,403,l),
(211,374,o),
(182,342,o),
(182,301,cs),
(182,254,o),
(214,220,o),
(302,181,cs),
(355,158,o),
(397,135,o),
(428,114,cs),
(489,72,o),
(516,29,o),
(516,-21,cs),
(516,-56,o),
(507,-85,o),
(491,-110,cs),
(457,-160,o),
(391,-190,o),
(311,-190,cs)
);
},
{
closed = 1;
nodes = (
(385,119,l),
(428,148,o),
(448,180,o),
(448,223,cs),
(448,276,o),
(416,313,o),
(328,352,cs),
(272,377,o),
(228,398,o),
(197,419,cs),
(137,459,o),
(115,499,o),
(115,551,cs),
(115,583,o),
(124,611,o),
(141,635,cs),
(176,683,o),
(241,710,o),
(322,710,cs),
(410,710,o),
(489,682,o),
(526,653,c),
(526,554,l),
(494,574,o),
(462,590,o),
(427,602,cs),
(393,613,o),
(358,619,o),
(324,619,cs),
(262,619,o),
(219,591,o),
(219,549,cs),
(219,533,o),
(224,519,o),
(232,507,cs),
(249,484,o),
(288,463,o),
(373,424,c),
(497,371,o),
(547,309,o),
(547,229,cs),
(547,170,o),
(505,113,o),
(441,76,c)
);
}
);
width = 631;
},
{
layerId = "29E3C8E8-2B44-49C3-BAE8-24201C487834";
shapes = (
{
closed = 1;
nodes = (
(219,-190,o),
(143,-155,o),
(96,-121,c),
(96,-45,l),
(125,-69,o),
(159,-88,o),
(195,-103,cs),
(231,-119,o),
(268,-126,o),
(308,-126,cs),
(378,-126,o),
(423,-90,o),
(423,-33,cs),
(423,-16,o),
(418,1,o),
(406,16,c),
(384,48,o),
(333,77,o),
(247,115,cs),
(128,166,o),
(84,218,o),
(84,298,cs),
(84,332,o),
(97,361,o),
(122,387,c),
(148,412,o),
(179,431,o),
(215,445,c),
(269,417,l),
(194,382,o),
(159,345,o),
(159,299,cs),
(159,245,o),
(190,208,o),
(288,165,cs),
(339,143,o),
(380,121,o),
(411,100,c),
(470,57,o),
(496,15,o),
(496,-33,cs),
(496,-66,o),
(488,-93,o),
(473,-116,cs),
(442,-163,o),
(381,-190,o),
(307,-190,cs)
);
},
{
closed = 1;
nodes = (
(377,101,l),
(428,132,o),
(452,170,o),
(452,220,cs),
(452,282,o),
(418,322,o),
(324,367,c),
(268,393,o),
(225,415,o),
(195,435,cs),
(136,474,o),
(115,512,o),
(115,563,cs),
(115,592,o),
(123,619,o),
(139,641,cs),
(172,686,o),
(234,710,o),
(310,710,cs),
(389,710,o),
(466,684,o),
(506,657,c),
(506,582,l),
(472,603,o),
(440,619,o),
(408,630,cs),
(376,641,o),
(342,647,o),
(308,647,cs),
(237,647,o),
(188,614,o),
(188,565,cs),
(188,546,o),
(193,530,o),
(203,516,cs),
(222,490,o),
(266,465,o),
(361,419,cs),
(485,360,o),
(527,295,o),
(527,216,cs),
(527,158,o),
(486,103,o),
(424,61,c)
);
}
);
width = 611;
}
);
unicode = 167;
}
{
glyphname = guillemotleft;
layers = (
{
layerId = "84F707B8-E6F6-4560-9E91-EBCBB3F7C032";
shapes = (
{
alignment = -1;
pos = (409,0);
ref = guilsinglright;
scale = (-1,1);
},
{
alignment = -1;
pos = (671,0);
ref = guilsinglright;
scale = (-1,1);
}
);
width = 671;
},
{
layerId = "DF169942-312F-4CB9-BFF4-C95DA1EFA8DD";
shapes = (
{
closed = 1;
nodes = (
(199,136,l),
(275,136,l),
(139,314,l),
(275,493,l),
(199,493,l),
(63,314,l)
);
},
{
closed = 1;
nodes = (
(389,136,l),
(465,136,l),
(329,314,l),
(465,493,l),
(389,493,l),
(253,314,l)
);
}
);
width = 528;
},
{
layerId = "85DC3871-BA98-4DCB-A963-6B42D2E15F96";
shapes = (
{
closed = 1;
nodes = (
(199,136,l),
(63,314,l),
(199,493,l),
(275,493,l),
(139,314,l),
(275,136,l)
);
},
{
closed = 1;
nodes = (
(389,136,l),
(253,314,l),
(389,493,l),
(465,493,l),
(329,314,l),
(465,136,l)
);
}
);
width = 528;
}
);
unicode = 171;
}
{
glyphname = logicalnot;
layers = (
{
layerId = "72BDA083-B3C3-4444-A72D-7A06DB42C04D";
shapes = (
{
closed = 1;
nodes = (
(614,430,l),
(614,178,l),
(487,178,l),
(487,304,l),
(84,304,l),
(84,430,l)
);
}
);
width = 698;
},
{
layerId = "E5F094ED-45EA-480E-BC3C-862AD7D27802";
shapes = (
{
closed = 1;
nodes = (
(582,430,l),
(582,178,l),
(487,178,l),
(487,336,l),
(84,336,l),
(84,430,l)
);
}
);
width = 666;
},
{
layerId = "29E3C8E8-2B44-49C3-BAE8-24201C487834";
shapes = (
{
closed = 1;
nodes = (
(566,430,l),
(566,178,l),
(487,178,l),
(487,352,l),
(84,352,l),
(84,430,l)
);
}
);
width = 650;
}
);
unicode = 172;
}
{
glyphname = degree;
layers = (
{
layerId = "72BDA083-B3C3-4444-A72D-7A06DB42C04D";
shapes = (
{
closed = 1;
nodes = (
(192,461,o),
(166,468,o),
(142,483,cs),
(94,511,o),
(63,562,o),
(63,618,cs),
(63,647,o),
(70,673,o),
(85,698,cs),
(113,746,o),
(164,775,o),
(220,775,cs),
(249,775,o),
(275,768,o),
(299,755,c),
(347,727,o),
(377,675,o),
(377,618,cs),
(377,590,o),
(370,564,o),
(356,540,cs),
(328,492,o),
(277,461,o),
(220,461,cs)
);
},
{
closed = 1;
nodes = (
(255,555,o),
(283,583,o),
(283,618,cs),
(283,653,o),
(255,681,o),
(220,681,cs),
(185,681,o),
(157,653,o),
(157,618,cs),
(157,583,o),
(185,555,o),
(220,555,cs)
);
}
);
width = 440;
},
{
layerId = "E5F094ED-45EA-480E-BC3C-862AD7D27802";
shapes = (
{
closed = 1;
nodes = (
(192,461,o),
(166,468,o),
(142,483,cs),
(94,511,o),
(63,562,o),
(63,618,cs),
(63,647,o),
(70,673,o),
(85,698,cs),
(113,746,o),
(164,775,o),
(220,775,cs),
(249,775,o),
(275,768,o),
(299,755,c),
(347,727,o),
(377,675,o),
(377,618,cs),
(377,590,o),
(370,564,o),
(356,540,cs),
(328,492,o),
(277,461,o),
(220,461,cs)
);
},
{
closed = 1;
nodes = (
(264,539,o),
(299,576,o),
(299,618,cs),
(299,662,o),
(264,697,o),
(220,697,cs),
(176,697,o),
(141,662,o),
(141,618,cs),
(141,576,o),
(176,539,o),
(220,539,cs)
);
}
);
width = 440;
},
{
layerId = "29E3C8E8-2B44-49C3-BAE8-24201C487834";
shapes = (
{
closed = 1;
nodes = (
(192,461,o),
(166,468,o),
(142,483,cs),
(94,511,o),
(63,562,o),
(63,618,cs),
(63,647,o),
(70,673,o),
(85,698,cs),
(113,746,o),
(164,775,o),
(220,775,cs),
(249,775,o),
(275,768,o),
(299,755,c),
(347,727,o),
(377,675,o),
(377,618,cs),
(377,590,o),
(370,564,o),
(356,540,cs),
(328,492,o),
(277,461,o),
(220,461,cs)
);
},
{
closed = 1;
nodes = (
(269,531,o),
(307,572,o),
(307,618,cs),
(307,667,o),
(269,705,o),
(220,705,cs),
(171,705,o),
(133,667,o),
(133,618,cs),
(133,572,o),
(171,531,o),
(220,531,cs)
);
}
);
width = 440;
}
);
unicode = 176;
}
{
glyphname = micro;
layers = (
{
anchors = (
{
name = t.uni0941;
position = "{318, 0}";
},
{
name = t.uni0946_1;
position = "{321, 500}";
},
{
name = t.uni0328;
position = "{536, 0}";
},
{
name = t.uni031B;
position = "{493, 501}";
}
);
layerId = "72BDA083-B3C3-4444-A72D-7A06DB42C04D";
shapes = (
{
closed = 1;
nodes = (
(64,268,l),
(70,219,o),
(79,176,o),
(90,138,cs),
(101,100,o),
(114,58,o),
(130,13,cs),
(144,-25,o),
(154,-54,o),
(160,-75,cs),
(165,-96,o),
(168,-116,o),
(168,-137,cs),
(168,-161,o),
(159,-178,o),
(142,-187,cs),
(124,-196,o),
(107,-196,o),
(90,-187,cs),
(73,-178,o),
(64,-161,o),
(64,-137,cs)
);
},
{
closed = 1;
nodes = (
(129,-10,o),
(64,64,o),
(64,220,cs),
(64,500,l),
(222,500,l),
(222,220,ls),
(222,163,o),
(250,127,o),
(303,127,cs),
(358,127,o),
(409,163,o),
(434,222,c),
(434,116,l),
(421,81,o),
(397,52,o),
(361,27,cs),
(324,2,o),
(287,-10,o),
(249,-10,cs)
);
},
{
closed = 1;
nodes = (
(413,85,l),
(413,500,l),
(572,500,l),
(572,0,l),
(413,0,l)
);
}
);
width = 635;
},
{
anchors = (
{
name = t.uni0941;
position = "{318, 0}";
},
{
name = t.uni0946_1;
position = "{321, 500}";
},
{
name = t.uni0328;
position = "{536, 0}";
},
{
name = t.uni031B;
position = "{493, 501}";
}
);
layerId = "E5F094ED-45EA-480E-BC3C-862AD7D27802";
shapes = (
{
closed = 1;
nodes = (
(64,268,l),
(70,220,o),
(78,177,o),
(87,140,cs),
(96,102,o),
(107,62,o),
(119,20,cs),
(131,-21,o),
(139,-53,o),
(145,-74,c),
(149,-95,o),
(151,-116,o),
(151,-137,cs),
(151,-159,o),
(144,-174,o),
(130,-182,cs),
(115,-191,o),
(100,-191,o),
(86,-182,cs),
(72,-174,o),
(64,-159,o),
(64,-137,cs)
);
},
{
closed = 1;
nodes = (
(130,-10,o),
(64,68,o),
(64,221,cs),
(64,500,l),
(161,500,l),
(161,221,ls),
(161,126,o),
(198,76,o),
(271,76,cs),
(342,76,o),
(404,119,o),
(451,194,c),
(451,116,l),
(431,81,o),
(403,51,o),
(366,27,cs),
(329,2,o),
(291,-10,o),
(249,-10,cs)
);
},
{
closed = 1;
nodes = (
(424,85,l),
(424,500,l),
(523,500,l),
(523,0,l),
(424,0,l)
);
}
);
width = 588;
},
{
anchors = (
{
name = t.uni0941;
position = "{318, 0}";
},
{
name = t.uni0946_1;
position = "{321, 500}";
},
{
name = t.uni0328;
position = "{536, 0}";
},
{
name = t.uni031B;
position = "{493, 501}";
}
);
layerId = "29E3C8E8-2B44-49C3-BAE8-24201C487834";
shapes = (
{
closed = 1;
nodes = (
(64,268,l),
(70,221,o),
(77,178,o),
(85,141,cs),
(93,103,o),
(103,64,o),
(114,23,c),
(125,-19,o),
(132,-52,o),
(137,-73,cs),
(141,-94,o),
(143,-116,o),
(143,-137,cs),
(143,-158,o),
(136,-172,o),
(124,-180,cs),
(110,-188,o),
(97,-188,o),
(84,-180,cs),
(71,-172,o),
(64,-158,o),
(64,-137,cs)
);
},
{
closed = 1;
nodes = (
(130,-10,o),
(64,70,o),
(64,221,cs),
(64,500,l),
(131,500,l),
(131,221,ls),
(131,107,o),
(172,50,o),
(255,50,cs),
(334,50,o),
(402,97,o),
(459,180,c),
(459,116,l),
(436,81,o),
(406,51,o),
(369,27,cs),
(332,2,o),
(293,-10,o),
(249,-10,cs)
);
},
{
closed = 1;
nodes = (
(430,85,l),
(430,500,l),
(499,500,l),
(499,0,l),
(430,0,l)
);
}
);
width = 564;
}
);
unicode = 181;
}
{
glyphname = paragraph;
layers = (
{
layerId = "198774C1-CC10-42B9-85F8-E7CE679A5159";
shapes = (
{
closed = 1;
nodes = (
(708,-85,l),
(708,700,l),
(279,700,ls),
(154,700,o),
(84,641,o),
(84,542,cs),
(84,445,o),
(141,376,o),
(237,344,c),
(237,-85,l),
(404,-85,l),
(404,553,l),
(541,553,l),
(541,-85,l)
);
}
);
width = 792;
},
{
layerId = "D316A020-56DB-4308-AD51-D49B9BC7B732";
shapes = (
{
closed = 1;
nodes = (
(637,-85,l),
(637,700,l),
(255,700,ls),
(147,700,o),
(84,646,o),
(84,558,cs),
(84,476,o),
(135,419,o),
(229,399,c),
(229,-85,l),
(333,-85,l),
(333,609,l),
(533,609,l),
(533,-85,l)
);
}
);
width = 721;
},
{
layerId = "DA1743F1-FF62-465F-8D09-7851030965A4";
shapes = (
{
closed = 1;
nodes = (
(601,-85,l),
(601,700,l),
(243,700,ls),
(143,700,o),
(84,648,o),
(84,566,cs),
(84,492,o),
(132,441,o),
(225,427,c),
(225,-85,l),
(297,-85,l),
(297,637,l),
(529,637,l),
(529,-85,l)
);
}
);
width = 685;
}
);
unicode = 182;
}
{
glyphname = guillemotright;
layers = (
{
layerId = "72BDA083-B3C3-4444-A72D-7A06DB42C04D";
shapes = (
{
alignment = -1;
ref = guilsinglright;
},
{
alignment = -1;
pos = (262,0);
ref = guilsinglright;
}
);
width = 671;
},
{
layerId = "E5F094ED-45EA-480E-BC3C-862AD7D27802";
shapes = (
{
closed = 1;
nodes = (
(139,136,l),
(63,136,l),
(199,314,l),
(63,493,l),
(139,493,l),
(275,314,l)
);
},
{
closed = 1;
nodes = (
(330,136,l),
(254,136,l),
(390,314,l),
(254,493,l),
(330,493,l),
(466,314,l)
);
}
);
width = 528;
},
{
layerId = "29E3C8E8-2B44-49C3-BAE8-24201C487834";
shapes = (
{
closed = 1;
nodes = (
(139,136,l),
(63,136,l),
(199,314,l),
(63,493,l),
(139,493,l),
(275,314,l)
);
},
{
closed = 1;
nodes = (
(330,136,l),
(254,136,l),
(390,314,l),
(254,493,l),
(330,493,l),
(466,314,l)
);
}
);
width = 528;
}
);
unicode = 187;
}
{
glyphname = questiondown;
layers = (
{
layerId = "62CCE428-27AF-4174-8C32-8EDF06C2E6AE";
shapes = (
{
closed = 1;
nodes = (
(238,266,o),
(256,282,o),
(268,293,cs),
(280,304,o),
(293,318,o),
(307,335,cs),
(311,341,o),
(315,347,o),
(320,353,c),
(331,370,o),
(338,377,o),
(350,377,cs),
(360,377,o),
(369,370,o),
(377,356,cs),
(392,327,o),
(393,278,o),
(372,231,c),
(360,202,o),
(340,180,o),
(307,147,cs),
(270,108,o),
(251,88,o),
(251,56,cs),
(251,23,o),
(279,1,o),
(323,1,cs),
(350,1,o),
(374,6,o),
(396,16,cs),
(418,26,o),
(438,40,o),
(457,57,c),
(457,-74,l),
(426,-113,o),
(367,-148,o),
(286,-148,cs),
(225,-148,o),
(177,-131,o),
(140,-98,cs),
(103,-64,o),
(84,-19,o),
(84,36,cs),
(84,67,o),
(91,96,o),
(104,122,cs),
(131,174,o),
(164,206,o),
(213,245,cs)
);
},
{
closed = 1;
nodes = (
(243,432,o),
(198,471,o),
(198,526,cs),
(198,581,o),
(242,620,o),
(303,620,cs),
(364,620,o),
(408,582,o),
(408,526,cs),
(408,471,o),
(364,432,o),
(303,432,cs)
);
}
);
width = 541;
},
{
layerId = "7A295977-FA7A-4808-B07F-0795E8A98AF6";
shapes = (
{
closed = 1;
nodes = (
(235,252,o),
(255,268,o),
(269,281,cs),
(282,293,o),
(295,307,o),
(307,324,cs),
(313,332,o),
(319,341,o),
(323,350,c),
(334,370,o),
(340,377,o),
(350,377,cs),
(360,377,o),
(368,371,o),
(373,359,cs),
(384,334,o),
(382,293,o),
(359,254,c),
(346,230,o),
(326,213,o),
(284,175,c),
(220,119,o),
(188,87,o),
(188,40,cs),
(188,-18,o),
(233,-56,o),
(299,-56,cs),
(327,-56,o),
(355,-50,o),
(385,-38,c),
(413,-25,o),
(438,-9,o),
(457,10,c),
(457,-74,l),
(426,-113,o),
(367,-148,o),
(286,-148,cs),
(225,-148,o),
(177,-131,o),
(140,-98,cs),
(103,-64,o),
(84,-19,o),
(84,36,cs),
(84,68,o),
(90,96,o),
(102,120,cs),
(125,168,o),
(157,195,o),
(208,232,cs)
);
},
{
closed = 1;
nodes = (
(273,432,o),
(245,460,o),
(245,498,cs),
(245,538,o),
(274,565,o),
(315,565,cs),
(357,565,o),
(384,538,o),
(384,498,cs),
(384,458,o),
(355,432,o),
(315,432,cs)
);
}
);
width = 541;
},
{
layerId = "FBBD23DC-4A32-4E17-882F-E93472546798";
shapes = (
{
closed = 1;
nodes = (
(233,245,o),
(255,261,o),
(269,275,cs),
(283,288,o),
(296,302,o),
(307,318,cs),
(314,327,o),
(321,338,o),
(325,348,c),
(336,370,o),
(341,377,o),
(350,377,cs),
(360,377,o),
(367,371,o),
(371,361,cs),
(380,338,o),
(376,301,o),
(353,266,c),
(339,244,o),
(319,229,o),
(273,189,c),
(195,125,o),
(157,87,o),
(157,32,cs),
(157,-39,o),
(210,-84,o),
(287,-84,cs),
(315,-84,o),
(346,-78,o),
(379,-65,c),
(411,-51,o),
(438,-34,o),
(457,-14,c),
(457,-74,l),
(426,-113,o),
(367,-148,o),
(286,-148,cs),
(225,-148,o),
(177,-131,o),
(140,-98,cs),
(103,-64,o),
(84,-19,o),
(84,36,cs),
(84,68,o),
(90,96,o),
(101,119,cs),
(122,165,o),
(154,190,o),
(205,226,cs)
);
},
{
closed = 1;
nodes = (
(288,432,o),
(269,454,o),
(269,484,cs),
(269,517,o),
(290,537,o),
(321,537,cs),
(353,537,o),
(372,516,o),
(372,484,cs),
(372,452,o),
(350,432,o),
(321,432,cs)
);
}
);
width = 541;
}
);
unicode = 191;
}
{
glyphname = AE;
layers = (
{
anchors = (
{
name = m.uni0941_2;
position = "{1800, 0}";
},
{
name = t.uni0946_1_3;
position = "{566, 700}";
},
{
name = m.uni0328_2;
position = "{849, 0}";
}
);
layerId = "72BDA083-B3C3-4444-A72D-7A06DB42C04D";
shapes = (
{
closed = 1;
nodes = (
(566,277,l),
(566,140,l),
(231,140,l),
(231,277,l)
);
},
{
closed = 1;
nodes = (
(362,555,l),
(437,582,l),
(199,0,l),
(10,0,l),
(314,700,l),
(566,700,l),
(566,555,l)
);
},
{
closed = 1;
nodes = (
(922,429,l),
(922,282,l),
(622,282,l),
(622,429,l)
);
},
{
closed = 1;
nodes = (
(592,147,l),
(922,147,l),
(922,0,l),
(472,0,l),
(472,700,l),
(922,700,l),
(922,553,l),
(592,553,l),
(639,600,l),
(639,100,l)
);
}
);
width = 998;
},
{
anchors = (
{
name = m.uni0941_2;
position = "{1800, 0}";
},
{
name = t.uni0946_1_3;
position = "{566, 700}";
},
{
name = m.uni0328_2;
position = "{849, 0}";
}
);
layerId = "E5F094ED-45EA-480E-BC3C-862AD7D27802";
shapes = (
{
closed = 1;
nodes = (
(534,284,l),
(534,196,l),
(207,196,l),
(207,284,l)
);
},
{
closed = 1;
nodes = (
(385,611,l),
(422,626,l),
(136,0,l),
(18,0,l),
(346,700,l),
(566,700,l),
(566,611,l)
);
},
{
closed = 1;
nodes = (
(899,405,l),
(899,314,l),
(567,314,l),
(567,405,l)
);
},
{
closed = 1;
nodes = (
(537,91,l),
(899,91,l),
(899,0,l),
(479,0,l),
(479,700,l),
(899,700,l),
(899,609,l),
(537,609,l),
(584,656,l),
(584,44,l)
);
}
);
width = 988;
},
{
anchors = (
{
name = m.uni0941_2;
position = "{1800, 0}";
},
{
name = t.uni0946_1_3;
position = "{566, 700}";
},
{
name = m.uni0328_2;
position = "{849, 0}";
}
);
layerId = "29E3C8E8-2B44-49C3-BAE8-24201C487834";
shapes = (
{
closed = 1;
nodes = (
(518,288,l),
(518,224,l),
(195,224,l),
(195,288,l)
);
},
{
closed = 1;
nodes = (
(397,639,l),
(415,648,l),
(104,0,l),
(22,0,l),
(362,700,l),
(566,700,l),
(566,639,l)
);
},
{
closed = 1;
nodes = (
(887,393,l),
(887,330,l),
(539,330,l),
(539,393,l)
);
},
{
closed = 1;
nodes = (
(509,63,l),
(887,63,l),
(887,0,l),
(483,0,l),
(483,700,l),
(887,700,l),
(887,637,l),
(509,637,l),
(556,684,l),
(556,16,l)
);
}
);
width = 983;
}
);
leftKerningGroup = A;
unicode = 198;
}
{
glyphname = multiply;
layers = (
{
layerId = "84F707B8-E6F6-4560-9E91-EBCBB3F7C032";
shapes = (
{
closed = 1;
nodes = (
(646,515,l),
(556,604,l),
(84,131,l),
(173,42,l)
);
},
{
closed = 1;
nodes = (
(646,131,l),
(173,604,l),
(84,515,l),
(556,42,l)
);
}
);
width = 729;
},
{
layerId = "DF169942-312F-4CB9-BFF4-C95DA1EFA8DD";
shapes = (
{
closed = 1;
nodes = (
(622,526,l),
(556,592,l),
(84,119,l),
(149,54,l)
);
},
{
closed = 1;
nodes = (
(622,119,l),
(149,592,l),
(84,526,l),
(556,54,l)
);
}
);
width = 706;
},
{
layerId = "85DC3871-BA98-4DCB-A963-6B42D2E15F96";
shapes = (
{
closed = 1;
nodes = (
(610,532,l),
(556,586,l),
(84,113,l),
(137,60,l)
);
},
{
closed = 1;
nodes = (
(610,113,l),
(137,586,l),
(84,532,l),
(556,60,l)
);
}
);
width = 694;
}
);
unicode = 215;
}
{
glyphname = Thorn;
layers = (
{
layerId = "72BDA083-B3C3-4444-A72D-7A06DB42C04D";
shapes = (
{
closed = 1;
nodes = (
(251,700,l),
(251,0,l),
(84,0,l),
(84,700,l)
);
},
{
closed = 1;
nodes = (
(304,595,ls),
(475,595,o),
(576,510,o),
(576,366,cs),
(576,222,o),
(475,137,o),
(304,137,cs),
(211,137,l),
(211,284,l),
(304,284,ls),
(369,284,o),
(409,314,o),
(409,366,cs),
(409,417,o),
(369,449,o),
(304,449,cs),
(211,449,l),
(211,595,l)
);
}
);
width = 618;
},
{
layerId = "E5F094ED-45EA-480E-BC3C-862AD7D27802";
shapes = (
{
closed = 1;
nodes = (
(204,700,l),
(204,0,l),
(100,0,l),
(100,700,l)
);
},
{
closed = 1;
nodes = (
(288,595,ls),
(459,595,o),
(560,510,o),
(560,366,cs),
(560,222,o),
(459,137,o),
(288,137,cs),
(179,137,l),
(179,229,l),
(288,229,ls),
(394,229,o),
(456,279,o),
(456,366,cs),
(456,452,o),
(394,504,o),
(288,504,cs),
(179,504,l),
(179,595,l)
);
}
);
width = 611;
},
{
layerId = "29E3C8E8-2B44-49C3-BAE8-24201C487834";
shapes = (
{
closed = 1;
nodes = (
(181,700,l),
(181,0,l),
(108,0,l),
(108,700,l)
);
},
{
closed = 1;
nodes = (
(280,595,ls),
(451,595,o),
(552,510,o),
(552,366,cs),
(552,222,o),
(451,137,o),
(280,137,cs),
(163,137,l),
(163,201,l),
(280,201,ls),
(406,201,o),
(480,261,o),
(480,366,cs),
(480,469,o),
(406,532,o),
(280,532,cs),
(163,532,l),
(163,595,l)
);
}
);
width = 607;
}
);
leftKerningGroup = B;
unicode = 222;
}
{
glyphname = germandbls;
layers = (
{
layerId = "198774C1-CC10-42B9-85F8-E7CE679A5159";
shapes = (
{
closed = 1;
nodes = (
(159,500,l),
(10,500,l),
(10,362,l),
(159,362,l)
);
},
{
closed = 1;
nodes = (
(585,369,o),
(562,387,o),
(548,402,c),
(533,416,o),
(526,431,o),
(526,447,cs),
(526,466,o),
(532,477,o),
(545,502,c),
(564,534,o),
(573,558,o),
(573,591,cs),
(573,654,o),
(540,706,o),
(476,737,cs),
(443,752,o),
(405,760,o),
(360,760,cs),
(263,760,o),
(181,709,o),
(137,630,cs),
(114,590,o),
(103,547,o),
(103,500,cs),
(103,0,l),
(262,0,l),
(262,457,ls),
(262,532,o),
(281,582,o),
(310,605,cs),
(325,616,o),
(341,622,o),
(360,622,cs),
(404,622,o),
(421,599,o),
(421,560,cs),
(421,541,o),
(415,528,o),
(402,504,cs),
(386,473,o),
(376,451,o),
(376,419,cs),
(376,368,o),
(401,331,o),
(456,294,cs),
(527,246,o),
(559,210,o),
(559,177,cs),
(559,146,o),
(532,124,o),
(495,124,cs),
(470,124,o),
(444,129,o),
(418,138,cs),
(391,147,o),
(365,160,o),
(340,175,c),
(340,31,l),
(355,20,o),
(377,11,o),
(406,3,c),
(434,-6,o),
(466,-10,o),
(501,-10,cs),
(640,-10,o),
(722,64,o),
(722,177,cs),
(722,245,o),
(687,300,o),
(616,348,cs)
);
}
);
width = 754;
},
{
layerId = "D316A020-56DB-4308-AD51-D49B9BC7B732";
shapes = (
{
closed = 1;
nodes = (
(167,500,l),
(18,500,l),
(18,413,l),
(167,413,l)
);
},
{
closed = 1;
nodes = (
(535,369,o),
(512,386,o),
(499,400,cs),
(486,413,o),
(479,429,o),
(479,447,cs),
(479,467,o),
(485,483,o),
(499,507,c),
(515,538,o),
(524,559,o),
(524,591,cs),
(524,649,o),
(494,704,o),
(437,736,cs),
(408,752,o),
(374,760,o),
(336,760,cs),
(252,760,o),
(181,715,o),
(141,636,cs),
(121,596,o),
(110,551,o),
(110,500,cs),
(110,0,l),
(210,0,l),
(210,489,ls),
(210,571,o),
(235,627,o),
(273,654,cs),
(292,667,o),
(313,674,o),
(336,674,cs),
(394,674,o),
(425,634,o),
(425,583,cs),
(425,557,o),
(418,538,o),
(403,509,cs),
(390,482,o),
(381,466,o),
(381,440,cs),
(381,389,o),
(407,350,o),
(469,311,cs),
(541,265,o),
(574,224,o),
(574,170,cs),
(574,107,o),
(532,75,o),
(468,75,cs),
(440,75,o),
(410,83,o),
(379,98,cs),
(347,113,o),
(321,133,o),
(301,158,c),
(301,56,l),
(316,39,o),
(340,24,o),
(371,10,cs),
(401,-4,o),
(434,-10,o),
(469,-10,cs),
(596,-10,o),
(675,57,o),
(675,170,cs),
(675,237,o),
(634,305,o),
(569,348,c)
);
}
);
width = 721;
},
{
layerId = "DA1743F1-FF62-465F-8D09-7851030965A4";
shapes = (
{
closed = 1;
nodes = (
(171,500,l),
(22,500,l),
(22,439,l),
(171,439,l)
);
},
{
closed = 1;
nodes = (
(510,369,o),
(487,386,o),
(474,399,cs),
(462,411,o),
(455,428,o),
(455,447,cs),
(455,468,o),
(461,486,o),
(476,509,c),
(491,540,o),
(500,560,o),
(500,591,cs),
(500,647,o),
(471,703,o),
(417,736,cs),
(390,752,o),
(358,760,o),
(324,760,cs),
(247,760,o),
(181,718,o),
(143,639,cs),
(124,599,o),
(114,553,o),
(114,500,cs),
(114,0,l),
(184,0,l),
(184,505,ls),
(184,590,o),
(212,649,o),
(254,679,c),
(276,693,o),
(299,700,o),
(324,700,cs),
(389,700,o),
(427,652,o),
(427,595,cs),
(427,565,o),
(420,543,o),
(403,511,c),
(392,487,o),
(384,473,o),
(384,451,cs),
(384,399,o),
(410,360,o),
(475,319,cs),
(548,274,o),
(582,231,o),
(582,166,cs),
(582,88,o),
(532,50,o),
(454,50,cs),
(425,50,o),
(393,60,o),
(359,78,cs),
(325,96,o),
(299,120,o),
(281,149,c),
(281,68,l),
(297,48,o),
(321,30,o),
(354,14,c),
(385,-3,o),
(418,-10,o),
(453,-10,cs),
(574,-10,o),
(651,54,o),
(651,166,cs),
(651,233,o),
(607,308,o),
(545,348,c)
);
}
);
width = 705;
}
);
unicode = 223;
}
{
glyphname = ae;
layers = (
{
anchors = (
{
name = m.uni0941_2;
position = "{770, 0}";
},
{
name = t.uni0946_1_3;
position = "{456, 495}";
},
{
name = m.uni0328_2;
position = "{726, 3}";
}
);
layerId = "72BDA083-B3C3-4444-A72D-7A06DB42C04D";
shapes = (
{
closed = 1;
nodes = (
(328,301,ls),
(328,348,o),
(304,373,o),
(254,373,cs),
(189,373,o),
(113,348,o),
(64,320,c),
(64,457,l),
(106,483,o),
(179,510,o),
(254,510,cs),
(374,510,o),
(445,428,o),
(445,289,cs),
(445,224,l),
(328,224,l)
);
},
{
closed = 1;
nodes = (
(105,-11,o),
(42,42,o),
(42,123,cs),
(42,213,o),
(113,274,o),
(233,288,cs),
(271,292,o),
(323,291,o),
(362,290,c),
(392,288,l),
(392,224,l),
(332,224,o),
(290,221,o),
(266,215,cs),
(222,203,o),
(201,184,o),
(201,155,cs),
(201,130,o),
(218,116,o),
(249,116,cs),
(265,116,o),
(278,121,o),
(290,129,cs),
(314,146,o),
(328,179,o),
(328,224,c),
(392,175,l),
(393,142,o),
(385,111,o),
(369,83,cs),
(338,26,o),
(276,-11,o),
(201,-11,cs)
);
},
{
closed = 1;
nodes = (
(736,297,l),
(702,266,l),
(704,288,o),
(701,308,o),
(693,326,c),
(676,362,o),
(641,383,o),
(598,383,cs),
(539,383,o),
(495,340,o),
(488,282,c),
(487,249,l),
(488,210,o),
(501,179,o),
(527,159,c),
(553,138,o),
(589,127,o),
(635,127,cs),
(670,127,o),
(700,130,o),
(726,138,cs),
(752,145,o),
(781,156,o),
(815,169,c),
(815,42,l),
(772,12,o),
(699,-11,o),
(614,-11,cs),
(558,-11,o),
(508,0,o),
(465,22,cs),
(378,65,o),
(328,147,o),
(328,250,cs),
(328,302,o),
(340,347,o),
(363,386,cs),
(409,466,o),
(493,510,o),
(598,510,cs),
(648,510,o),
(691,500,o),
(728,477,cs),
(764,455,o),
(792,429,o),
(811,398,cs),
(844,344,o),
(852,277,o),
(847,218,c),
(440,218,l),
(440,297,l)
);
}
);
width = 880;
},
{
anchors = (
{
name = m.uni0941_2;
position = "{770, 0}";
},
{
name = t.uni0946_1_3;
position = "{456, 495}";
},
{
name = m.uni0328_2;
position = "{726, 3}";
}
);
layerId = "E5F094ED-45EA-480E-BC3C-862AD7D27802";
shapes = (
{
closed = 1;
nodes = (
(368,305,ls),
(368,387,o),
(336,424,o),
(262,424,cs),
(195,424,o),
(123,399,o),
(71,364,c),
(71,457,l),
(111,483,o),
(180,510,o),
(262,510,cs),
(381,510,o),
(445,435,o),
(445,289,cs),
(445,232,l),
(368,232,l)
);
},
{
closed = 1;
nodes = (
(112,-11,o),
(50,42,o),
(50,123,cs),
(50,210,o),
(116,268,o),
(233,285,cs),
(284,293,o),
(338,292,o),
(394,289,cs),
(424,288,l),
(424,232,l),
(353,232,o),
(293,228,o),
(247,218,cs),
(185,205,o),
(149,173,o),
(149,131,cs),
(149,94,o),
(178,72,o),
(225,72,cs),
(251,72,o),
(275,80,o),
(298,91,c),
(342,117,o),
(371,167,o),
(368,232,c),
(408,198,l),
(408,159,o),
(400,124,o),
(382,92,c),
(347,28,o),
(282,-11,o),
(209,-11,cs)
);
},
{
closed = 1;
nodes = (
(824,293,l),
(775,254,l),
(777,287,o),
(772,318,o),
(760,343,c),
(736,397,o),
(686,427,o),
(626,427,cs),
(538,427,o),
(476,367,o),
(467,274,c),
(466,249,l),
(467,195,o),
(484,152,o),
(518,122,cs),
(552,91,o),
(596,75,o),
(651,75,cs),
(687,75,o),
(721,81,o),
(753,92,c),
(784,104,o),
(812,119,o),
(839,137,c),
(839,50,l),
(800,17,o),
(723,-11,o),
(638,-11,cs),
(585,-11,o),
(538,0,o),
(498,22,cs),
(417,65,o),
(368,147,o),
(368,250,cs),
(368,302,o),
(379,347,o),
(402,386,c),
(444,466,o),
(526,510,o),
(626,510,cs),
(679,510,o),
(724,498,o),
(758,473,cs),
(793,448,o),
(820,420,o),
(838,387,cs),
(861,343,o),
(873,282,o),
(869,226,c),
(433,226,l),
(433,293,l)
);
}
);
width = 909;
},
{
anchors = (
{
name = m.uni0941_2;
position = "{770, 0}";
},
{
name = t.uni0946_1_3;
position = "{456, 495}";
},
{
name = m.uni0328_2;
position = "{726, 3}";
}
);
layerId = "29E3C8E8-2B44-49C3-BAE8-24201C487834";
shapes = (
{
closed = 1;
nodes = (
(388,307,ls),
(388,407,o),
(352,450,o),
(266,450,cs),
(198,450,o),
(128,424,o),
(75,386,c),
(75,457,l),
(113,483,o),
(181,510,o),
(266,510,cs),
(385,510,o),
(445,438,o),
(445,289,cs),
(445,236,l),
(388,236,l)
);
},
{
closed = 1;
nodes = (
(116,-11,o),
(54,42,o),
(54,123,cs),
(54,208,o),
(118,265,o),
(233,283,cs),
(290,293,o),
(345,292,o),
(410,289,cs),
(440,288,l),
(440,236,l),
(363,236,o),
(295,231,o),
(237,220,cs),
(166,206,o),
(123,168,o),
(123,119,cs),
(123,76,o),
(158,50,o),
(213,50,cs),
(244,50,o),
(273,59,o),
(302,72,c),
(356,103,o),
(392,161,o),
(388,236,c),
(416,210,l),
(416,168,o),
(407,130,o),
(388,97,c),
(352,29,o),
(285,-11,o),
(213,-11,cs)
);
},
{
closed = 1;
nodes = (
(868,291,l),
(812,248,l),
(813,287,o),
(808,323,o),
(793,352,c),
(766,414,o),
(708,449,o),
(640,449,cs),
(538,449,o),
(466,381,o),
(457,270,c),
(456,249,l),
(457,188,o),
(476,139,o),
(513,103,cs),
(551,67,o),
(599,49,o),
(659,49,cs),
(696,49,o),
(732,56,o),
(766,69,c),
(800,83,o),
(828,100,o),
(851,121,c),
(851,54,l),
(814,19,o),
(735,-11,o),
(650,-11,cs),
(599,-11,o),
(553,0,o),
(515,22,c),
(436,65,o),
(388,147,o),
(388,250,cs),
(388,302,o),
(399,347,o),
(421,386,c),
(462,466,o),
(543,510,o),
(640,510,cs),
(695,510,o),
(740,497,o),
(773,471,cs),
(808,445,o),
(834,415,o),
(851,382,c),
(870,342,o),
(884,284,o),
(880,230,c),
(429,230,l),
(429,291,l)
);
}
);
width = 924;
}
);
leftKerningGroup = a2;
rightKerningGroup = e;
unicode = 230;
}
{
glyphname = eth;
layers = (
{
layerId = "72BDA083-B3C3-4444-A72D-7A06DB42C04D";
shapes = (
{
closed = 1;
nodes = (
(295,800,o),
(353,783,o),
(404,750,cs),
(505,683,o),
(562,555,o),
(562,396,cs),
(562,315,o),
(550,244,o),
(527,183,cs),
(479,60,o),
(391,-10,o),
(279,-10,cs),
(230,-10,o),
(186,1,o),
(149,22,cs),
(74,64,o),
(31,144,o),
(31,244,cs),
(31,294,o),
(42,339,o),
(63,378,cs),
(105,457,o),
(178,502,o),
(257,502,cs),
(288,502,o),
(315,496,o),
(340,483,cs),
(389,458,o),
(419,416,o),
(424,377,c),
(424,448,o),
(415,507,o),
(396,553,cs),
(359,644,o),
(292,684,o),
(219,684,cs),
(155,684,o),
(102,667,o),
(53,631,c),
(53,759,l),
(102,786,o),
(160,800,o),
(229,800,cs)
);
},
{
closed = 1;
nodes = (
(325,127,o),
(349,138,o),
(368,160,cs),
(387,181,o),
(396,209,o),
(396,244,cs),
(396,281,o),
(387,310,o),
(368,333,cs),
(349,355,o),
(325,366,o),
(296,366,cs),
(263,366,o),
(238,355,o),
(219,333,cs),
(200,310,o),
(190,281,o),
(190,244,cs),
(190,209,o),
(200,181,o),
(219,160,cs),
(238,138,o),
(263,127,o),
(296,127,cs)
);
},
{
closed = 1;
nodes = (
(511,768,l),
(273,554,l),
(243,587,l),
(482,800,l)
);
}
);
width = 625;
},
{
layerId = "E5F094ED-45EA-480E-BC3C-862AD7D27802";
shapes = (
{
closed = 1;
nodes = (
(316,800,o),
(371,784,o),
(421,752,cs),
(520,688,o),
(578,564,o),
(578,396,cs),
(578,315,o),
(566,244,o),
(543,183,cs),
(495,60,o),
(407,-10,o),
(295,-10,cs),
(246,-10,o),
(202,1,o),
(165,22,cs),
(90,64,o),
(48,144,o),
(48,244,cs),
(48,294,o),
(59,339,o),
(80,378,cs),
(123,457,o),
(200,502,o),
(289,502,cs),
(323,502,o),
(354,495,o),
(381,482,cs),
(435,455,o),
(470,409,o),
(481,370,c),
(481,445,o),
(471,508,o),
(451,560,cs),
(411,663,o),
(339,716,o),
(252,716,cs),
(180,716,o),
(121,698,o),
(69,663,c),
(69,751,l),
(119,784,o),
(181,800,o),
(254,800,cs)
);
},
{
closed = 1;
nodes = (
(352,80,o),
(388,95,o),
(417,125,c),
(444,156,o),
(457,194,o),
(457,243,cs),
(457,295,o),
(444,335,o),
(417,367,c),
(388,398,o),
(352,413,o),
(308,413,cs),
(261,413,o),
(223,398,o),
(194,367,cs),
(165,335,o),
(150,295,o),
(150,243,cs),
(150,194,o),
(165,156,o),
(194,125,cs),
(223,95,o),
(261,80,o),
(308,80,cs)
);
},
{
closed = 1;
nodes = (
(527,768,l),
(289,554,l),
(260,587,l),
(498,800,l)
);
}
);
width = 658;
},
{
layerId = "29E3C8E8-2B44-49C3-BAE8-24201C487834";
shapes = (
{
closed = 1;
nodes = (
(326,800,o),
(380,784,o),
(429,753,cs),
(527,691,o),
(586,569,o),
(586,396,cs),
(586,315,o),
(574,244,o),
(551,183,cs),
(503,60,o),
(415,-10,o),
(303,-10,cs),
(254,-10,o),
(210,1,o),
(173,22,cs),
(98,64,o),
(56,144,o),
(56,244,cs),
(56,294,o),
(67,339,o),
(89,378,cs),
(132,457,o),
(211,502,o),
(305,502,cs),
(340,502,o),
(373,495,o),
(401,482,c),
(458,453,o),
(496,406,o),
(509,366,c),
(509,443,o),
(499,509,o),
(479,564,cs),
(437,673,o),
(362,732,o),
(268,732,cs),
(193,732,o),
(130,714,o),
(77,679,c),
(77,747,l),
(127,783,o),
(191,800,o),
(266,800,cs)
);
},
{
closed = 1;
nodes = (
(366,56,o),
(408,73,o),
(441,108,c),
(472,143,o),
(488,187,o),
(488,243,cs),
(488,302,o),
(472,348,o),
(441,384,c),
(408,419,o),
(366,436,o),
(314,436,cs),
(260,436,o),
(215,419,o),
(182,384,cs),
(147,348,o),
(130,302,o),
(130,243,cs),
(130,187,o),
(147,143,o),
(182,108,c),
(215,73,o),
(260,56,o),
(314,56,cs)
);
},
{
closed = 1;
nodes = (
(535,768,l),
(297,554,l),
(268,587,l),
(506,800,l)
);
}
);
width = 674;
}
);
unicode = 240;
}
{
glyphname = divide;
layers = (
{
layerId = "578F755D-994C-42C1-BB23-8F906AA68774";
shapes = (
{
closed = 1;
nodes = (
(412,4,o),
(452,39,o),
(452,90,cs),
(452,142,o),
(412,176,o),
(356,176,cs),
(301,176,o),
(262,139,o),
(262,90,cs),
(262,39,o),
(301,4,o),
(356,4,cs)
);
},
{
closed = 1;
nodes = (
(412,455,o),
(452,490,o),
(452,541,cs),
(452,592,o),
(412,627,o),
(356,627,cs),
(301,627,o),
(262,589,o),
(262,541,cs),
(262,490,o),
(301,455,o),
(356,455,cs)
);
},
{
closed = 1;
nodes = (
(629,377,l),
(84,377,l),
(84,251,l),
(629,251,l)
);
}
);
width = 713;
},
{
layerId = "DBD1B0BE-353E-4EBF-B6EE-D0152B0FB6BB";
shapes = (
{
closed = 1;
nodes = (
(401,38,o),
(433,68,o),
(433,111,cs),
(433,155,o),
(402,186,o),
(356,186,cs),
(312,186,o),
(281,156,o),
(281,111,cs),
(281,68,o),
(312,38,o),
(356,38,cs)
);
},
{
closed = 1;
nodes = (
(401,443,o),
(433,473,o),
(433,516,cs),
(433,559,o),
(402,590,o),
(356,590,cs),
(312,590,o),
(281,560,o),
(281,516,cs),
(281,473,o),
(312,443,o),
(356,443,cs)
);
},
{
closed = 1;
nodes = (
(629,361,l),
(84,361,l),
(84,267,l),
(629,267,l)
);
}
);
width = 713;
},
{
layerId = "EEBEDCE0-4D70-4EE0-A037-F223D2B7A84D";
shapes = (
{
closed = 1;
nodes = (
(395,55,o),
(423,83,o),
(423,122,cs),
(423,161,o),
(397,191,o),
(356,191,cs),
(318,191,o),
(290,164,o),
(290,122,cs),
(290,83,o),
(317,55,o),
(356,55,cs)
);
},
{
closed = 1;
nodes = (
(395,437,o),
(423,465,o),
(423,504,cs),
(423,543,o),
(397,571,o),
(356,571,cs),
(318,571,o),
(290,546,o),
(290,504,cs),
(290,465,o),
(317,437,o),
(356,437,cs)
);
},
{
closed = 1;
nodes = (
(629,353,l),
(84,353,l),
(84,275,l),
(629,275,l)
);
}
);
width = 713;
}
);
unicode = 247;
}
